<?xml version="1.0" encoding="UTF-8"?>
<!DOCTYPE svg PUBLIC "-//W3C//DTD SVG 1.1//EN" "http://www.w3.org/Graphics/SVG/1.1/DTD/svg11.dtd">
<svg xmlns="http://www.w3.org/2000/svg" version="1.1" width="182px" height="152px" style="shape-rendering:geometricPrecision; text-rendering:geometricPrecision; image-rendering:optimizeQuality; fill-rule:evenodd; clip-rule:evenodd" xmlns:xlink="http://www.w3.org/1999/xlink">
<g><path style="opacity:1" fill="#e1f8fd" d="M 30.5,11.5 C 28.8333,12.1667 27.1667,12.8333 25.5,13.5C 24.2921,14.2341 22.9587,14.5674 21.5,14.5C 21.9175,13.7784 22.5842,13.2784 23.5,13C 21.0989,12.195 21.2656,11.3617 24,10.5C 26.0408,11.4231 28.2075,11.7564 30.5,11.5 Z"/></g>
<g><path style="opacity:1" fill="#6481b7" d="M 30.5,11.5 C 69.1667,11.5 107.833,11.5 146.5,11.5C 148.167,12.1667 149.833,12.8333 151.5,13.5C 109.5,13.5 67.5,13.5 25.5,13.5C 27.1667,12.8333 28.8333,12.1667 30.5,11.5 Z"/></g>
<g><path style="opacity:0.835" fill="#e4fcff" d="M 146.5,11.5 C 149.187,11.3359 151.854,11.5026 154.5,12C 153.944,12.3826 153.611,12.8826 153.5,13.5C 152.833,13.5 152.167,13.5 151.5,13.5C 149.833,12.8333 148.167,12.1667 146.5,11.5 Z"/></g>
<g><path style="opacity:1" fill="#3999fd" d="M 25.5,13.5 C 67.5,13.5 109.5,13.5 151.5,13.5C 152.167,13.5 152.833,13.5 153.5,13.5C 154.778,13.7822 155.778,14.4489 156.5,15.5C 158.127,17.6298 159.96,19.6298 162,21.5C 162.941,24.154 163.774,26.8206 164.5,29.5C 164.818,59.5439 164.484,89.5439 163.5,119.5C 162.512,120.795 161.512,122.128 160.5,123.5C 160.5,123.833 160.5,124.167 160.5,124.5C 159.833,124.5 159.5,124.833 159.5,125.5C 158.167,125.5 157.5,126.167 157.5,127.5C 156.5,127.833 155.833,128.5 155.5,129.5C 153.597,129.796 151.93,130.463 150.5,131.5C 110.196,132.649 69.8624,132.816 29.5,132C 26.0088,131.078 22.6755,129.911 19.5,128.5C 19.5,128.167 19.5,127.833 19.5,127.5C 18.7377,125.738 17.4044,124.738 15.5,124.5C 14.8902,123.609 14.5569,122.609 14.5,121.5C 14.1667,120.167 13.8333,118.833 13.5,117.5C 13.5,86.8333 13.5,56.1667 13.5,25.5C 13.8333,24.1667 14.1667,22.8333 14.5,21.5C 15.1667,21.5 15.5,21.1667 15.5,20.5C 17.5,19.1667 19.1667,17.5 20.5,15.5C 21.1667,15.5 21.5,15.1667 21.5,14.5C 22.9587,14.5674 24.2921,14.2341 25.5,13.5 Z M 39.5,23.5 C 72.0043,23.1684 104.338,23.5018 136.5,24.5C 138.284,23.2801 139.95,23.2801 141.5,24.5C 140.292,25.2341 138.959,25.5674 137.5,25.5C 137.074,27.1388 137.074,28.4721 137.5,29.5C 136.833,30.5 136.167,31.5 135.5,32.5C 132.821,32.5246 131.488,33.858 131.5,36.5C 129.833,38.1667 128.167,39.8333 126.5,41.5C 125.5,41.5 124.5,41.5 123.5,41.5C 123.5,42.8333 123.5,44.1667 123.5,45.5C 123.5,45.8333 123.5,46.1667 123.5,46.5C 122.883,46.3893 122.383,46.056 122,45.5C 120.951,47.1066 119.451,47.7733 117.5,47.5C 117.5,48.8333 117.5,50.1667 117.5,51.5C 116.167,51.5 114.833,51.5 113.5,51.5C 113.737,52.791 113.404,53.791 112.5,54.5C 113.11,55.391 113.443,56.391 113.5,57.5C 112.25,57.5774 111.417,58.244 111,59.5C 110.617,58.944 110.117,58.6107 109.5,58.5C 109.5,59.5 109.5,60.5 109.5,61.5C 108.167,61.5 107.5,62.1667 107.5,63.5C 107.5,63.8333 107.5,64.1667 107.5,64.5C 105.5,64.5 104.5,65.5 104.5,67.5C 103.833,67.5 103.5,67.8333 103.5,68.5C 101.797,67.3398 101.131,68.0065 101.5,70.5C 101.167,70.5 100.833,70.5 100.5,70.5C 98.8058,73.5276 96.4724,75.8609 93.5,77.5C 89.9558,77.2805 86.6224,77.2805 83.5,77.5C 83.1788,75.9519 82.1788,75.2852 80.5,75.5C 78.8333,73.8333 77.1667,72.1667 75.5,70.5C 75.81,69.2617 76.31,69.2617 77,70.5C 77.6667,69.8333 77.6667,69.1667 77,68.5C 74.4944,66.1365 71.6611,64.4698 68.5,63.5C 68.1667,62.8333 67.8333,62.1667 67.5,61.5C 66.8288,60.1529 66.8288,58.9862 67.5,58C 66.6477,56.2716 65.6477,56.105 64.5,57.5C 61.4034,54.9354 58.7367,51.9354 56.5,48.5C 55.5,48.1667 54.8333,47.5 54.5,46.5C 54.1667,46.5 53.8333,46.5 53.5,46.5C 53.6308,43.6333 52.2974,41.9666 49.5,41.5C 48.5398,39.5393 47.2065,37.8726 45.5,36.5C 45.3146,34.8042 44.4813,33.4709 43,32.5C 42.6012,32.7284 42.4346,33.0618 42.5,33.5C 41.8333,33.5 41.5,33.1667 41.5,32.5C 40.6279,30.0518 39.2946,27.8851 37.5,26C 38.756,25.5831 39.4226,24.7498 39.5,23.5 Z M 23.5,35.5 C 25.5887,37.254 27.922,38.5873 30.5,39.5C 31.1667,40.1667 31.8333,40.8333 32.5,41.5C 31.1997,44.8665 32.1997,45.8665 35.5,44.5C 36.604,46.3885 37.9373,48.0552 39.5,49.5C 38.5301,53.1968 39.8634,54.5301 43.5,53.5C 43.5569,54.609 43.8902,55.609 44.5,56.5C 44.8333,56.5 45.1667,56.5 45.5,56.5C 45.7286,58.433 46.5619,60.0997 48,61.5C 48.8159,62.8228 49.9826,63.4894 51.5,63.5C 53.5293,65.8585 55.5293,68.1918 57.5,70.5C 58.8103,73.4732 60.8103,75.8065 63.5,77.5C 64.1667,77.5 64.5,77.8333 64.5,78.5C 64.8564,80.1898 65.8564,81.1898 67.5,81.5C 68.0722,83.2554 68.9055,84.9221 70,86.5C 70.3826,85.944 70.8826,85.6107 71.5,85.5C 71.8417,86.3382 72.5084,86.6716 73.5,86.5C 73.8333,87.1667 74.1667,87.8333 74.5,88.5C 75.2216,88.9175 75.7216,89.5842 76,90.5C 76.3826,89.944 76.8826,89.6107 77.5,89.5C 78.1667,89.8333 78.8333,90.1667 79.5,90.5C 79.7828,91.2891 80.2828,91.9558 81,92.5C 86.4696,91.1849 91.9696,91.1849 97.5,92.5C 99.0087,90.5761 101.009,89.4094 103.5,89C 102.584,88.7216 101.918,88.2216 101.5,87.5C 101.833,87.5 102.167,87.5 102.5,87.5C 105.069,87.2623 106.735,85.929 107.5,83.5C 109.929,82.7352 111.262,81.0685 111.5,78.5C 112.29,77.5987 113.29,76.9321 114.5,76.5C 116.192,74.1485 117.858,71.8152 119.5,69.5C 121.103,70.6772 122.436,70.5106 123.5,69C 122.829,68.0138 122.829,66.8471 123.5,65.5C 123.833,64.8333 124.167,64.1667 124.5,63.5C 125.492,63.3284 126.158,63.6618 126.5,64.5C 128.939,62.9732 130.939,60.9732 132.5,58.5C 131.596,57.791 131.263,56.791 131.5,55.5C 132.167,55.5 132.833,55.5 133.5,55.5C 133.5,54.8333 133.5,54.1667 133.5,53.5C 135.203,54.6602 135.869,53.9935 135.5,51.5C 136.167,51.5 136.833,51.5 137.5,51.5C 137.5,50.8333 137.5,50.1667 137.5,49.5C 138.167,48.8333 138.833,48.1667 139.5,47.5C 139.369,48.3764 139.702,49.0431 140.5,49.5C 141.5,48.5 142.5,47.5 143.5,46.5C 143.145,45.4777 142.478,44.811 141.5,44.5C 142.694,43.7281 143.694,42.7281 144.5,41.5C 146.58,40.9556 148.58,40.1223 150.5,39C 150.381,37.8552 150.048,36.6885 149.5,35.5C 150.832,47.8153 151.499,60.4819 151.5,73.5C 151.167,86.1667 150.833,98.8333 150.5,111.5C 149.201,113.758 148.201,116.092 147.5,118.5C 146.167,118.833 144.833,119.167 143.5,119.5C 105.5,119.5 67.5,119.5 29.5,119.5C 29.5,119.167 29.5,118.833 29.5,118.5C 30.6602,116.797 29.9935,116.131 27.5,116.5C 27.5,115.167 27.5,113.833 27.5,112.5C 26.0413,112.567 24.7079,112.234 23.5,111.5C 23.5,86.1667 23.5,60.8333 23.5,35.5 Z"/></g>
<g><path style="opacity:0.396" fill="#f7ffef" d="M 9.5,15.5 C 10.8333,16.1667 10.8333,16.1667 9.5,15.5 Z"/></g>
<g><path style="opacity:0.986" fill="#e7f7f9" d="M 20.5,15.5 C 19.1667,17.5 17.5,19.1667 15.5,20.5C 15.5,18.8333 15.5,17.1667 15.5,15.5C 17.1667,15.5 18.8333,15.5 20.5,15.5 Z"/></g>
<g><path style="opacity:0.671" fill="#e5fafc" d="M 156.5,15.5 C 163.063,18.3061 166.063,22.9728 165.5,29.5C 165.167,29.5 164.833,29.5 164.5,29.5C 163.774,26.8206 162.941,24.154 162,21.5C 159.96,19.6298 158.127,17.6298 156.5,15.5 Z"/></g>
<g><path style="opacity:0.92" fill="#e8fdfd" d="M 14.5,21.5 C 14.1667,22.8333 13.8333,24.1667 13.5,25.5C 12.8333,27.5 12.1667,29.5 11.5,31.5C 11.7683,28.8806 11.435,26.3806 10.5,24C 11.1653,21.4229 12.4986,20.5896 14.5,21.5 Z"/></g>
<g><path style="opacity:1" fill="#d4ecf6" d="M 39.5,23.5 C 39.4226,24.7498 38.756,25.5831 37.5,26C 39.2946,27.8851 40.6279,30.0518 41.5,32.5C 38.6998,29.8643 36.0332,27.0309 33.5,24C 35.4727,23.5045 37.4727,23.3379 39.5,23.5 Z"/></g>
<g><path style="opacity:1" fill="#e3fbfe" d="M 141.5,24.5 C 141.262,26.4783 139.929,28.1449 137.5,29.5C 137.074,28.4721 137.074,27.1388 137.5,25.5C 138.959,25.5674 140.292,25.2341 141.5,24.5 Z"/></g>
<g><path style="opacity:1" fill="#edf8fe" d="M 166.5,29.5 C 167.833,30.1667 167.833,30.1667 166.5,29.5 Z"/></g>
<g><path style="opacity:1" fill="#6482b7" d="M 13.5,25.5 C 13.5,56.1667 13.5,86.8333 13.5,117.5C 12.8333,115.833 12.1667,114.167 11.5,112.5C 11.5,85.5 11.5,58.5 11.5,31.5C 12.1667,29.5 12.8333,27.5 13.5,25.5 Z"/></g>
<g><path style="opacity:1" fill="#a4ceff" d="M 164.5,29.5 C 164.833,29.5 165.167,29.5 165.5,29.5C 166.159,59.8519 165.492,89.8519 163.5,119.5C 164.484,89.5439 164.818,59.5439 164.5,29.5 Z"/></g>
<g><path style="opacity:1" fill="#ebf9ff" d="M 45.5,36.5 C 44.1667,35.8333 43.1667,34.8333 42.5,33.5C 42.4346,33.0618 42.6012,32.7284 43,32.5C 44.4813,33.4709 45.3146,34.8042 45.5,36.5 Z"/></g>
<g><path style="opacity:1" fill="#e0f6fd" d="M 135.5,32.5 C 134.5,34.1667 133.167,35.5 131.5,36.5C 131.488,33.858 132.821,32.5246 135.5,32.5 Z"/></g>
<g><path style="opacity:1" fill="#dcf5ff" d="M 30.5,39.5 C 27.922,38.5873 25.5887,37.254 23.5,35.5C 23.272,33.6453 23.9387,32.8119 25.5,33C 27.0544,35.2869 28.7211,37.4535 30.5,39.5 Z"/></g>
<g><path style="opacity:0.756" fill="#eff8fb" d="M 149.5,35.5 C 150.048,36.6885 150.381,37.8552 150.5,39C 148.58,40.1223 146.58,40.9556 144.5,41.5C 146.196,39.4752 147.863,37.4752 149.5,35.5 Z"/></g>
<g><path style="opacity:1" fill="#e3fbff" d="M 126.5,41.5 C 126.262,43.4044 125.262,44.7377 123.5,45.5C 123.5,44.1667 123.5,42.8333 123.5,41.5C 124.5,41.5 125.5,41.5 126.5,41.5 Z"/></g>
<g><path style="opacity:1" fill="#e5f1f6" d="M 32.5,41.5 C 33.8333,42.1667 34.8333,43.1667 35.5,44.5C 32.1997,45.8665 31.1997,44.8665 32.5,41.5 Z"/></g>
<g><path style="opacity:1" fill="#daf1fd" d="M 49.5,41.5 C 52.2974,41.9666 53.6308,43.6333 53.5,46.5C 51.9373,45.0552 50.604,43.3885 49.5,41.5 Z"/></g>
<g><path style="opacity:0.911" fill="#feffee" d="M 25.5,45.5 C 27.337,45.6395 27.6704,46.3061 26.5,47.5C 25.7025,47.0431 25.3691,46.3764 25.5,45.5 Z"/></g>
<g><path style="opacity:0.982" fill="#e9fefe" d="M 147.5,118.5 C 148.201,116.092 149.201,113.758 150.5,111.5C 150.833,98.8333 151.167,86.1667 151.5,73.5C 151.499,60.4819 150.832,47.8153 149.5,35.5C 150.122,34.3734 150.955,33.3734 152,32.5C 152.667,59.8333 152.667,87.1667 152,114.5C 150.629,116.041 149.129,117.375 147.5,118.5 Z"/></g>
<g><path style="opacity:0.925" fill="#f8faf1" d="M 141.5,44.5 C 142.478,44.811 143.145,45.4777 143.5,46.5C 142.5,47.5 141.5,48.5 140.5,49.5C 139.702,49.0431 139.369,48.3764 139.5,47.5C 139.932,46.2905 140.599,45.2905 141.5,44.5 Z"/></g>
<g><path style="opacity:1" fill="#d4eefa" d="M 137.5,49.5 C 137.5,50.1667 137.5,50.8333 137.5,51.5C 136.833,51.5 136.167,51.5 135.5,51.5C 135.5,50.1667 136.167,49.5 137.5,49.5 Z"/></g>
<g><path style="opacity:0.991" fill="#e7f5fb" d="M 39.5,49.5 C 41.1667,50.5 42.5,51.8333 43.5,53.5C 39.8634,54.5301 38.5301,53.1968 39.5,49.5 Z"/></g>
<g><path style="opacity:1" fill="#e3f7f8" d="M 123.5,46.5 C 120.138,50.1925 116.805,53.8592 113.5,57.5C 113.443,56.391 113.11,55.391 112.5,54.5C 113.404,53.791 113.737,52.791 113.5,51.5C 114.833,51.5 116.167,51.5 117.5,51.5C 117.5,50.1667 117.5,48.8333 117.5,47.5C 119.451,47.7733 120.951,47.1066 122,45.5C 122.383,46.056 122.883,46.3893 123.5,46.5 Z"/></g>
<g><path style="opacity:1" fill="#d1ebf4" d="M 135.5,51.5 C 135.869,53.9935 135.203,54.6602 133.5,53.5C 133.5,52.1667 134.167,51.5 135.5,51.5 Z"/></g>
<g><path style="opacity:1" fill="#afcfef" d="M 133.5,53.5 C 133.5,54.1667 133.5,54.8333 133.5,55.5C 132.833,55.5 132.167,55.5 131.5,55.5C 131.5,54.1667 132.167,53.5 133.5,53.5 Z"/></g>
<g><path style="opacity:0.902" fill="#e8fbfb" d="M 67.5,61.5 C 65.7376,60.7377 64.7376,59.4044 64.5,57.5C 65.6477,56.105 66.6477,56.2716 67.5,58C 66.8288,58.9862 66.8288,60.1529 67.5,61.5 Z"/></g>
<g><path style="opacity:0.902" fill="#e0f6fc" d="M 45.5,56.5 C 48.2195,58.2193 50.2195,60.5526 51.5,63.5C 49.9826,63.4894 48.8159,62.8228 48,61.5C 46.5619,60.0997 45.7286,58.433 45.5,56.5 Z"/></g>
<g><path style="opacity:1" fill="#e8f8f6" d="M 131.5,55.5 C 131.263,56.791 131.596,57.791 132.5,58.5C 130.939,60.9732 128.939,62.9732 126.5,64.5C 126.158,63.6618 125.492,63.3284 124.5,63.5C 126.862,60.808 129.196,58.1413 131.5,55.5 Z"/></g>
<g><path style="opacity:1" fill="#e3f5ff" d="M 109.5,61.5 C 109.167,62.5 108.5,63.1667 107.5,63.5C 107.5,62.1667 108.167,61.5 109.5,61.5 Z"/></g>
<g><path style="opacity:0.748" fill="#eaf9f9" d="M 68.5,63.5 C 71.6611,64.4698 74.4944,66.1365 77,68.5C 77.6667,69.1667 77.6667,69.8333 77,70.5C 76.31,69.2617 75.81,69.2617 75.5,70.5C 72.8333,68.5 70.5,66.1667 68.5,63.5 Z"/></g>
<g><path style="opacity:1" fill="#ccdef1" d="M 107.5,64.5 C 106.833,65.8333 105.833,66.8333 104.5,67.5C 104.5,65.5 105.5,64.5 107.5,64.5 Z"/></g>
<g><path style="opacity:0.925" fill="#e4f7ff" d="M 103.5,68.5 C 103.167,69.5 102.5,70.1667 101.5,70.5C 101.131,68.0065 101.797,67.3398 103.5,68.5 Z"/></g>
<g><path style="opacity:0.925" fill="#ecf6f4" d="M 123.5,65.5 C 122.829,66.8471 122.829,68.0138 123.5,69C 122.436,70.5106 121.103,70.6772 119.5,69.5C 120.402,67.6593 121.736,66.326 123.5,65.5 Z"/></g>
<g><path style="opacity:0.573" fill="#feffec" d="M 126.5,71.5 C 127.773,72.0768 127.773,72.7435 126.5,73.5C 125.537,73.0302 125.537,72.3635 126.5,71.5 Z"/></g>
<g><path style="opacity:0.667" fill="#e4fcfc" d="M 57.5,70.5 C 60.2427,72.2393 62.2427,74.5726 63.5,77.5C 60.8103,75.8065 58.8103,73.4732 57.5,70.5 Z"/></g>
<g><path style="opacity:1" fill="#e8fdff" d="M 80.5,75.5 C 82.1788,75.2852 83.1788,75.9519 83.5,77.5C 81.9731,77.573 80.9731,76.9063 80.5,75.5 Z"/></g>
<g><path style="opacity:1" fill="#d9fafe" d="M 93.5,77.5 C 90.1667,78.8333 86.8333,78.8333 83.5,77.5C 86.6224,77.2805 89.9558,77.2805 93.5,77.5 Z"/></g>
<g><path style="opacity:0.353" fill="#d9f1ff" d="M 64.5,78.5 C 66.1436,78.8102 67.1436,79.8102 67.5,81.5C 65.8564,81.1898 64.8564,80.1898 64.5,78.5 Z"/></g>
<g><path style="opacity:1" fill="#d9f1f7" d="M 111.5,78.5 C 111.262,81.0685 109.929,82.7352 107.5,83.5C 108.08,81.2512 109.413,79.5846 111.5,78.5 Z"/></g>
<g><path style="opacity:1" fill="#d9eef1" d="M 67.5,81.5 C 69.5,82.1667 70.8333,83.5 71.5,85.5C 70.8826,85.6107 70.3826,85.944 70,86.5C 68.9055,84.9221 68.0722,83.2554 67.5,81.5 Z"/></g>
<g><path style="opacity:0.7" fill="#e3f8fd" d="M 107.5,83.5 C 106.735,85.929 105.069,87.2623 102.5,87.5C 103.579,85.457 105.246,84.1237 107.5,83.5 Z"/></g>
<g><path style="opacity:1" fill="#90bff4" d="M 73.5,86.5 C 75.632,86.5544 76.9653,87.5544 77.5,89.5C 76.8826,89.6107 76.3826,89.944 76,90.5C 75.7216,89.5842 75.2216,88.9175 74.5,88.5C 74.1667,87.8333 73.8333,87.1667 73.5,86.5 Z"/></g>
<g><path style="opacity:1" fill="#d4ecfc" d="M 101.5,87.5 C 101.918,88.2216 102.584,88.7216 103.5,89C 101.009,89.4094 99.0087,90.5761 97.5,92.5C 91.9696,91.1849 86.4696,91.1849 81,92.5C 80.2828,91.9558 79.7828,91.2891 79.5,90.5C 84.8437,90.666 90.1771,90.4994 95.5,90C 97.6284,89.3448 99.6284,88.5114 101.5,87.5 Z"/></g>
<g><path style="opacity:0.388" fill="#feffea" d="M 69.5,91.5 C 70.2891,91.7828 70.9558,92.2828 71.5,93C 70.184,93.5281 69.5173,93.0281 69.5,91.5 Z"/></g>
<g><path style="opacity:0.543" fill="#e9f6fa" d="M 23.5,111.5 C 24.7079,112.234 26.0413,112.567 27.5,112.5C 27.5,113.833 27.5,115.167 27.5,116.5C 29.9935,116.131 30.6602,116.797 29.5,118.5C 28.5041,118.586 27.6708,118.252 27,117.5C 25.5787,115.595 24.412,113.595 23.5,111.5 Z"/></g>
<g><path style="opacity:0.243" fill="#fbfeee" d="M 167.5,111.5 C 168.598,112.601 168.765,113.934 168,115.5C 166.666,114.122 166.499,112.789 167.5,111.5 Z"/></g>
<g><path style="opacity:0.991" fill="#dbf4fc" d="M 11.5,112.5 C 12.1667,114.167 12.8333,115.833 13.5,117.5C 13.8333,118.833 14.1667,120.167 14.5,121.5C 13.8501,121.196 13.1835,120.863 12.5,120.5C 11.52,117.914 11.1866,115.247 11.5,112.5 Z"/></g>
<g><path style="opacity:1" fill="#f8ffed" d="M 173.5,117.5 C 175.337,117.639 175.67,118.306 174.5,119.5C 173.702,119.043 173.369,118.376 173.5,117.5 Z"/></g>
<g><path style="opacity:1" fill="#85b5f1" d="M 29.5,119.5 C 67.5,119.5 105.5,119.5 143.5,119.5C 124.845,120.833 105.845,121.5 86.5,121.5C 67.1547,121.5 48.1547,120.833 29.5,119.5 Z"/></g>
<g><path style="opacity:0.794" fill="#dbf5ff" d="M 163.5,119.5 C 163.912,121.973 162.912,123.306 160.5,123.5C 161.512,122.128 162.512,120.795 163.5,119.5 Z"/></g>
<g><path style="opacity:0.663" fill="#e6f4fe" d="M 160.5,124.5 C 161.833,125.167 161.833,125.167 160.5,124.5 Z"/></g>
<g><path style="opacity:0.902" fill="#eef9f4" d="M 15.5,124.5 C 17.4044,124.738 18.7377,125.738 19.5,127.5C 17.0274,127.912 15.6941,126.912 15.5,124.5 Z"/></g>
<g><path style="opacity:1" fill="#faffef" d="M 169.5,125.5 C 171.337,125.639 171.67,126.306 170.5,127.5C 169.702,127.043 169.369,126.376 169.5,125.5 Z"/></g>
<g><path style="opacity:0.925" fill="#bedef7" d="M 159.5,125.5 C 159.5,126.833 158.833,127.5 157.5,127.5C 157.5,126.167 158.167,125.5 159.5,125.5 Z"/></g>
<g><path style="opacity:0.596" fill="#f3edfe" d="M 165.5,126.5 C 166.833,127.167 166.833,127.167 165.5,126.5 Z"/></g>
<g><path style="opacity:1" fill="#e2fbff" d="M 155.5,129.5 C 154.448,131.256 152.781,131.923 150.5,131.5C 151.93,130.463 153.597,129.796 155.5,129.5 Z"/></g>
<g><path style="opacity:1" fill="#e1fefe" d="M 19.5,128.5 C 22.6755,129.911 26.0088,131.078 29.5,132C 69.8624,132.816 110.196,132.649 150.5,131.5C 150.918,132.222 151.584,132.722 152.5,133C 151.584,133.374 150.75,133.874 150,134.5C 110.042,133.172 70.042,133.172 30,134.5C 25.2538,133.422 21.7538,131.422 19.5,128.5 Z"/></g>
<g><path style="opacity:1" fill="#fefdee" d="M 15.5,133.5 C 16.525,133.897 16.6917,134.563 16,135.5C 15.5357,134.906 15.369,134.239 15.5,133.5 Z"/></g>
<g><path style="opacity:1" fill="#fcffed" d="M 29.5,141.5 C 31.337,141.639 31.6704,142.306 30.5,143.5C 29.7025,143.043 29.3691,142.376 29.5,141.5 Z"/></g>
</svg>
