<?xml version="1.0" encoding="UTF-8"?>
<!DOCTYPE svg PUBLIC "-//W3C//DTD SVG 1.1//EN" "http://www.w3.org/Graphics/SVG/1.1/DTD/svg11.dtd">
<svg xmlns="http://www.w3.org/2000/svg" version="1.1" width="182px" height="152px" style="shape-rendering:geometricPrecision; text-rendering:geometricPrecision; image-rendering:optimizeQuality; fill-rule:evenodd; clip-rule:evenodd" xmlns:xlink="http://www.w3.org/1999/xlink">
<g><path style="opacity:1" fill="#349bfe" d="M 35.5,15.5 C 74.1681,15.3333 112.835,15.5 151.5,16C 160.479,17.6475 166.313,22.8142 169,31.5C 169.667,61.1667 169.667,90.8333 169,120.5C 166.105,129.536 159.939,134.702 150.5,136C 112.167,136.667 73.8333,136.667 35.5,136C 24.4328,133.599 18.2661,126.766 17,115.5C 16.3333,89.1667 16.3333,62.8333 17,36.5C 18.4539,25.2196 24.6205,18.2196 35.5,15.5 Z M 124.5,54.5 C 119.843,60.489 114.843,66.1557 109.5,71.5C 107.157,74.2072 104.823,76.8739 102.5,79.5C 96.6924,84.6095 90.6924,84.7762 84.5,80C 69.1667,62.6667 53.8333,45.3333 38.5,28C 75.1667,27.3333 111.833,27.3333 148.5,28C 140.6,37.0009 132.6,45.8342 124.5,54.5 Z M 114.5,84.5 C 128.992,68.1983 143.492,51.865 158,35.5C 158.667,62.5 158.667,89.5 158,116.5C 156.737,120.219 154.237,122.719 150.5,124C 112.5,124.667 74.5,124.667 36.5,124C 32.6667,122.833 30.1667,120.333 29,116.5C 28.3333,89.5 28.3333,62.5 29,35.5C 43.5462,51.6655 58.2128,68.3322 73,85.5C 80.4915,93.5516 89.6582,96.3849 100.5,94C 106.169,92.14 110.836,88.9733 114.5,84.5 Z"/></g>
</svg>
