<?xml version="1.0" encoding="UTF-8"?>
<!DOCTYPE svg PUBLIC "-//W3C//DTD SVG 1.1//EN" "http://www.w3.org/Graphics/SVG/1.1/DTD/svg11.dtd">
<svg xmlns="http://www.w3.org/2000/svg" version="1.1" width="142px" height="162px" style="shape-rendering:geometricPrecision; text-rendering:geometricPrecision; image-rendering:optimizeQuality; fill-rule:evenodd; clip-rule:evenodd" xmlns:xlink="http://www.w3.org/1999/xlink">
<g><path style="opacity:1" fill="#fef7ee" d="M 85.5,7.5 C 86.8333,8.16667 86.8333,8.16667 85.5,7.5 Z"/></g>
<g><path style="opacity:0.973" fill="#fefcec" d="M 70.5,8.5 C 71.8333,9.16667 71.8333,9.16667 70.5,8.5 Z"/></g>
<g><path style="opacity:1" fill="#f4f3ee" d="M 75.5,8.5 C 76.8333,9.16667 76.8333,9.16667 75.5,8.5 Z"/></g>
<g><path style="opacity:1" fill="#d7f6fa" d="M 78.5,10.5 C 75.997,11.3705 73.3303,12.0372 70.5,12.5C 71.1047,10.9743 72.2714,9.97432 74,9.5C 75.3561,10.3802 76.8561,10.7135 78.5,10.5 Z"/></g>
<g><path style="opacity:1" fill="#3599fe" d="M 107.5,12.5 C 107.5,19.1667 107.5,25.8333 107.5,32.5C 101.875,33.997 96.2084,35.3303 90.5,36.5C 88.847,36.6596 87.5137,37.3263 86.5,38.5C 85.5,38.8333 84.8333,39.5 84.5,40.5C 83.3263,41.5137 82.6596,42.847 82.5,44.5C 82.5,45.1667 82.5,45.8333 82.5,46.5C 81.1747,52.2343 81.1747,58.0677 82.5,64C 90.5089,63.241 98.5089,63.4077 106.5,64.5C 107.116,65.2022 107.116,66.2022 106.5,67.5C 105.883,67.6107 105.383,67.944 105,68.5C 104.501,72.4862 104.334,76.4862 104.5,80.5C 103.539,82.2646 103.205,84.2646 103.5,86.5C 103.33,87.8221 103.663,88.9887 104.5,90C 103.584,90.2784 102.918,90.7784 102.5,91.5C 95.6457,91.176 88.979,91.5093 82.5,92.5C 81.5029,112.326 81.1695,132.326 81.5,152.5C 72.1667,152.5 62.8333,152.5 53.5,152.5C 53.83,134.992 53.4967,117.659 52.5,100.5C 52.5,97.5 52.5,94.5 52.5,91.5C 46.5,91.5 40.5,91.5 34.5,91.5C 32.5751,83.1007 31.9085,74.434 32.5,65.5C 34.4147,65.7845 36.0813,65.4511 37.5,64.5C 38.391,63.8902 39.391,63.5569 40.5,63.5C 41.8333,63.5 43.1667,63.5 44.5,63.5C 47.1667,63.5 49.8333,63.5 52.5,63.5C 53.4933,54.6822 53.8266,45.6822 53.5,36.5C 53.5172,34.4352 53.8505,32.4352 54.5,30.5C 55.6737,29.4863 56.3404,28.153 56.5,26.5C 56.427,24.9731 57.0937,23.9731 58.5,23.5C 59.4013,22.7095 60.0679,21.7095 60.5,20.5C 60.8333,19.5 61.5,18.8333 62.5,18.5C 64.3885,17.396 66.0552,16.0627 67.5,14.5C 69.0269,14.573 70.0269,13.9063 70.5,12.5C 73.3303,12.0372 75.997,11.3705 78.5,10.5C 86.4197,10.815 94.253,10.4817 102,9.5C 104.099,10.1305 105.932,11.1305 107.5,12.5 Z"/></g>
<g><path style="opacity:1" fill="#e6f3fe" d="M 107.5,10.5 C 108.833,11.1667 108.833,11.1667 107.5,10.5 Z"/></g>
<g><path style="opacity:1" fill="#b9d8ff" d="M 70.5,12.5 C 70.0269,13.9063 69.0269,14.573 67.5,14.5C 67.9731,13.0937 68.9731,12.427 70.5,12.5 Z"/></g>
<g><path style="opacity:0.667" fill="#e2f9f8" d="M 67.5,14.5 C 66.0552,16.0627 64.3885,17.396 62.5,18.5C 63.412,16.4048 64.5787,14.4048 66,12.5C 66.2784,13.4158 66.7784,14.0825 67.5,14.5 Z"/></g>
<g><path style="opacity:1" fill="#eefffe" d="M 109.5,14.5 C 110.525,14.8966 110.692,15.5632 110,16.5C 109.536,15.9056 109.369,15.2389 109.5,14.5 Z"/></g>
<g><path style="opacity:0.878" fill="#c0eaff" d="M 60.5,20.5 C 60.0679,21.7095 59.4013,22.7095 58.5,23.5C 58.2852,21.8212 58.9519,20.8212 60.5,20.5 Z"/></g>
<g><path style="opacity:1" fill="#d9fafc" d="M 56.5,26.5 C 56.3404,28.153 55.6737,29.4863 54.5,30.5C 54.1568,28.5168 54.8235,27.1834 56.5,26.5 Z"/></g>
<g><path style="opacity:1" fill="#e3fdfd" d="M 107.5,12.5 C 107.879,19.0991 108.879,25.5991 110.5,32C 109.244,32.4169 108.577,33.2502 108.5,34.5C 108.167,34.5 107.833,34.5 107.5,34.5C 107.5,33.8333 107.5,33.1667 107.5,32.5C 107.5,25.8333 107.5,19.1667 107.5,12.5 Z"/></g>
<g><path style="opacity:1" fill="#a5caf5" d="M 107.5,32.5 C 107.5,33.1667 107.5,33.8333 107.5,34.5C 107.389,35.1174 107.056,35.6174 106.5,36C 101.177,36.4994 95.8437,36.666 90.5,36.5C 96.2084,35.3303 101.875,33.997 107.5,32.5 Z"/></g>
<g><path style="opacity:1" fill="#fffeea" d="M 108.5,34.5 C 110.337,34.6395 110.67,35.3061 109.5,36.5C 108.702,36.0431 108.369,35.3764 108.5,34.5 Z"/></g>
<g><path style="opacity:0.855" fill="#d9f6ff" d="M 86.5,38.5 C 86.8693,40.9935 86.2027,41.6602 84.5,40.5C 84.8333,39.5 85.5,38.8333 86.5,38.5 Z"/></g>
<g><path style="opacity:0.863" fill="#dcf1fb" d="M 84.5,40.5 C 84.6602,42.1992 84.4935,43.8659 84,45.5C 83.6174,44.944 83.1174,44.6107 82.5,44.5C 82.6596,42.847 83.3263,41.5137 84.5,40.5 Z"/></g>
<g><path style="opacity:1" fill="#abd5ff" d="M 53.5,36.5 C 53.8266,45.6822 53.4933,54.6822 52.5,63.5C 52.5,63.1667 52.5,62.8333 52.5,62.5C 52.2786,61.2652 51.6119,60.2652 50.5,59.5C 53.1667,57.5 53.1667,55.5 50.5,53.5C 52.0757,47.8674 53.0757,42.2008 53.5,36.5 Z"/></g>
<g><path style="opacity:0.724" fill="#ecfefe" d="M 82.5,47.5 C 83.5325,48.9117 84.1992,50.5784 84.5,52.5C 84.2528,53.7133 83.5862,54.38 82.5,54.5C 82.5,52.1667 82.5,49.8333 82.5,47.5 Z"/></g>
<g><path style="opacity:0.137" fill="#f6ffec" d="M 45.5,56.5 C 46.8333,57.1667 46.8333,57.1667 45.5,56.5 Z"/></g>
<g><path style="opacity:1" fill="#faf9ee" d="M 108.5,60.5 C 109.833,61.1667 109.833,61.1667 108.5,60.5 Z"/></g>
<g><path style="opacity:0.973" fill="#ecfefa" d="M 52.5,62.5 C 52.5,62.8333 52.5,63.1667 52.5,63.5C 49.8333,63.5 47.1667,63.5 44.5,63.5C 44.0825,62.7784 43.4158,62.2784 42.5,62C 45.8004,62.0455 49.1337,62.2122 52.5,62.5 Z"/></g>
<g><path style="opacity:1" fill="#d1ebfc" d="M 82.5,46.5 C 82.5,46.8333 82.5,47.1667 82.5,47.5C 82.5,49.8333 82.5,52.1667 82.5,54.5C 82.1601,57.1441 82.8267,59.4775 84.5,61.5C 92.2126,61.8546 99.5459,62.8546 106.5,64.5C 98.5089,63.4077 90.5089,63.241 82.5,64C 81.1747,58.0677 81.1747,52.2343 82.5,46.5 Z"/></g>
<g><path style="opacity:1" fill="#f9f5e8" d="M 109.5,62.5 C 110.833,63.1667 110.833,63.1667 109.5,62.5 Z"/></g>
<g><path style="opacity:1" fill="#c5ddf1" d="M 40.5,63.5 C 39.391,63.5569 38.391,63.8902 37.5,64.5C 35.1667,64.5 32.8333,64.5 30.5,64.5C 32.1175,63.0277 34.1175,62.361 36.5,62.5C 38.0451,62.5108 39.3784,62.8442 40.5,63.5 Z"/></g>
<g><path style="opacity:1" fill="#f6eeea" d="M 108.5,64.5 C 109.833,65.1667 109.833,65.1667 108.5,64.5 Z"/></g>
<g><path style="opacity:1" fill="#f7ecf1" d="M 108.5,67.5 C 109.833,68.1667 109.833,68.1667 108.5,67.5 Z"/></g>
<g><path style="opacity:1" fill="#6383b9" d="M 30.5,64.5 C 32.8333,64.5 35.1667,64.5 37.5,64.5C 36.0813,65.4511 34.4147,65.7845 32.5,65.5C 31.9085,74.434 32.5751,83.1007 34.5,91.5C 33.1667,91.5 31.8333,91.5 30.5,91.5C 30.5,82.5 30.5,73.5 30.5,64.5 Z"/></g>
<g><path style="opacity:1" fill="#92bff4" d="M 106.5,67.5 C 106.665,71.1817 106.499,74.8484 106,78.5C 105.722,79.4158 105.222,80.0825 104.5,80.5C 104.334,76.4862 104.501,72.4862 105,68.5C 105.383,67.944 105.883,67.6107 106.5,67.5 Z"/></g>
<g><path style="opacity:0.475" fill="#f7f2eb" d="M 107.5,76.5 C 108.833,77.1667 108.833,77.1667 107.5,76.5 Z"/></g>
<g><path style="opacity:1" fill="#bbddff" d="M 104.5,80.5 C 104.593,82.2474 104.926,84.0807 105.5,86C 104.906,86.4643 104.239,86.631 103.5,86.5C 103.205,84.2646 103.539,82.2646 104.5,80.5 Z"/></g>
<g><path style="opacity:0.243" fill="#fff9ea" d="M 106.5,81.5 C 107.573,82.2506 107.74,83.2506 107,84.5C 106.517,83.552 106.351,82.552 106.5,81.5 Z"/></g>
<g><path style="opacity:1" fill="#e4feff" d="M 102.5,91.5 C 96.2645,91.8526 90.2645,92.8526 84.5,94.5C 83.8333,94.5 83.1667,94.5 82.5,94.5C 82.5,93.8333 82.5,93.1667 82.5,92.5C 88.979,91.5093 95.6457,91.176 102.5,91.5 Z"/></g>
<g><path style="opacity:0.206" fill="#fffcec" d="M 84.5,94.5 C 85.8333,95.8333 85.8333,97.1667 84.5,98.5C 84.5,97.1667 84.5,95.8333 84.5,94.5 Z"/></g>
<g><path style="opacity:0.253" fill="#e7fefe" d="M 30.5,91.5 C 31.8333,91.5 33.1667,91.5 34.5,91.5C 40.5,91.5 46.5,91.5 52.5,91.5C 52.5,94.5 52.5,97.5 52.5,100.5C 50.631,98.3647 49.9644,95.6981 50.5,92.5C 43.6457,92.824 36.979,92.4907 30.5,91.5 Z"/></g>
<g><path style="opacity:1" fill="#eefffe" d="M 84.5,98.5 C 84.631,99.2389 84.4643,99.9056 84,100.5C 83.3083,99.5632 83.475,98.8966 84.5,98.5 Z"/></g>
<g><path style="opacity:1" fill="#a6d0fd" d="M 82.5,92.5 C 82.5,93.1667 82.5,93.8333 82.5,94.5C 83.1474,114.567 82.4807,134.401 80.5,154C 71.5,154.667 62.5,154.667 53.5,154C 52.1279,152.758 51.1279,151.258 50.5,149.5C 52.465,133.338 53.1317,117.005 52.5,100.5C 53.4967,117.659 53.83,134.992 53.5,152.5C 62.8333,152.5 72.1667,152.5 81.5,152.5C 81.1695,132.326 81.5029,112.326 82.5,92.5 Z"/></g>
<g><path style="opacity:0.663" fill="#edfffe" d="M 84.5,149.5 C 83.8333,148.167 83.8333,148.167 84.5,149.5 Z"/></g>
<g><path style="opacity:0.114" fill="#feffea" d="M 84.5,149.5 C 85.8333,150.167 85.8333,150.167 84.5,149.5 Z"/></g>
</svg>
