<?xml version="1.0" encoding="UTF-8"?>
<!DOCTYPE svg PUBLIC "-//W3C//DTD SVG 1.1//EN" "http://www.w3.org/Graphics/SVG/1.1/DTD/svg11.dtd">
<svg xmlns="http://www.w3.org/2000/svg" version="1.1" width="142px" height="162px" style="shape-rendering:geometricPrecision; text-rendering:geometricPrecision; image-rendering:optimizeQuality; fill-rule:evenodd; clip-rule:evenodd" xmlns:xlink="http://www.w3.org/1999/xlink">
<g><path style="opacity:0.957" fill="#3498fe" d="M 72.5,8.5 C 81.5062,8.33356 90.5062,8.50023 99.5,9C 100.766,9.30945 101.933,9.80945 103,10.5C 103.667,17.8333 103.667,25.1667 103,32.5C 97.917,33.3071 92.7503,33.8071 87.5,34C 83.1037,34.7297 80.2704,37.2297 79,41.5C 78.5004,48.1583 78.3337,54.825 78.5,61.5C 86.1739,61.3336 93.8406,61.5003 101.5,62C 102.097,63.0617 102.43,64.2284 102.5,65.5C 101.38,73.1738 100.213,80.8405 99,88.5C 92.2555,89.4788 85.4222,89.8122 78.5,89.5C 78.6666,109.836 78.5,130.169 78,150.5C 68.3333,151.833 58.6667,151.833 49,150.5C 48.5,130.169 48.3334,109.836 48.5,89.5C 41.1667,89.5 33.8333,89.5 26.5,89.5C 26.3336,80.4938 26.5002,71.4938 27,62.5C 34.0787,61.5201 41.2454,61.1868 48.5,61.5C 48.3336,53.16 48.5003,44.8267 49,36.5C 51.2834,22.3924 59.1168,13.0591 72.5,8.5 Z"/></g>
</svg>
