<?xml version="1.0" encoding="UTF-8"?>
<!DOCTYPE svg PUBLIC "-//W3C//DTD SVG 1.1//EN" "http://www.w3.org/Graphics/SVG/1.1/DTD/svg11.dtd">
<svg xmlns="http://www.w3.org/2000/svg" version="1.1" width="159px" height="159px" style="shape-rendering:geometricPrecision; text-rendering:geometricPrecision; image-rendering:optimizeQuality; fill-rule:evenodd; clip-rule:evenodd" xmlns:xlink="http://www.w3.org/1999/xlink">
<g><path style="opacity:1" fill="#3c97f8" d="M 43.5,6.5 C 67.544,6.05026 91.544,6.55026 115.5,8C 134.079,13.2473 144.913,25.414 148,44.5C 148.667,66.8333 148.667,89.1667 148,111.5C 144.167,132.667 131.667,145.167 110.5,149C 88.1667,149.667 65.8333,149.667 43.5,149C 22.3333,145.167 9.83333,132.667 6,111.5C 5.06026,87.1306 5.3936,62.7972 7,38.5C 12.8558,20.4688 25.0225,9.80215 43.5,6.5 Z M 41.5,21.5 C 64.8357,21.3334 88.169,21.5 111.5,22C 122.229,25.0618 129.396,31.8951 133,42.5C 133.667,66.1667 133.667,89.8333 133,113.5C 129.5,123.667 122.667,130.5 112.5,134C 88.8333,134.667 65.1667,134.667 41.5,134C 31.3333,130.5 24.5,123.667 21,113.5C 20.3333,89.8333 20.3333,66.1667 21,42.5C 24.6854,32.3158 31.5187,25.3158 41.5,21.5 Z M 72.5,56.5 C 88.071,55.5997 97.071,62.7664 99.5,78C 98.5008,88.3431 93.1675,95.3431 83.5,99C 67.5948,100.761 58.2614,93.7613 55.5,78C 56.9406,67.4024 62.6073,60.2357 72.5,56.5 Z"/></g>
<g><path style="opacity:1" fill="#4198f7" d="M 110.5,32.5 C 119.641,30.8165 123.808,34.4831 123,43.5C 120.598,49.092 116.431,50.9253 110.5,49C 103.856,43.3751 103.856,37.8751 110.5,32.5 Z"/></g>
<g><path style="opacity:1" fill="#3998fb" d="M 72.5,42.5 C 92.639,41.4745 105.806,50.4745 112,69.5C 114.903,92.2434 105.403,106.743 83.5,113C 62.3987,114.876 48.8987,105.709 43,85.5C 40.4747,62.5194 50.308,48.186 72.5,42.5 Z M 72.5,56.5 C 62.6073,60.2357 56.9406,67.4024 55.5,78C 58.2614,93.7613 67.5948,100.761 83.5,99C 93.1675,95.3431 98.5008,88.3431 99.5,78C 97.071,62.7664 88.071,55.5997 72.5,56.5 Z"/></g>
</svg>
