<svg version="1.1" id="Layer_1" xmlns="http://www.w3.org/2000/svg" xmlns:xlink="http://www.w3.org/1999/xlink" x="0px" y="0px"
	 width="100%" viewBox="0 0 50 50" enable-background="new 0 0 50 50" xml:space="preserve">
<path fill="#FFFFFE" opacity="1.000000" stroke="none" 
	d="
M51.000000,16.992638 
	C51.000000,28.660490 51.000000,39.827011 51.000000,50.995148 
	C34.335709,50.996765 17.671419,50.996765 1.005347,50.998383 
	C1.003565,34.335930 1.003565,17.671858 1.001782,1.005841 
	C17.663851,1.003894 34.327702,1.003894 50.995777,1.001945 
	C51.000000,6.163767 51.000000,11.327537 51.000000,16.992638 
M38.571667,4.261166 
	C30.390787,4.229262 22.209909,4.197359 13.291405,4.041588 
	C6.307444,6.091162 3.829180,11.097412 3.976558,17.969807 
	C4.094264,23.458570 3.981699,28.951878 4.021465,34.442806 
	C4.080859,42.643772 9.428413,47.989525 17.567228,48.012905 
	C23.058426,48.028683 28.587406,47.613182 34.030724,48.123734 
	C39.882889,48.672626 45.655869,44.359264 46.784416,38.733608 
	C48.225536,31.549820 49.220596,24.021793 48.659714,16.777485 
	C48.261967,11.640209 45.484241,6.296859 38.571667,4.261166 
z"/>
<path fill="#3399FF" opacity="1.000000" stroke="none" 
	d="
M39.102070,4.945693 
	C45.484241,6.296859 48.261967,11.640209 48.659714,16.777485 
	C49.220596,24.021793 48.225536,31.549820 46.784416,38.733608 
	C45.655869,44.359264 39.882889,48.672626 34.030724,48.123734 
	C28.587406,47.613182 23.058426,48.028683 17.567228,48.012905 
	C9.428413,47.989525 4.080859,42.643772 4.021465,34.442806 
	C3.981699,28.951878 4.094264,23.458570 3.976558,17.969807 
	C3.829180,11.097412 6.307444,6.091162 13.978456,4.363852 
	C22.811029,4.772642 30.956549,4.859167 39.102070,4.945693 
M30.283518,42.000580 
	C30.949291,42.000622 31.615492,41.984978 32.280773,42.003075 
	C40.914070,42.237923 42.997097,40.204731 42.998192,31.532343 
	C42.998756,27.038347 43.023178,22.544180 42.992138,18.050398 
	C42.950226,11.982386 40.051193,9.042545 34.018642,8.996017 
	C28.359875,8.952371 22.700386,8.964129 17.041437,8.993952 
	C12.826755,9.016163 9.056417,12.640764 9.032577,16.962328 
	C8.997143,23.385843 8.508386,29.931433 9.614087,36.176945 
	C10.073021,38.769211 13.852867,42.020180 16.647930,42.653782 
	C20.626694,43.555702 25.089579,42.321957 30.283518,42.000580 
z"/>
<path fill="#4194EE" opacity="1.000000" stroke="none" 
	d="
M38.836868,4.603429 
	C30.956549,4.859167 22.811029,4.772642 14.347270,4.425786 
	C22.209909,4.197359 30.390787,4.229262 38.836868,4.603429 
z"/>
<path fill="#FEFFFE" opacity="1.000000" stroke="none" 
	d="
M29.814583,42.000580 
	C25.089579,42.321957 20.626694,43.555702 16.647930,42.653782 
	C13.852867,42.020180 10.073021,38.769211 9.614087,36.176945 
	C8.508386,29.931433 8.997143,23.385843 9.032577,16.962328 
	C9.056417,12.640764 12.826755,9.016163 17.041437,8.993952 
	C22.700386,8.964129 28.359875,8.952371 34.018642,8.996017 
	C40.051193,9.042545 42.950226,11.982386 42.992138,18.050398 
	C43.023178,22.544180 42.998756,27.038347 42.998192,31.532343 
	C42.997097,40.204731 40.914070,42.237923 32.280773,42.003075 
	C31.615492,41.984978 30.949291,42.000622 29.814583,42.000580 
M18.510109,34.006317 
	C22.251379,38.112949 27.035690,37.980053 31.151453,35.671856 
	C33.847416,34.159908 36.420746,30.907537 37.245476,27.934383 
	C38.509178,23.378704 33.942928,16.780153 29.735607,15.281025 
	C26.465340,14.115783 19.208803,16.194384 17.093792,18.902214 
	C13.931466,22.950912 14.271212,28.559029 18.510109,34.006317 
z"/>
<path fill="#3499FE" opacity="1.000000" stroke="none" 
	d="
M18.242571,33.727501 
	C14.271212,28.559029 13.931466,22.950912 17.093792,18.902214 
	C19.208803,16.194384 26.465340,14.115783 29.735607,15.281025 
	C33.942928,16.780153 38.509178,23.378704 37.245476,27.934383 
	C36.420746,30.907537 33.847416,34.159908 31.151453,35.671856 
	C27.035690,37.980053 22.251379,38.112949 18.242571,33.727501 
M31.221676,28.444199 
	C30.883848,25.874449 31.301100,21.681965 30.040480,21.095383 
	C27.865166,20.083183 24.357927,20.707926 21.982731,21.844086 
	C20.707443,22.454111 19.900259,25.653723 20.145687,27.518478 
	C20.785841,32.382370 26.391163,33.151012 31.221676,28.444199 
z"/>
<path fill="#FFFFFE" opacity="1.000000" stroke="none" 
	d="
M31.116762,28.822479 
	C26.391163,33.151012 20.785841,32.382370 20.145687,27.518478 
	C19.900259,25.653723 20.707443,22.454111 21.982731,21.844086 
	C24.357927,20.707926 27.865166,20.083183 30.040480,21.095383 
	C31.301100,21.681965 30.883848,25.874449 31.116762,28.822479 
z"/>
</svg>