<?xml version="1.0" encoding="UTF-8"?>
<!DOCTYPE svg PUBLIC "-//W3C//DTD SVG 1.1//EN" "http://www.w3.org/Graphics/SVG/1.1/DTD/svg11.dtd">
<svg xmlns="http://www.w3.org/2000/svg" version="1.1" width="400px" height="167px" style="shape-rendering:geometricPrecision; text-rendering:geometricPrecision; image-rendering:optimizeQuality; fill-rule:evenodd; clip-rule:evenodd" xmlns:xlink="http://www.w3.org/1999/xlink">
<g><path style="opacity:1" fill="#fefefe" d="M -0.5,-0.5 C 132.833,-0.5 266.167,-0.5 399.5,-0.5C 399.5,55.1667 399.5,110.833 399.5,166.5C 266.167,166.5 132.833,166.5 -0.5,166.5C -0.5,110.833 -0.5,55.1667 -0.5,-0.5 Z"/></g>
<g><path style="opacity:1" fill="#383838" d="M 274.5,21.5 C 282.061,20.9779 289.394,21.9779 296.5,24.5C 297.484,27.4281 297.817,30.4281 297.5,33.5C 292.594,31.2553 287.427,29.922 282,29.5C 275.243,28.8878 273.41,31.3878 276.5,37C 284.129,37.5407 290.962,40.0407 297,44.5C 299.744,51.1778 298.577,57.0111 293.5,62C 283.574,66.4429 273.574,66.6095 263.5,62.5C 262.167,59.1667 262.167,55.8333 263.5,52.5C 270.928,57.5569 278.761,58.5569 287,55.5C 287.72,53.8876 287.554,52.3876 286.5,51C 280.333,49.5 274.333,47.5 268.5,45C 263.356,40.4454 262.19,34.9454 265,28.5C 267.79,25.535 270.957,23.2016 274.5,21.5 Z"/></g>
<g><path style="opacity:1" fill="#373737" d="M 337.5,23.5 C 338.782,26.9359 338.782,30.2693 337.5,33.5C 331.665,29.8599 325.332,28.6932 318.5,30C 314.5,32.3333 314.5,34.6667 318.5,37C 325.541,37.607 332.041,39.7736 338,43.5C 343.03,55.2703 339.196,62.4369 326.5,65C 319.332,65.9882 312.332,65.3216 305.5,63C 304.209,59.5447 304.209,56.0447 305.5,52.5C 311.786,57.1125 318.786,58.6125 326.5,57C 330.5,54.6667 330.5,52.3333 326.5,50C 319.248,49.2527 312.748,46.7527 307,42.5C 302.429,31.6989 305.929,24.8656 317.5,22C 324.27,21.2865 330.936,21.7865 337.5,23.5 Z"/></g>
<g><path style="opacity:1" fill="#333333" d="M 73.5,30.5 C 72.5269,32.9479 72.1936,35.6146 72.5,38.5C 78.5,38.5 84.5,38.5 90.5,38.5C 90.5,41.1667 90.5,43.8333 90.5,46.5C 84.5,46.5 78.5,46.5 72.5,46.5C 72.5,52.5 72.5,58.5 72.5,64.5C 69.1667,64.5 65.8333,64.5 62.5,64.5C 62.5,50.5 62.5,36.5 62.5,22.5C 72.5,22.5 82.5,22.5 92.5,22.5C 92.5,25.1667 92.5,27.8333 92.5,30.5C 86.1667,30.5 79.8333,30.5 73.5,30.5 Z"/></g>
<g><path style="opacity:1" fill="#353535" d="M 123.5,22.5 C 123.5,24.8333 123.5,27.1667 123.5,29.5C 121.167,29.5 118.833,29.5 116.5,29.5C 116.173,38.6822 116.507,47.6822 117.5,56.5C 119.5,56.5 121.5,56.5 123.5,56.5C 123.5,59.1667 123.5,61.8333 123.5,64.5C 115.167,64.5 106.833,64.5 98.5,64.5C 98.5,61.8333 98.5,59.1667 98.5,56.5C 100.833,56.5 103.167,56.5 105.5,56.5C 106.493,47.6822 106.827,38.6822 106.5,29.5C 103.833,29.5 101.167,29.5 98.5,29.5C 98.5,27.1667 98.5,24.8333 98.5,22.5C 106.833,22.5 115.167,22.5 123.5,22.5 Z"/></g>
<g><path style="opacity:1" fill="#323332" d="M 129.5,22.5 C 141.833,22.5 154.167,22.5 166.5,22.5C 166.5,25.1667 166.5,27.8333 166.5,30.5C 162.167,30.5 157.833,30.5 153.5,30.5C 153.5,41.8333 153.5,53.1667 153.5,64.5C 149.833,64.5 146.167,64.5 142.5,64.5C 142.5,53.1667 142.5,41.8333 142.5,30.5C 138.167,30.5 133.833,30.5 129.5,30.5C 129.5,27.8333 129.5,25.1667 129.5,22.5 Z"/></g>
<g><path style="opacity:1" fill="#333333" d="M 174.5,22.5 C 178.846,22.3343 183.179,22.501 187.5,23C 192.458,30.415 197.291,37.915 202,45.5C 202.5,37.8406 202.666,30.1739 202.5,22.5C 205.833,22.5 209.167,22.5 212.5,22.5C 212.5,36.5 212.5,50.5 212.5,64.5C 208.774,64.8226 205.107,64.4892 201.5,63.5C 196,54.5 190.5,45.5 185,36.5C 184.5,45.8274 184.334,55.1607 184.5,64.5C 181.167,64.5 177.833,64.5 174.5,64.5C 174.5,50.5 174.5,36.5 174.5,22.5 Z"/></g>
<g><path style="opacity:1" fill="#343434" d="M 252.5,37.5 C 252.5,40.1667 252.5,42.8333 252.5,45.5C 246.642,45.1778 240.975,45.5111 235.5,46.5C 235.5,49.8333 235.5,53.1667 235.5,56.5C 241.833,56.5 248.167,56.5 254.5,56.5C 254.5,59.1667 254.5,61.8333 254.5,64.5C 244.5,64.5 234.5,64.5 224.5,64.5C 224.5,50.5 224.5,36.5 224.5,22.5C 234.5,22.5 244.5,22.5 254.5,22.5C 254.5,25.1667 254.5,27.8333 254.5,30.5C 248.167,30.5 241.833,30.5 235.5,30.5C 235.5,32.8333 235.5,35.1667 235.5,37.5C 241.167,37.5 246.833,37.5 252.5,37.5 Z"/></g>
<g><path style="opacity:1" fill="#a3a3a3" d="M 337.5,23.5 C 338.787,24.8714 339.453,26.7047 339.5,29C 339.167,30.8333 338.833,32.6667 338.5,34.5C 337.893,34.3764 337.56,34.0431 337.5,33.5C 338.782,30.2693 338.782,26.9359 337.5,23.5 Z"/></g>
<g><path style="opacity:1" fill="#6d6d6d" d="M 98.5,29.5 C 101.167,29.5 103.833,29.5 106.5,29.5C 106.827,38.6822 106.493,47.6822 105.5,56.5C 105.5,47.8333 105.5,39.1667 105.5,30.5C 102.941,30.8016 100.607,30.4682 98.5,29.5 Z"/></g>
<g><path style="opacity:1" fill="#c4c4c4" d="M 123.5,22.5 C 124.473,24.9479 124.806,27.6146 124.5,30.5C 122.167,30.5 119.833,30.5 117.5,30.5C 117.5,39.1667 117.5,47.8333 117.5,56.5C 116.507,47.6822 116.173,38.6822 116.5,29.5C 118.833,29.5 121.167,29.5 123.5,29.5C 123.5,27.1667 123.5,24.8333 123.5,22.5 Z"/></g>
<g><path style="opacity:1" fill="#bebebe" d="M 73.5,30.5 C 73.5,32.8333 73.5,35.1667 73.5,37.5C 79.358,37.1778 85.0247,37.5111 90.5,38.5C 84.5,38.5 78.5,38.5 72.5,38.5C 72.1936,35.6146 72.5269,32.9479 73.5,30.5 Z"/></g>
<g><path style="opacity:1" fill="#9a9a9a" d="M 252.5,37.5 C 253.477,40.2869 253.81,43.2869 253.5,46.5C 247.5,46.5 241.5,46.5 235.5,46.5C 240.975,45.5111 246.642,45.1778 252.5,45.5C 252.5,42.8333 252.5,40.1667 252.5,37.5 Z"/></g>
<g><path style="opacity:1" fill="#2e9bf6" d="M 161.5,91.5 C 168.777,90.8503 175.777,91.8503 182.5,94.5C 183.833,97.8333 183.833,101.167 182.5,104.5C 166.333,95.1671 158.499,99.8338 159,118.5C 161.685,125.841 166.852,128.674 174.5,127C 177.341,125.414 180.007,123.58 182.5,121.5C 183.489,125.107 183.823,128.774 183.5,132.5C 156.812,140.637 145.312,130.97 149,103.5C 151.744,97.9206 155.911,93.9206 161.5,91.5 Z"/></g>
<g><path style="opacity:1" fill="#2e9bf6" d="M 203.5,92.5 C 203.5,103.833 203.5,115.167 203.5,126.5C 209.833,126.5 216.167,126.5 222.5,126.5C 223.473,128.948 223.806,131.615 223.5,134.5C 213.167,134.5 202.833,134.5 192.5,134.5C 192.5,120.5 192.5,106.5 192.5,92.5C 196.167,92.5 199.833,92.5 203.5,92.5 Z"/></g>
<g><path style="opacity:1" fill="#c8e4fc" d="M 203.5,92.5 C 204.495,103.321 204.828,114.321 204.5,125.5C 210.69,125.177 216.69,125.51 222.5,126.5C 216.167,126.5 209.833,126.5 203.5,126.5C 203.5,115.167 203.5,103.833 203.5,92.5 Z"/></g>
<g><path style="opacity:1" fill="#359cf6" d="M 229.5,92.5 C 233.5,92.5 237.5,92.5 241.5,92.5C 241.334,102.839 241.5,113.172 242,123.5C 243.018,126.683 245.185,128.016 248.5,127.5C 252.609,127.562 255.109,125.562 256,121.5C 256.5,111.839 256.666,102.172 256.5,92.5C 260.167,92.5 263.833,92.5 267.5,92.5C 267.667,103.172 267.5,113.839 267,124.5C 263.615,132.617 257.449,136.283 248.5,135.5C 239.401,135.875 233.234,131.875 230,123.5C 229.5,113.172 229.334,102.839 229.5,92.5 Z"/></g>
<g><path style="opacity:1" fill="#2e9bf6" d="M 278.5,92.5 C 286.84,92.3336 295.173,92.5003 303.5,93C 310.214,94.5895 312.714,98.7562 311,105.5C 309.833,108 308,109.833 305.5,111C 314.306,114.435 316.472,120.268 312,128.5C 310.457,130.378 308.624,131.878 306.5,133C 297.248,134.417 287.915,134.917 278.5,134.5C 278.5,120.5 278.5,106.5 278.5,92.5 Z"/></g>
<g><path style="opacity:1" fill="#fdfefe" d="M 289.5,100.5 C 292.518,100.335 295.518,100.502 298.5,101C 301.167,103.333 301.167,105.667 298.5,108C 295.518,108.498 292.518,108.665 289.5,108.5C 289.5,105.833 289.5,103.167 289.5,100.5 Z"/></g>
<g><path style="opacity:1" fill="#7e7e7e" d="M 88.5,108.5 C 87.1667,109.167 85.8333,109.833 84.5,110.5C 83.9569,110.44 83.6236,110.107 83.5,109.5C 85.0453,108.548 86.712,108.215 88.5,108.5 Z"/></g>
<g><path style="opacity:1" fill="#969796" d="M 84.5,110.5 C 86.604,110.201 88.604,110.534 90.5,111.5C 89.624,112.251 88.624,112.751 87.5,113C 89.1341,113.494 90.8008,113.66 92.5,113.5C 92.7373,114.791 92.404,115.791 91.5,116.5C 90.4479,114.744 88.7812,114.077 86.5,114.5C 86.4729,112.801 85.8062,111.467 84.5,110.5 Z"/></g>
<g><path style="opacity:1" fill="#161616" d="M 137.5,129.5 C 135.735,130.461 133.735,130.795 131.5,130.5C 131.489,128.983 130.823,127.816 129.5,127C 125.513,125.848 122.18,123.682 119.5,120.5C 115.394,124.529 111.394,128.695 107.5,133C 102.996,135.637 99.6625,134.637 97.5,130C 100.352,124.973 100.019,120.139 96.5,115.5C 92.3185,121.71 88.6519,127.377 85.5,132.5C 85.1667,131.833 84.8333,131.167 84.5,130.5C 86.8267,125.869 89.1601,121.202 91.5,116.5C 92.404,115.791 92.7373,114.791 92.5,113.5C 90.8008,113.66 89.1341,113.494 87.5,113C 88.624,112.751 89.624,112.251 90.5,111.5C 88.604,110.534 86.604,110.201 84.5,110.5C 85.8333,109.833 87.1667,109.167 88.5,108.5C 92.3586,107.722 93.0253,106.055 90.5,103.5C 93.2078,102.422 94.7078,100.422 95,97.5C 100.029,93.1439 104.196,93.8106 107.5,99.5C 106.257,101.691 105.424,104.024 105,106.5C 103.989,107.337 102.822,107.67 101.5,107.5C 101.808,111.009 103.808,112.676 107.5,112.5C 107.725,114.716 106.892,116.383 105,117.5C 104.505,119.473 104.338,121.473 104.5,123.5C 109.774,120.863 115.108,118.196 120.5,115.5C 124.625,119.123 128.625,122.957 132.5,127C 134.193,127.847 135.86,128.68 137.5,129.5 Z"/></g>
<g><path style="opacity:1" fill="#fdfefe" d="M 289.5,116.5 C 293.182,116.335 296.848,116.501 300.5,117C 303.418,120.472 303.085,123.472 299.5,126C 296.183,126.498 292.85,126.665 289.5,126.5C 289.5,123.167 289.5,119.833 289.5,116.5 Z"/></g>
<g><path style="opacity:1" fill="#848484" d="M 137.5,129.5 C 138.376,129.369 139.043,129.702 139.5,130.5C 136.691,131.8 134.024,131.8 131.5,130.5C 133.735,130.795 135.735,130.461 137.5,129.5 Z"/></g>
<g><path style="opacity:1" fill="#8d8d8d" d="M 84.5,130.5 C 84.8333,131.167 85.1667,131.833 85.5,132.5C 80.9805,133.5 80.6472,132.833 84.5,130.5 Z"/></g>
</svg>
