<svg version="1.1" id="Layer_1" xmlns="http://www.w3.org/2000/svg" xmlns:xlink="http://www.w3.org/1999/xlink" x="0px" y="0px"
	 width="100%" viewBox="0 0 400 167" enable-background="new 0 0 400 167" xml:space="preserve">
<path fill="#FEFEFE" opacity="1.000000" stroke="none" 
	d="
M248.000000,168.000000 
	C165.333359,168.000000 83.166702,168.000000 1.000044,168.000000 
	C1.000029,112.333366 1.000029,56.666733 1.000015,1.000074 
	C134.333267,1.000049 267.666534,1.000049 400.999878,1.000025 
	C400.999908,56.666592 400.999908,112.333183 400.999939,167.999878 
	C350.166656,168.000000 299.333344,168.000000 248.000000,168.000000 
M238.312012,41.082035 
	C228.623795,40.785748 218.971161,40.845291 209.829269,44.727509 
	C204.176697,47.127930 200.412094,51.209904 200.246872,57.548298 
	C200.086990,63.681377 203.942902,67.552788 209.220062,69.540062 
	C222.439758,74.518379 235.984116,75.771545 249.799316,71.940712 
	C250.845093,71.650719 252.115814,72.140045 253.276871,72.303360 
	C257.283936,72.866959 261.287079,73.907822 265.294830,73.922798 
	C273.287506,73.952667 268.153534,67.529205 269.636230,64.307137 
	C269.895569,63.743587 269.953705,63.087437 270.157471,62.260052 
	C273.384705,62.087318 276.470001,61.922180 279.605133,61.754375 
	C279.605133,59.670437 279.605133,57.962566 279.605133,56.113186 
	C275.557404,55.862690 271.875366,55.634823 268.667786,55.436321 
	C268.667786,50.170734 268.667786,45.824028 268.667786,41.204659 
	C258.789795,39.854103 248.977615,44.010170 238.312012,41.082035 
M137.015579,72.717773 
	C146.473770,73.123711 155.940674,73.982796 165.387589,73.801414 
	C173.934769,73.637329 182.324310,71.863152 188.638977,65.247627 
	C194.330505,59.284927 193.777588,52.453606 186.885880,47.950912 
	C183.477280,45.723919 179.462433,43.459198 175.561218,43.132965 
	C163.875885,42.155804 152.067505,41.366978 140.395981,42.041576 
	C134.433182,42.386223 128.139984,45.169083 122.927727,48.367901 
	C115.728874,52.785908 116.042282,61.962273 123.160973,66.551872 
	C127.128410,69.109779 131.854111,70.491570 137.015579,72.717773 
M317.605682,40.993797 
	C311.735901,41.961239 305.735718,42.453712 300.030518,44.020519 
	C293.415649,45.837154 287.477661,49.215256 286.973389,57.176048 
	C286.596710,63.121727 291.494110,68.041794 300.109619,70.876228 
	C312.858978,75.070671 325.955780,74.502190 339.051300,73.323990 
	C345.994141,72.699348 352.368622,70.497887 357.438171,65.445496 
	C363.081665,59.821056 362.686859,52.402420 356.063690,48.099033 
	C352.514679,45.793083 348.399292,43.650150 344.301575,43.045033 
	C335.811462,41.791294 327.162384,41.613922 317.605682,40.993797 
M68.208641,50.925880 
	C69.514610,50.324184 70.775146,49.379128 72.136887,49.198982 
	C74.335510,48.908131 76.600739,49.120785 78.705597,49.120785 
	C78.705597,45.960781 78.705597,43.691875 78.705597,41.423542 
	C64.060936,41.423542 49.705250,41.423542 35.471649,41.423542 
	C35.471649,44.122375 35.471649,46.387070 35.471649,48.885235 
	C39.005070,49.050377 42.240032,49.201572 45.827389,49.369236 
	C45.827389,53.278339 45.563343,56.775166 45.894421,60.214710 
	C46.305588,64.486298 45.044361,66.519608 40.450699,65.878159 
	C38.747162,65.640282 36.958618,66.011215 35.323410,66.098389 
	C35.323410,68.967468 35.323410,71.219788 35.323410,73.557343 
	C60.998394,73.557343 86.342911,73.557343 112.531952,73.557343 
	C110.220253,68.584282 115.574440,62.094475 109.314949,59.529671 
	C105.225777,57.854145 99.784645,59.082901 95.047630,59.730984 
	C94.145309,59.854431 93.704216,63.349064 92.873245,65.813461 
	C85.741142,65.813461 78.444923,65.951019 71.165970,65.658653 
	C70.126450,65.616905 68.457451,63.575882 68.312744,62.318272 
	C67.915642,58.867363 68.175110,55.340900 68.208641,50.925880 
M318.141144,112.500366 
	C318.141144,117.914955 318.141144,123.329544 318.141144,128.430756 
	C323.183746,128.803085 327.497803,129.782791 331.594299,129.209015 
	C334.713409,128.772125 338.266571,127.006615 340.365723,124.689789 
	C344.078796,120.591713 343.628113,112.184845 340.417908,107.789291 
	C337.713043,104.085579 334.040161,103.661308 326.876495,106.208450 
	C326.751770,106.252800 326.563568,106.118599 325.910797,105.909172 
	C325.910797,102.862694 325.910797,99.647903 325.910797,96.397743 
	C323.156616,96.397743 320.906372,96.397743 318.141144,96.397743 
	C318.141144,101.597122 318.141144,106.550285 318.141144,112.500366 
M159.435577,118.588448 
	C162.218292,118.588448 165.000992,118.588448 167.703018,118.588448 
	C168.491226,112.359512 167.634872,109.184937 164.708054,106.772552 
	C161.205460,103.885605 153.468765,103.598091 149.059570,106.191040 
	C144.532867,108.853104 142.503738,114.489983 143.853241,120.654015 
	C144.898514,125.428474 148.503754,128.473038 154.287903,129.073517 
	C156.903931,129.345093 159.599960,129.317383 162.215454,129.026962 
	C168.155624,128.367325 168.671997,127.435463 167.117737,121.353561 
	C156.926620,125.059189 153.390335,124.501877 151.984161,118.579544 
	C154.211075,118.579544 156.345810,118.579544 159.435577,118.588448 
M302.785217,116.447159 
	C302.844849,119.418098 303.475525,122.793602 298.901550,122.907387 
	C294.117523,123.026390 294.956757,119.410248 294.893677,116.535149 
	C294.811462,112.787529 294.873566,109.036728 294.873566,105.362625 
	C291.835358,105.362625 289.571655,105.362625 286.993652,105.362625 
	C286.993652,111.057030 286.793640,116.529533 287.052704,121.980217 
	C287.288452,126.941040 290.542480,130.400208 295.158752,129.163956 
	C300.255585,127.799004 305.105255,129.320709 310.232697,128.768066 
	C310.232697,120.827187 310.232697,113.106071 310.232697,105.340195 
	C307.630829,105.340195 305.362396,105.340195 302.785492,105.340195 
	C302.785492,108.865440 302.785492,112.181870 302.785217,116.447159 
M121.531700,124.205818 
	C121.533867,121.544243 121.681526,118.872726 121.500412,116.223686 
	C121.286514,113.095093 122.015526,111.080536 125.655899,110.986763 
	C129.377335,110.890900 129.559372,113.543877 129.664062,116.021904 
	C129.838776,120.157326 129.711746,124.305489 129.711746,128.656311 
	C132.375916,128.656311 134.636002,128.656311 137.172348,128.656311 
	C137.172348,122.989082 137.283356,117.509102 137.139709,112.035797 
	C137.008011,107.017632 134.198868,104.298645 129.226242,104.516708 
	C124.266037,104.734230 119.322914,105.341370 114.310165,105.783165 
	C114.310165,113.320663 114.310165,121.036888 114.310165,128.690460 
	C116.772705,128.690460 118.897888,128.690460 121.209633,128.690460 
	C121.328033,127.395988 121.431984,126.259491 121.531700,124.205818 
M183.871826,104.500694 
	C183.212082,104.589622 182.549820,104.663193 181.892975,104.769951 
	C177.384918,105.502640 173.732498,107.566048 173.640793,112.537827 
	C173.544754,117.744568 177.481750,119.348473 181.929932,120.093109 
	C183.734604,120.395210 185.482986,121.033600 187.256973,121.518982 
	C187.207016,122.142197 187.157059,122.765404 187.107101,123.388618 
	C184.989304,123.481812 182.801208,123.950027 180.772141,123.569794 
	C178.429276,123.130737 176.226593,121.943680 173.926224,121.067390 
	C172.951050,128.049942 173.192719,128.499786 179.672577,129.080200 
	C182.456024,129.329544 185.367462,129.416946 188.081329,128.877060 
	C192.073898,128.082809 195.133942,125.967079 195.238251,121.234535 
	C195.342621,116.498573 192.163651,115.033188 188.380020,114.080017 
	C186.121902,113.511154 183.870148,112.917091 181.615524,112.334358 
	C181.747879,111.580559 181.880234,110.826759 182.012604,110.072952 
	C185.951843,110.561836 189.891098,111.050720 193.947800,111.554176 
	C195.251068,107.290329 193.908752,104.655327 188.672256,104.703873 
	C187.347672,104.716156 186.021378,104.543732 183.871826,104.500694 
M208.978195,123.875252 
	C206.374298,122.980476 203.770401,122.085693 200.995422,121.132133 
	C200.995422,123.424667 200.995422,125.520920 200.995422,128.946777 
	C205.905746,128.946777 210.683334,129.394272 215.331909,128.811951 
	C219.400223,128.302322 222.468262,125.620728 222.481049,121.106728 
	C222.493668,116.651978 219.309235,114.910034 215.398621,114.062134 
	C213.150162,113.574631 210.948898,112.869415 208.726395,112.262199 
	C208.861618,111.509537 208.996857,110.756866 209.132095,110.004204 
	C213.099213,110.527214 217.066315,111.050224 221.176437,111.592087 
	C222.578156,107.560226 221.431030,104.909668 216.415482,104.808418 
	C213.769104,104.754982 211.072296,104.568291 208.481781,104.974457 
	C204.237335,105.639961 200.923065,107.604416 200.826294,112.596764 
	C200.730011,117.563805 204.250717,118.949150 208.145599,119.957939 
	C210.230148,120.497833 212.312668,121.045555 214.396103,121.589745 
	C214.359879,122.089706 214.323654,122.589661 214.287430,123.089615 
	C212.789856,123.377007 211.292297,123.664398 208.978195,123.875252 
M63.458553,128.881012 
	C64.601860,128.825485 65.745171,128.769943 67.263802,128.696182 
	C67.263802,122.801720 67.263802,117.051254 67.263802,111.231262 
	C69.374924,110.962982 71.118790,110.741371 73.070282,110.493378 
	C72.982109,108.627037 72.906281,107.021843 72.827087,105.345596 
	C70.751106,105.171127 68.979790,105.022263 67.208466,104.873390 
	C67.081207,104.377037 66.953941,103.880684 66.826675,103.384323 
	C69.257530,102.679413 71.688377,101.974495 74.190056,101.249039 
	C74.190056,99.818771 74.190056,98.086708 74.190056,96.166069 
	C69.142387,96.148979 64.142250,94.607620 60.717033,99.598770 
	C59.288479,101.680428 60.534946,105.616325 56.412971,105.832123 
	C56.561470,107.391960 56.410244,110.192406 56.906620,110.312332 
	C60.392609,111.154533 59.353924,113.738220 59.410740,115.847450 
	C59.500221,119.169418 59.543591,122.499672 59.407658,125.818283 
	C59.309486,128.214935 60.228691,129.217010 63.458553,128.881012 
M262.237701,122.096466 
	C258.866272,123.734016 255.069458,124.620377 252.901596,121.039093 
	C251.687210,119.032951 251.505112,115.072021 252.715607,113.181038 
	C256.139648,107.832161 260.777466,111.659676 264.932953,113.074959 
	C265.461975,105.676613 264.592621,104.642288 257.699097,104.496071 
	C255.885880,104.457619 254.017471,104.631569 252.254761,105.048088 
	C246.798416,106.337410 243.521255,110.816727 243.435562,116.828636 
	C243.352798,122.637077 246.241470,127.538765 251.539139,128.508835 
	C255.902100,129.307739 260.527771,128.671906 265.150604,128.671906 
	C265.150604,125.666496 265.212036,123.835556 265.052917,122.023972 
	C265.037476,121.848106 263.658203,121.792030 262.237701,122.096466 
M102.661003,129.456116 
	C104.606529,129.252197 106.552055,129.048294 108.493774,128.844788 
	C108.493774,126.796211 108.493774,125.108490 108.493774,123.367882 
	C101.601692,124.485611 100.576942,122.188927 102.567413,110.996994 
	C104.522537,110.881561 106.477661,110.766136 108.456543,110.649307 
	C108.456543,108.670654 108.456543,106.988464 108.456543,105.258347 
	C106.115440,105.150635 104.185188,105.061821 102.031395,104.962723 
	C102.031395,102.817154 102.031395,101.020538 102.031395,99.015640 
	C99.349503,99.015640 96.915878,99.015640 95.887192,99.015640 
	C94.017288,101.838661 92.473831,103.757957 91.429977,105.918625 
	C90.910439,106.993996 90.822289,109.394478 91.364128,109.691795 
	C96.337029,112.420509 93.729858,116.939323 94.033653,120.606773 
	C94.543846,126.765831 95.765488,128.445587 102.661003,129.456116 
M278.857056,115.487976 
	C278.857056,109.100304 278.857056,102.712631 278.857056,96.430481 
	C275.804535,96.430481 273.558472,96.430481 271.330505,96.430481 
	C271.330505,107.415138 271.330505,118.094032 271.330505,128.592621 
	C273.944000,128.592621 276.199738,128.592621 278.857086,128.592621 
	C278.857086,124.377663 278.857086,120.429771 278.857056,115.487976 
M77.776176,119.416054 
	C77.776176,122.501579 77.776176,125.587105 77.776176,128.645386 
	C80.645813,128.645386 82.894653,128.645386 85.224747,128.645386 
	C85.224747,120.702850 85.224747,113.016975 85.224747,105.332886 
	C82.595261,105.332886 80.339256,105.332886 77.775223,105.332886 
	C77.775223,109.856491 77.775223,114.152115 77.776176,119.416054 
M83.239899,102.272835 
	C88.068535,101.877357 85.200577,98.662148 85.790642,96.428497 
	C82.799324,96.428497 80.269318,96.428497 77.707062,96.428497 
	C77.707062,98.491104 77.707062,100.205101 77.707062,102.250786 
	C79.485207,102.250786 80.954193,102.250786 83.239899,102.272835 
z"/>
<path fill="#2B9AF4" opacity="1.000000" stroke="none" 
	d="
M238.784180,41.087654 
	C248.977615,44.010170 258.789795,39.854103 268.667786,41.204659 
	C268.667786,45.824028 268.667786,50.170734 268.667786,55.436321 
	C271.875366,55.634823 275.557404,55.862690 279.605133,56.113186 
	C279.605133,57.962566 279.605133,59.670437 279.605133,61.754375 
	C276.470001,61.922180 273.384705,62.087318 270.157471,62.260052 
	C269.953705,63.087437 269.895569,63.743587 269.636230,64.307137 
	C268.153534,67.529205 273.287506,73.952667 265.294830,73.922798 
	C261.287079,73.907822 257.283936,72.866959 253.276871,72.303360 
	C252.115814,72.140045 250.845093,71.650719 249.799316,71.940712 
	C235.984116,75.771545 222.439758,74.518379 209.220062,69.540062 
	C203.942902,67.552788 200.086990,63.681377 200.246872,57.548298 
	C200.412094,51.209904 204.176697,47.127930 209.829269,44.727509 
	C218.971161,40.845291 228.623795,40.785748 238.784180,41.087654 
M255.000702,52.966621 
	C253.653152,52.463814 252.259888,52.057144 250.965744,51.441994 
	C244.484314,48.361149 237.793533,47.764629 231.264587,50.752388 
	C229.120560,51.733528 226.947662,54.121986 226.190796,56.344608 
	C224.800140,60.428280 227.060501,63.324696 231.044998,64.800270 
	C237.516678,67.196930 242.998199,66.374893 245.180542,62.230145 
	C242.098312,62.065964 239.232605,61.913319 236.327866,61.758591 
	C234.917648,57.606419 235.708755,55.671242 240.366959,55.820099 
	C248.000473,56.064037 255.648376,55.930580 263.288605,55.832123 
	C264.857666,55.811901 266.419708,55.245964 267.984985,54.931572 
	C267.938568,54.278751 267.892151,53.625935 267.845734,52.973114 
	C263.863647,52.973114 259.881531,52.973114 255.000702,52.966621 
z"/>
<path fill="#2B9AF4" opacity="1.000000" stroke="none" 
	d="
M136.626831,72.560577 
	C131.854111,70.491570 127.128410,69.109779 123.160973,66.551872 
	C116.042282,61.962273 115.728874,52.785908 122.927727,48.367901 
	C128.139984,45.169083 134.433182,42.386223 140.395981,42.041576 
	C152.067505,41.366978 163.875885,42.155804 175.561218,43.132965 
	C179.462433,43.459198 183.477280,45.723919 186.885880,47.950912 
	C193.777588,52.453606 194.330505,59.284927 188.638977,65.247627 
	C182.324310,71.863152 173.934769,73.637329 165.387589,73.801414 
	C155.940674,73.982796 146.473770,73.123711 136.626831,72.560577 
M166.815399,57.600029 
	C164.942184,47.541458 152.107330,46.956192 146.923523,51.544716 
	C143.366989,54.692844 143.082550,58.899525 146.218002,62.479050 
	C151.112457,68.066704 165.044479,67.961296 166.815399,57.600029 
z"/>
<path fill="#2B9AF4" opacity="1.000000" stroke="none" 
	d="
M318.092163,40.993877 
	C327.162384,41.613922 335.811462,41.791294 344.301575,43.045033 
	C348.399292,43.650150 352.514679,45.793083 356.063690,48.099033 
	C362.686859,52.402420 363.081665,59.821056 357.438171,65.445496 
	C352.368622,70.497887 345.994141,72.699348 339.051300,73.323990 
	C325.955780,74.502190 312.858978,75.070671 300.109619,70.876228 
	C291.494110,68.041794 286.596710,63.121727 286.973389,57.176048 
	C287.477661,49.215256 293.415649,45.837154 300.030518,44.020519 
	C305.735718,42.453712 311.735901,41.961239 318.092163,40.993877 
M313.017181,56.669655 
	C313.047363,61.618290 316.083588,64.201363 320.356659,65.493927 
	C325.013245,66.902512 329.565430,66.641075 333.288055,63.035244 
	C336.581909,59.844765 336.465790,56.543938 333.624908,52.881119 
	C328.477295,46.244110 314.872498,47.994366 313.017181,56.669655 
z"/>
<path fill="#2999F5" opacity="1.000000" stroke="none" 
	d="
M68.191673,51.385113 
	C68.175110,55.340900 67.915642,58.867363 68.312744,62.318272 
	C68.457451,63.575882 70.126450,65.616905 71.165970,65.658653 
	C78.444923,65.951019 85.741142,65.813461 92.873245,65.813461 
	C93.704216,63.349064 94.145309,59.854431 95.047630,59.730984 
	C99.784645,59.082901 105.225777,57.854145 109.314949,59.529671 
	C115.574440,62.094475 110.220253,68.584282 112.531952,73.557343 
	C86.342911,73.557343 60.998394,73.557343 35.323410,73.557343 
	C35.323410,71.219788 35.323410,68.967468 35.323410,66.098389 
	C36.958618,66.011215 38.747162,65.640282 40.450699,65.878159 
	C45.044361,66.519608 46.305588,64.486298 45.894421,60.214710 
	C45.563343,56.775166 45.827389,53.278339 45.827389,49.369236 
	C42.240032,49.201572 39.005070,49.050377 35.471649,48.885235 
	C35.471649,46.387070 35.471649,44.122375 35.471649,41.423542 
	C49.705250,41.423542 64.060936,41.423542 78.705597,41.423542 
	C78.705597,43.691875 78.705597,45.960781 78.705597,49.120785 
	C76.600739,49.120785 74.335510,48.908131 72.136887,49.198982 
	C70.775146,49.379128 69.514610,50.324184 68.191673,51.385113 
z"/>
<path fill="#0C0C0C" opacity="1.000000" stroke="none" 
	d="
M318.141144,112.001907 
	C318.141144,106.550285 318.141144,101.597122 318.141144,96.397743 
	C320.906372,96.397743 323.156616,96.397743 325.910797,96.397743 
	C325.910797,99.647903 325.910797,102.862694 325.910797,105.909172 
	C326.563568,106.118599 326.751770,106.252800 326.876495,106.208450 
	C334.040161,103.661308 337.713043,104.085579 340.417908,107.789291 
	C343.628113,112.184845 344.078796,120.591713 340.365723,124.689789 
	C338.266571,127.006615 334.713409,128.772125 331.594299,129.209015 
	C327.497803,129.782791 323.183746,128.803085 318.141144,128.430756 
	C318.141144,123.329544 318.141144,117.914955 318.141144,112.001907 
M325.998199,113.959915 
	C325.998199,117.044800 325.998199,120.129692 325.998199,123.075851 
	C333.043243,124.342125 336.607788,120.074501 334.265167,113.764397 
	C333.788788,112.481155 332.085999,110.749893 331.017365,110.796677 
	C329.316040,110.871170 327.672516,112.265808 325.998199,113.959915 
z"/>
<path fill="#0F0F0F" opacity="1.000000" stroke="none" 
	d="
M158.958069,118.584000 
	C156.345810,118.579544 154.211075,118.579544 151.984161,118.579544 
	C153.390335,124.501877 156.926620,125.059189 167.117737,121.353561 
	C168.671997,127.435463 168.155624,128.367325 162.215454,129.026962 
	C159.599960,129.317383 156.903931,129.345093 154.287903,129.073517 
	C148.503754,128.473038 144.898514,125.428474 143.853241,120.654015 
	C142.503738,114.489983 144.532867,108.853104 149.059570,106.191040 
	C153.468765,103.598091 161.205460,103.885605 164.708054,106.772552 
	C167.634872,109.184937 168.491226,112.359512 167.703018,118.588448 
	C165.000992,118.588448 162.218292,118.588448 158.958069,118.584000 
M151.730011,113.571396 
	C154.469528,113.571396 157.209061,113.571396 159.948578,113.571396 
	C160.192154,113.199730 160.435730,112.828064 160.679306,112.456398 
	C159.351837,111.471138 157.854080,109.519661 156.735031,109.716904 
	C154.844269,110.050163 153.193207,111.743416 151.730011,113.571396 
z"/>
<path fill="#0F0F0F" opacity="1.000000" stroke="none" 
	d="
M302.785339,115.972733 
	C302.785492,112.181870 302.785492,108.865440 302.785492,105.340195 
	C305.362396,105.340195 307.630829,105.340195 310.232697,105.340195 
	C310.232697,113.106071 310.232697,120.827187 310.232697,128.768066 
	C305.105255,129.320709 300.255585,127.799004 295.158752,129.163956 
	C290.542480,130.400208 287.288452,126.941040 287.052704,121.980217 
	C286.793640,116.529533 286.993652,111.057030 286.993652,105.362625 
	C289.571655,105.362625 291.835358,105.362625 294.873566,105.362625 
	C294.873566,109.036728 294.811462,112.787529 294.893677,116.535149 
	C294.956757,119.410248 294.117523,123.026390 298.901550,122.907387 
	C303.475525,122.793602 302.844849,119.418098 302.785339,115.972733 
z"/>
<path fill="#0B0B0B" opacity="1.000000" stroke="none" 
	d="
M121.533813,124.664406 
	C121.431984,126.259491 121.328033,127.395988 121.209633,128.690460 
	C118.897888,128.690460 116.772705,128.690460 114.310165,128.690460 
	C114.310165,121.036888 114.310165,113.320663 114.310165,105.783165 
	C119.322914,105.341370 124.266037,104.734230 129.226242,104.516708 
	C134.198868,104.298645 137.008011,107.017632 137.139709,112.035797 
	C137.283356,117.509102 137.172348,122.989082 137.172348,128.656311 
	C134.636002,128.656311 132.375916,128.656311 129.711746,128.656311 
	C129.711746,124.305489 129.838776,120.157326 129.664062,116.021904 
	C129.559372,113.543877 129.377335,110.890900 125.655899,110.986763 
	C122.015526,111.080536 121.286514,113.095093 121.500412,116.223686 
	C121.681526,118.872726 121.533867,121.544243 121.533813,124.664406 
z"/>
<path fill="#0C0C0C" opacity="1.000000" stroke="none" 
	d="
M184.283844,104.478439 
	C186.021378,104.543732 187.347672,104.716156 188.672256,104.703873 
	C193.908752,104.655327 195.251068,107.290329 193.947800,111.554176 
	C189.891098,111.050720 185.951843,110.561836 182.012604,110.072952 
	C181.880234,110.826759 181.747879,111.580559 181.615524,112.334358 
	C183.870148,112.917091 186.121902,113.511154 188.380020,114.080017 
	C192.163651,115.033188 195.342621,116.498573 195.238251,121.234535 
	C195.133942,125.967079 192.073898,128.082809 188.081329,128.877060 
	C185.367462,129.416946 182.456024,129.329544 179.672577,129.080200 
	C173.192719,128.499786 172.951050,128.049942 173.926224,121.067390 
	C176.226593,121.943680 178.429276,123.130737 180.772141,123.569794 
	C182.801208,123.950027 184.989304,123.481812 187.107101,123.388618 
	C187.157059,122.765404 187.207016,122.142197 187.256973,121.518982 
	C185.482986,121.033600 183.734604,120.395210 181.929932,120.093109 
	C177.481750,119.348473 173.544754,117.744568 173.640793,112.537827 
	C173.732498,107.566048 177.384918,105.502640 181.892975,104.769951 
	C182.549820,104.663193 183.212082,104.589622 184.283844,104.478439 
z"/>
<path fill="#0C0C0C" opacity="1.000000" stroke="none" 
	d="
M209.386475,123.913513 
	C211.292297,123.664398 212.789856,123.377007 214.287430,123.089615 
	C214.323654,122.589661 214.359879,122.089706 214.396103,121.589745 
	C212.312668,121.045555 210.230148,120.497833 208.145599,119.957939 
	C204.250717,118.949150 200.730011,117.563805 200.826294,112.596764 
	C200.923065,107.604416 204.237335,105.639961 208.481781,104.974457 
	C211.072296,104.568291 213.769104,104.754982 216.415482,104.808418 
	C221.431030,104.909668 222.578156,107.560226 221.176437,111.592087 
	C217.066315,111.050224 213.099213,110.527214 209.132095,110.004204 
	C208.996857,110.756866 208.861618,111.509537 208.726395,112.262199 
	C210.948898,112.869415 213.150162,113.574631 215.398621,114.062134 
	C219.309235,114.910034 222.493668,116.651978 222.481049,121.106728 
	C222.468262,125.620728 219.400223,128.302322 215.331909,128.811951 
	C210.683334,129.394272 205.905746,128.946777 200.995422,128.946777 
	C200.995422,125.520920 200.995422,123.424667 200.995422,121.132133 
	C203.770401,122.085693 206.374298,122.980476 209.386475,123.913513 
z"/>
<path fill="#101010" opacity="1.000000" stroke="none" 
	d="
M63.027664,128.880554 
	C60.228691,129.217010 59.309486,128.214935 59.407658,125.818283 
	C59.543591,122.499672 59.500221,119.169418 59.410740,115.847450 
	C59.353924,113.738220 60.392609,111.154533 56.906620,110.312332 
	C56.410244,110.192406 56.561470,107.391960 56.412971,105.832123 
	C60.534946,105.616325 59.288479,101.680428 60.717033,99.598770 
	C64.142250,94.607620 69.142387,96.148979 74.190056,96.166069 
	C74.190056,98.086708 74.190056,99.818771 74.190056,101.249039 
	C71.688377,101.974495 69.257530,102.679413 66.826675,103.384323 
	C66.953941,103.880684 67.081207,104.377037 67.208466,104.873390 
	C68.979790,105.022263 70.751106,105.171127 72.827087,105.345596 
	C72.906281,107.021843 72.982109,108.627037 73.070282,110.493378 
	C71.118790,110.741371 69.374924,110.962982 67.263802,111.231262 
	C67.263802,117.051254 67.263802,122.801720 67.263802,128.696182 
	C65.745171,128.769943 64.601860,128.825485 63.027664,128.880554 
z"/>
<path fill="#0C0C0C" opacity="1.000000" stroke="none" 
	d="
M262.574860,121.888412 
	C263.658203,121.792030 265.037476,121.848106 265.052917,122.023972 
	C265.212036,123.835556 265.150604,125.666496 265.150604,128.671906 
	C260.527771,128.671906 255.902100,129.307739 251.539139,128.508835 
	C246.241470,127.538765 243.352798,122.637077 243.435562,116.828636 
	C243.521255,110.816727 246.798416,106.337410 252.254761,105.048088 
	C254.017471,104.631569 255.885880,104.457619 257.699097,104.496071 
	C264.592621,104.642288 265.461975,105.676613 264.932953,113.074959 
	C260.777466,111.659676 256.139648,107.832161 252.715607,113.181038 
	C251.505112,115.072021 251.687210,119.032951 252.901596,121.039093 
	C255.069458,124.620377 258.866272,123.734016 262.574860,121.888412 
z"/>
<path fill="#0E0E0E" opacity="1.000000" stroke="none" 
	d="
M102.270889,129.408813 
	C95.765488,128.445587 94.543846,126.765831 94.033653,120.606773 
	C93.729858,116.939323 96.337029,112.420509 91.364128,109.691795 
	C90.822289,109.394478 90.910439,106.993996 91.429977,105.918625 
	C92.473831,103.757957 94.017288,101.838661 95.887192,99.015640 
	C96.915878,99.015640 99.349503,99.015640 102.031395,99.015640 
	C102.031395,101.020538 102.031395,102.817154 102.031395,104.962723 
	C104.185188,105.061821 106.115440,105.150635 108.456543,105.258347 
	C108.456543,106.988464 108.456543,108.670654 108.456543,110.649307 
	C106.477661,110.766136 104.522537,110.881561 102.566940,110.997574 
	C100.576942,122.188927 101.601692,124.485611 108.493774,123.367882 
	C108.493774,125.108490 108.493774,126.796211 108.493774,128.844788 
	C106.552055,129.048294 104.606529,129.252197 102.270889,129.408813 
z"/>
<path fill="#0C0C0C" opacity="1.000000" stroke="none" 
	d="
M278.857056,115.984924 
	C278.857086,120.429771 278.857086,124.377663 278.857086,128.592621 
	C276.199738,128.592621 273.944000,128.592621 271.330505,128.592621 
	C271.330505,118.094032 271.330505,107.415138 271.330505,96.430481 
	C273.558472,96.430481 275.804535,96.430481 278.857056,96.430481 
	C278.857056,102.712631 278.857056,109.100304 278.857056,115.984924 
z"/>
<path fill="#141414" opacity="1.000000" stroke="none" 
	d="
M77.775696,118.931900 
	C77.775223,114.152115 77.775223,109.856491 77.775223,105.332886 
	C80.339256,105.332886 82.595261,105.332886 85.224747,105.332886 
	C85.224747,113.016975 85.224747,120.702850 85.224747,128.645386 
	C82.894653,128.645386 80.645813,128.645386 77.776176,128.645386 
	C77.776176,125.587105 77.776176,122.501579 77.775696,118.931900 
z"/>
<path fill="#1F1F1F" opacity="1.000000" stroke="none" 
	d="
M82.831535,102.261810 
	C80.954193,102.250786 79.485207,102.250786 77.707062,102.250786 
	C77.707062,100.205101 77.707062,98.491104 77.707062,96.428497 
	C80.269318,96.428497 82.799324,96.428497 85.790642,96.428497 
	C85.200577,98.662148 88.068535,101.877357 82.831535,102.261810 
z"/>
<path fill="#ECF7FB" opacity="1.000000" stroke="none" 
	d="
M255.450058,52.969868 
	C259.881531,52.973114 263.863647,52.973114 267.845734,52.973114 
	C267.892151,53.625935 267.938568,54.278751 267.984985,54.931572 
	C266.419708,55.245964 264.857666,55.811901 263.288605,55.832123 
	C255.648376,55.930580 248.000473,56.064037 240.366959,55.820099 
	C235.708755,55.671242 234.917648,57.606419 236.327866,61.758591 
	C239.232605,61.913319 242.098312,62.065964 245.180542,62.230145 
	C242.998199,66.374893 237.516678,67.196930 231.044998,64.800270 
	C227.060501,63.324696 224.800140,60.428280 226.190796,56.344608 
	C226.947662,54.121986 229.120560,51.733528 231.264587,50.752388 
	C237.793533,47.764629 244.484314,48.361149 250.965744,51.441994 
	C252.259888,52.057144 253.653152,52.463814 255.450058,52.969868 
z"/>
<path fill="#F5FBFC" opacity="1.000000" stroke="none" 
	d="
M166.812271,57.977516 
	C165.044479,67.961296 151.112457,68.066704 146.218002,62.479050 
	C143.082550,58.899525 143.366989,54.692844 146.923523,51.544716 
	C152.107330,46.956192 164.942184,47.541458 166.812271,57.977516 
z"/>
<path fill="#F6FBFC" opacity="1.000000" stroke="none" 
	d="
M313.050171,56.280441 
	C314.872498,47.994366 328.477295,46.244110 333.624908,52.881119 
	C336.465790,56.543938 336.581909,59.844765 333.288055,63.035244 
	C329.565430,66.641075 325.013245,66.902512 320.356659,65.493927 
	C316.083588,64.201363 313.047363,61.618290 313.050171,56.280441 
z"/>
<path fill="#F2F2F2" opacity="1.000000" stroke="none" 
	d="
M326.001343,113.531021 
	C327.672516,112.265808 329.316040,110.871170 331.017365,110.796677 
	C332.085999,110.749893 333.788788,112.481155 334.265167,113.764397 
	C336.607788,120.074501 333.043243,124.342125 325.998199,123.075851 
	C325.998199,120.129692 325.998199,117.044800 326.001343,113.531021 
z"/>
<path fill="#DFDFDF" opacity="1.000000" stroke="none" 
	d="
M151.585693,113.218109 
	C153.193207,111.743416 154.844269,110.050163 156.735031,109.716904 
	C157.854080,109.519661 159.351837,111.471138 160.679306,112.456398 
	C160.435730,112.828064 160.192154,113.199730 159.948578,113.571396 
	C157.209061,113.571396 154.469528,113.571396 151.585693,113.218109 
z"/>
</svg>