<?xml version="1.0" encoding="UTF-8"?>
<!DOCTYPE svg PUBLIC "-//W3C//DTD SVG 1.1//EN" "http://www.w3.org/Graphics/SVG/1.1/DTD/svg11.dtd">
<svg xmlns="http://www.w3.org/2000/svg" version="1.1" width="163px" height="163px" style="shape-rendering:geometricPrecision; text-rendering:geometricPrecision; image-rendering:optimizeQuality; fill-rule:evenodd; clip-rule:evenodd" xmlns:xlink="http://www.w3.org/1999/xlink">
<g><path style="opacity:1" fill="#fef8ee" d="M 82.5,-0.5 C 82.8333,-0.5 83.1667,-0.5 83.5,-0.5C 83.3147,0.170143 82.9813,0.170143 82.5,-0.5 Z"/></g>
<g><path style="opacity:1" fill="#ebfafa" d="M 63.5,1.5 C 64.8333,2.16667 64.8333,2.16667 63.5,1.5 Z"/></g>
<g><path style="opacity:1" fill="#988f92" d="M 86.5,5.5 C 81.5,5.5 76.5,5.5 71.5,5.5C 76.6517,3.54635 81.6517,3.54635 86.5,5.5 Z"/></g>
<g><path style="opacity:1" fill="#3c9afd" d="M 63.5,5.5 C 66.1667,5.5 68.8333,5.5 71.5,5.5C 76.5,5.5 81.5,5.5 86.5,5.5C 88.8333,5.5 91.1667,5.5 93.5,5.5C 96.5178,7.39994 99.8512,8.73328 103.5,9.5C 104.514,10.6737 105.847,11.3404 107.5,11.5C 108.514,12.6737 109.847,13.3404 111.5,13.5C 113.68,15.2885 116.013,16.9551 118.5,18.5C 118.833,19.5 119.5,20.1667 120.5,20.5C 120.833,21.5 121.5,22.1667 122.5,22.5C 122.918,23.2216 123.584,23.7216 124.5,24C 123.288,25.1068 123.621,25.6068 125.5,25.5C 126.855,26.8713 128.189,28.8713 129.5,31.5C 131.327,36.3368 133.327,41.0034 135.5,45.5C 135.328,46.4916 135.662,47.1583 136.5,47.5C 136.194,50.3854 136.527,53.0521 137.5,55.5C 137.5,57.5 137.5,59.5 137.5,61.5C 137.5,62.8333 137.5,64.1667 137.5,65.5C 137.5,67.1667 137.5,68.8333 137.5,70.5C 136.656,73.3447 135.99,76.3447 135.5,79.5C 135.443,80.609 135.11,81.609 134.5,82.5C 133.833,82.5 133.5,82.8333 133.5,83.5C 131.983,86.0352 130.65,88.7018 129.5,91.5C 129.635,93.5542 128.968,95.2209 127.5,96.5C 125.75,97.6594 124.75,99.326 124.5,101.5C 123.599,102.29 122.932,103.29 122.5,104.5C 121.5,105.833 120.5,107.167 119.5,108.5C 119.473,110.199 118.806,111.533 117.5,112.5C 115.457,113.579 114.124,115.246 113.5,117.5C 112.662,117.842 112.328,118.508 112.5,119.5C 111.833,120.167 111.167,120.833 110.5,121.5C 107.677,124.475 105.344,127.808 103.5,131.5C 102.167,131.5 101.5,132.167 101.5,133.5C 101.443,134.609 101.11,135.609 100.5,136.5C 100.167,136.5 99.8333,136.5 99.5,136.5C 96.0227,138.64 93.6894,141.64 92.5,145.5C 91.6618,145.842 91.3284,146.508 91.5,147.5C 90.5084,147.328 89.8417,147.662 89.5,148.5C 88.1667,149.167 87.1667,150.167 86.5,151.5C 85.8333,151.5 85.5,151.833 85.5,152.5C 84.5,152.833 83.8333,153.5 83.5,154.5C 83.5,155.167 83.1667,155.5 82.5,155.5C 80.283,156.369 77.9496,156.702 75.5,156.5C 74.8333,155.167 73.8333,154.167 72.5,153.5C 71.8333,152.167 70.8333,151.167 69.5,150.5C 69.5,149.833 69.1667,149.5 68.5,149.5C 67.8333,148.167 66.8333,147.167 65.5,146.5C 64.4489,145.778 63.7822,144.778 63.5,143.5C 62.396,141.611 61.0627,139.945 59.5,138.5C 58.2719,137.694 57.2719,136.694 56.5,135.5C 54.1737,130.861 51.1737,126.861 47.5,123.5C 46.9202,121.251 45.5869,119.585 43.5,118.5C 43.5,118.167 43.5,117.833 43.5,117.5C 43.5,116.167 42.8333,115.5 41.5,115.5C 41.573,113.973 40.9063,112.973 39.5,112.5C 39.5,111.833 39.1667,111.5 38.5,111.5C 37.6167,108.296 35.9501,105.629 33.5,103.5C 33.5,102.833 33.1667,102.5 32.5,102.5C 32.0113,101.005 31.3446,99.6715 30.5,98.5C 30.1667,97.8333 29.8333,97.1667 29.5,96.5C 29.0113,95.0048 28.3446,93.6715 27.5,92.5C 27.5,92.1667 27.5,91.8333 27.5,91.5C 27.0679,90.2905 26.4013,89.2905 25.5,88.5C 23.4852,85.8094 22.1519,82.8094 21.5,79.5C 21.8893,76.4467 21.2227,73.78 19.5,71.5C 19.5,65.1667 19.5,58.8333 19.5,52.5C 20.4682,50.3926 20.8016,48.0593 20.5,45.5C 21.3092,43.9724 21.9759,42.3057 22.5,40.5C 23.1667,40.5 23.5,40.1667 23.5,39.5C 24.3446,38.3285 25.0113,36.9952 25.5,35.5C 26.1667,34.1667 26.8333,32.8333 27.5,31.5C 29.2624,30.7377 30.2624,29.4044 30.5,27.5C 31.1667,27.5 31.5,27.1667 31.5,26.5C 34.5,24.1667 37.1667,21.5 39.5,18.5C 39.8333,17.8333 40.1667,17.1667 40.5,16.5C 42.184,15.4728 43.8506,14.4728 45.5,13.5C 51.142,9.92982 57.142,7.26315 63.5,5.5 Z M 83.5,17.5 C 84.1667,17.5 84.8333,17.5 85.5,17.5C 85.0825,18.2216 84.4158,18.7216 83.5,19C 91.9052,18.8209 99.0718,21.9875 105,28.5C 105.414,28.0426 105.914,27.7093 106.5,27.5C 107.524,28.8532 108.857,29.5198 110.5,29.5C 111.5,30.5 112.5,31.5 113.5,32.5C 113.062,32.4346 112.728,32.6012 112.5,33C 113.329,34.8161 114.163,36.6494 115,38.5C 115.671,37.7476 116.504,37.4142 117.5,37.5C 117.157,39.4832 117.824,40.8166 119.5,41.5C 119.031,44.3933 120.031,46.3933 122.5,47.5C 123.087,51.2064 123.754,54.873 124.5,58.5C 125.833,61.5 125.833,64.5 124.5,67.5C 122.161,71.6923 120.161,76.1923 118.5,81C 118.57,81.7648 118.903,82.2648 119.5,82.5C 118.032,83.7791 117.365,85.4458 117.5,87.5C 114.457,88.7438 113.124,91.0771 113.5,94.5C 113.5,95.1667 113.167,95.5 112.5,95.5C 111.022,95.238 109.689,95.5713 108.5,96.5C 108.855,97.5223 109.522,98.189 110.5,98.5C 110.5,98.8333 110.5,99.1667 110.5,99.5C 109.5,99.5 108.5,99.5 107.5,99.5C 107.5,100.833 107.5,102.167 107.5,103.5C 105.21,101.967 104.544,102.3 105.5,104.5C 104.313,105.519 103.313,106.686 102.5,108C 102.728,108.399 103.062,108.565 103.5,108.5C 103.167,109.167 102.833,109.833 102.5,110.5C 100.003,111.129 98.6696,112.796 98.5,115.5C 96.2729,116.401 95.2729,118.067 95.5,120.5C 95.1667,120.5 94.8333,120.5 94.5,120.5C 94.5,120.833 94.5,121.167 94.5,121.5C 93.325,121.281 92.325,121.614 91.5,122.5C 88.5749,125.271 86.5749,128.604 85.5,132.5C 84.5,133.5 83.5,134.5 82.5,135.5C 81.5655,134.432 81.2322,133.099 81.5,131.5C 81.1667,131.5 80.8333,131.5 80.5,131.5C 80.5,132.833 80.5,134.167 80.5,135.5C 77.213,134.736 74.5463,132.903 72.5,130C 71.2068,129.51 69.8734,129.343 68.5,129.5C 67.8333,129.5 67.5,129.167 67.5,128.5C 68.0906,127.849 68.7573,127.182 69.5,126.5C 67.6719,123.987 65.3385,122.321 62.5,121.5C 61.8333,121.5 61.5,121.167 61.5,120.5C 61.9382,120.565 62.2716,120.399 62.5,120C 57.8381,114.34 54.0047,108.174 51,101.5C 50.6667,102.167 50.3333,102.833 50,103.5C 49.7216,102.584 49.2216,101.918 48.5,101.5C 47.8333,101.5 47.5,101.167 47.5,100.5C 47.5,99.1667 46.8333,98.5 45.5,98.5C 45.5,98.1667 45.5,97.8333 45.5,97.5C 49.0015,96.1655 49.1682,94.4989 46,92.5C 45.7679,93.7375 45.2679,94.7375 44.5,95.5C 43.8333,95.5 43.5,95.1667 43.5,94.5C 43.2927,91.7594 42.2927,89.4261 40.5,87.5C 39.8333,87.5 39.5,87.1667 39.5,86.5C 39.7148,84.8212 39.0481,83.8212 37.5,83.5C 37.5774,82.2502 38.244,81.4169 39.5,81C 38.7562,79.9614 37.7562,79.4614 36.5,79.5C 35.8333,79.5 35.5,79.1667 35.5,78.5C 34.7327,73.1318 33.3994,68.1318 31.5,63.5C 31.1936,60.6146 31.5269,57.9479 32.5,55.5C 34.9763,52.7118 35.9763,49.3785 35.5,45.5C 36.1098,44.609 36.4431,43.609 36.5,42.5C 37.9063,42.0269 38.573,41.0269 38.5,39.5C 39.1667,39.5 39.5,39.1667 39.5,38.5C 41.0331,36.6452 42.6997,34.8119 44.5,33C 44.2716,32.6012 43.9382,32.4346 43.5,32.5C 43.5,31.8333 43.8333,31.5 44.5,31.5C 49.8416,29.4469 55.1749,26.6136 60.5,23C 61.8228,22.1841 62.4894,21.0174 62.5,19.5C 62.8333,19.5 63.1667,19.5 63.5,19.5C 70.0642,18.2347 76.7309,17.568 83.5,17.5 Z M 73.5,47.5 C 73.3691,48.3764 73.7025,49.0431 74.5,49.5C 78.2305,46.8131 81.7305,47.1465 85,50.5C 85.6708,49.7476 86.5041,49.4142 87.5,49.5C 87.5,50.8333 88.1667,51.5 89.5,51.5C 89.9976,54.0103 90.6643,56.5103 91.5,59C 90.4146,61.7891 90.4146,64.6225 91.5,67.5C 91.5,67.8333 91.5,68.1667 91.5,68.5C 90.0937,68.9731 89.427,69.9731 89.5,71.5C 88.5084,71.3284 87.8417,71.6618 87.5,72.5C 85.9657,71.7971 84.299,71.9637 82.5,73C 81.7476,73.6708 81.4142,74.5041 81.5,75.5C 77.7878,75.0392 74.1211,74.3725 70.5,73.5C 70.1667,73.5 69.8333,73.5 69.5,73.5C 69.4142,72.5041 69.7476,71.6708 70.5,71C 68.5724,67.9297 66.5724,65.763 64.5,64.5C 63.1667,62.5 63.1667,60.5 64.5,58.5C 65.2341,57.2921 65.5674,55.9587 65.5,54.5C 67.8333,52.8333 69.8333,50.8333 71.5,48.5C 71.8417,47.6618 72.5084,47.3284 73.5,47.5 Z"/></g>
<g><path style="opacity:1" fill="#e4fafc" d="M 93.5,5.5 C 97.8655,4.74908 101.199,6.08242 103.5,9.5C 99.8512,8.73328 96.5178,7.39994 93.5,5.5 Z"/></g>
<g><path style="opacity:1" fill="#e6faf9" d="M 63.5,5.5 C 57.142,7.26315 51.142,9.92982 45.5,13.5C 45.5743,11.5891 46.5743,10.4224 48.5,10C 48.1667,9.66667 47.8333,9.33333 47.5,9C 48.8544,7.70631 50.1877,7.53964 51.5,8.5C 55.1807,6.24649 59.1807,5.24649 63.5,5.5 Z"/></g>
<g><path style="opacity:1" fill="#dff3fc" d="M 103.5,9.5 C 105.483,9.15684 106.817,9.82351 107.5,11.5C 105.847,11.3404 104.514,10.6737 103.5,9.5 Z"/></g>
<g><path style="opacity:1" fill="#ecfcf8" d="M 111.5,13.5 C 109.847,13.3404 108.514,12.6737 107.5,11.5C 109.074,11.0629 110.241,10.0629 111,8.5C 111.494,10.1341 111.66,11.8008 111.5,13.5 Z"/></g>
<g><path style="opacity:0.596" fill="#fff3eb" d="M 35.5,16.5 C 35.8966,15.475 36.5632,15.3083 37.5,16C 36.9056,16.4643 36.2389,16.631 35.5,16.5 Z"/></g>
<g><path style="opacity:1" fill="#ecfefe" d="M 40.5,16.5 C 39.8333,15.1667 39.8333,15.1667 40.5,16.5 Z"/></g>
<g><path style="opacity:0.495" fill="#e7fcfe" d="M 83.5,17.5 C 76.7309,17.568 70.0642,18.2347 63.5,19.5C 65.8337,18.8763 68.1671,18.043 70.5,17C 75.0204,16.1864 79.3537,16.353 83.5,17.5 Z"/></g>
<g><path style="opacity:1" fill="#e8fcf5" d="M 118.5,17.5 C 119.833,18.1667 119.833,18.1667 118.5,17.5 Z"/></g>
<g><path style="opacity:0.569" fill="#f1efec" d="M 32.5,18.5 C 33.8333,19.1667 33.8333,19.1667 32.5,18.5 Z"/></g>
<g><path style="opacity:1" fill="#d4f1fb" d="M 39.5,18.5 C 37.1667,21.5 34.5,24.1667 31.5,26.5C 31.3505,25.448 31.5172,24.448 32,23.5C 34.1281,21.1929 36.6281,19.5262 39.5,18.5 Z"/></g>
<g><path style="opacity:0.902" fill="#ecf5fe" d="M 120.5,19.5 C 121.833,20.1667 121.833,20.1667 120.5,19.5 Z"/></g>
<g><path style="opacity:1" fill="#eaf3fe" d="M 122.5,21.5 C 123.833,22.1667 123.833,22.1667 122.5,21.5 Z"/></g>
<g><path style="opacity:1" fill="#fefeee" d="M 125.5,22.5 C 126.077,21.2267 126.743,21.2267 127.5,22.5C 127.03,23.463 126.363,23.463 125.5,22.5 Z"/></g>
<g><path style="opacity:0.82" fill="#e9f7fc" d="M 85.5,17.5 C 89.5036,18.2236 93.5036,19.0569 97.5,20C 100.796,21.9955 104.13,23.9955 107.5,26C 108.71,27.0391 109.71,28.2058 110.5,29.5C 108.857,29.5198 107.524,28.8532 106.5,27.5C 105.914,27.7093 105.414,28.0426 105,28.5C 99.0718,21.9875 91.9052,18.8209 83.5,19C 84.4158,18.7216 85.0825,18.2216 85.5,17.5 Z"/></g>
<g><path style="opacity:1" fill="#f4ece9" d="M 125.5,24.5 C 126.833,25.1667 126.833,25.1667 125.5,24.5 Z"/></g>
<g><path style="opacity:0.7" fill="#f9feee" d="M 27.5,27.5 C 26.5,27.5 25.5,27.5 24.5,27.5C 26.1927,24.038 27.1927,24.038 27.5,27.5 Z"/></g>
<g><path style="opacity:1" fill="#e4f0fc" d="M 29.5,25.5 C 30.8333,26.1667 30.8333,26.1667 29.5,25.5 Z"/></g>
<g><path style="opacity:0.612" fill="#eaf7fd" d="M 62.5,19.5 C 62.4894,21.0174 61.8228,22.1841 60.5,23C 55.1749,26.6136 49.8416,29.4469 44.5,31.5C 49.1023,25.3207 55.1023,21.3207 62.5,19.5 Z"/></g>
<g><path style="opacity:0.067" fill="#fcfeee" d="M 24.5,27.5 C 24.5,27.8333 24.5,28.1667 24.5,28.5C 23.8299,28.0187 23.8299,27.6853 24.5,27.5 Z"/></g>
<g><path style="opacity:0.175" fill="#fefbfe" d="M 67.5,27.5 C 69.337,27.6395 69.6704,28.3061 68.5,29.5C 67.7025,29.0431 67.3691,28.3764 67.5,27.5 Z"/></g>
<g><path style="opacity:0.925" fill="#fbfded" d="M 24.5,28.5 C 25.8333,29.1667 25.8333,29.1667 24.5,28.5 Z"/></g>
<g><path style="opacity:1" fill="#e1f5ff" d="M 27.5,27.5 C 28.5,27.5 29.5,27.5 30.5,27.5C 30.2624,29.4044 29.2624,30.7377 27.5,31.5C 27.5,30.1667 27.5,28.8333 27.5,27.5 Z"/></g>
<g><path style="opacity:1" fill="#e9f6fd" d="M 25.5,30.5 C 26.8333,31.1667 26.8333,31.1667 25.5,30.5 Z"/></g>
<g><path style="opacity:0.654" fill="#e4fcfe" d="M 81.5,34.5 C 77.4338,34.307 73.4338,34.6403 69.5,35.5C 71.7944,33.6091 74.6278,32.6091 78,32.5C 79.6991,32.3866 80.8658,33.0532 81.5,34.5 Z"/></g>
<g><path style="opacity:0.836" fill="#e3f4fc" d="M 91.5,37.5 C 89.1761,36.3443 86.8428,35.3443 84.5,34.5C 87.3557,33.1017 90.0223,33.6017 92.5,36C 91.944,36.3826 91.6107,36.8826 91.5,37.5 Z"/></g>
<g><path style="opacity:0.367" fill="#fffdeb" d="M 21.5,39.5 C 20.4017,38.3991 20.235,37.0657 21,35.5C 21.49,36.7932 21.6567,38.1266 21.5,39.5 Z"/></g>
<g><path style="opacity:1" fill="#ddfaff" d="M 25.5,35.5 C 25.0113,36.9952 24.3446,38.3285 23.5,39.5C 23.1568,37.5168 23.8235,36.1834 25.5,35.5 Z"/></g>
<g><path style="opacity:0.997" fill="#3a98fb" d="M 81.5,34.5 C 82.5,34.5 83.5,34.5 84.5,34.5C 86.8428,35.3443 89.1761,36.3443 91.5,37.5C 91.8333,37.5 92.1667,37.5 92.5,37.5C 93.2905,38.4013 94.2905,39.0679 95.5,39.5C 95.8333,39.5 96.1667,39.5 96.5,39.5C 98.8406,42.8385 101.174,46.1719 103.5,49.5C 103.328,50.4916 103.662,51.1583 104.5,51.5C 104.216,53.4147 104.549,55.0813 105.5,56.5C 105.5,57.1667 105.833,57.5 106.5,57.5C 106.167,60.1667 105.833,62.8333 105.5,65.5C 105.5,65.8333 105.5,66.1667 105.5,66.5C 104.549,67.9187 104.216,69.5853 104.5,71.5C 103.833,71.5 103.5,71.8333 103.5,72.5C 95.9742,85.5873 84.6409,90.5873 69.5,87.5C 58.6904,83.2541 52.6904,75.2541 51.5,63.5C 51.5,60.8333 51.5,58.1667 51.5,55.5C 52.3705,52.997 53.0372,50.3303 53.5,47.5C 57.9475,42.7095 62.9475,38.7095 68.5,35.5C 68.8333,35.5 69.1667,35.5 69.5,35.5C 73.4338,34.6403 77.4338,34.307 81.5,34.5 Z M 73.5,47.5 C 73.3691,48.3764 73.7025,49.0431 74.5,49.5C 78.2305,46.8131 81.7305,47.1465 85,50.5C 85.6708,49.7476 86.5041,49.4142 87.5,49.5C 87.5,50.8333 88.1667,51.5 89.5,51.5C 89.9976,54.0103 90.6643,56.5103 91.5,59C 90.4146,61.7891 90.4146,64.6225 91.5,67.5C 91.5,67.8333 91.5,68.1667 91.5,68.5C 90.0937,68.9731 89.427,69.9731 89.5,71.5C 88.5084,71.3284 87.8417,71.6618 87.5,72.5C 85.9657,71.7971 84.299,71.9637 82.5,73C 81.7476,73.6708 81.4142,74.5041 81.5,75.5C 77.7878,75.0392 74.1211,74.3725 70.5,73.5C 70.1667,73.5 69.8333,73.5 69.5,73.5C 69.4142,72.5041 69.7476,71.6708 70.5,71C 68.5724,67.9297 66.5724,65.763 64.5,64.5C 63.1667,62.5 63.1667,60.5 64.5,58.5C 65.2341,57.2921 65.5674,55.9587 65.5,54.5C 67.8333,52.8333 69.8333,50.8333 71.5,48.5C 71.8417,47.6618 72.5084,47.3284 73.5,47.5 Z"/></g>
<g><path style="opacity:0.757" fill="#e4f5f6" d="M 113.5,32.5 C 115.207,33.8726 116.54,35.5393 117.5,37.5C 116.504,37.4142 115.671,37.7476 115,38.5C 114.163,36.6494 113.329,34.8161 112.5,33C 112.728,32.6012 113.062,32.4346 113.5,32.5 Z"/></g>
<g><path style="opacity:1" fill="#e6fbfb" d="M 129.5,31.5 C 130.978,31.238 132.311,31.5713 133.5,32.5C 132.975,33.1924 132.308,33.6924 131.5,34C 132.869,35.7189 133.869,37.5522 134.5,39.5C 135.341,41.3792 135.675,43.3792 135.5,45.5C 133.327,41.0034 131.327,36.3368 129.5,31.5 Z"/></g>
<g><path style="opacity:0.125" fill="#d5f2fc" d="M 43.5,32.5 C 43.9382,32.4346 44.2716,32.6012 44.5,33C 42.6997,34.8119 41.0331,36.6452 39.5,38.5C 39.6225,35.7079 40.9558,33.7079 43.5,32.5 Z"/></g>
<g><path style="opacity:0.531" fill="#e0f4fd" d="M 68.5,35.5 C 62.9475,38.7095 57.9475,42.7095 53.5,47.5C 53.238,46.0222 53.5713,44.6888 54.5,43.5C 56.731,41.8903 58.731,40.057 60.5,38C 62.7732,36.3246 65.2732,35.158 68,34.5C 68.3988,34.7284 68.5654,35.0618 68.5,35.5 Z"/></g>
<g><path style="opacity:0.963" fill="#bfecff" d="M 92.5,37.5 C 94.1788,37.2852 95.1788,37.9519 95.5,39.5C 94.2905,39.0679 93.2905,38.4013 92.5,37.5 Z"/></g>
<g><path style="opacity:1" fill="#dff0ff" d="M 117.5,37.5 C 118.674,38.5137 119.34,39.847 119.5,41.5C 117.824,40.8166 117.157,39.4832 117.5,37.5 Z"/></g>
<g><path style="opacity:1" fill="#f6fded" d="M 134.5,39.5 C 134.369,38.7611 134.536,38.0944 135,37.5C 135.692,38.4368 135.525,39.1034 134.5,39.5 Z"/></g>
<g><path style="opacity:1" fill="#e8fff1" d="M 21.5,39.5 C 22.1667,39.5 22.5,39.8333 22.5,40.5C 22.1667,40.1667 21.8333,39.8333 21.5,39.5 Z"/></g>
<g><path style="opacity:0.403" fill="#fefbfe" d="M 45.5,39.5 C 45.5,40.8333 44.8333,41.5 43.5,41.5C 43.8333,40.5 44.5,39.8333 45.5,39.5 Z"/></g>
<g><path style="opacity:0.475" fill="#d7f5ff" d="M 38.5,39.5 C 38.573,41.0269 37.9063,42.0269 36.5,42.5C 36.427,40.9731 37.0937,39.9731 38.5,39.5 Z"/></g>
<g><path style="opacity:0.902" fill="#e8fcfa" d="M 96.5,39.5 C 100.11,42.1184 103.11,45.4517 105.5,49.5C 105.03,50.463 104.363,50.463 103.5,49.5C 101.174,46.1719 98.8406,42.8385 96.5,39.5 Z"/></g>
<g><path style="opacity:0.565" fill="#e3faff" d="M 119.5,41.5 C 121.008,43.1815 122.008,45.1815 122.5,47.5C 120.031,46.3933 119.031,44.3933 119.5,41.5 Z"/></g>
<g><path style="opacity:0.463" fill="#f3fceb" d="M 20.5,45.5 C 20.8016,48.0593 20.4682,50.3926 19.5,52.5C 17.3899,49.1746 17.2233,45.8413 19,42.5C 19.2321,43.7375 19.7321,44.7375 20.5,45.5 Z"/></g>
<g><path style="opacity:0.981" fill="#d5f3fc" d="M 136.5,47.5 C 137.376,47.3691 138.043,47.7025 138.5,48.5C 137.626,50.7466 137.292,53.0799 137.5,55.5C 136.527,53.0521 136.194,50.3854 136.5,47.5 Z"/></g>
<g><path style="opacity:0.784" fill="#e3f7f5" d="M 87.5,49.5 C 86.5041,49.4142 85.6708,49.7476 85,50.5C 81.7305,47.1465 78.2305,46.8131 74.5,49.5C 73.7025,49.0431 73.3691,48.3764 73.5,47.5C 78.3833,45.3191 83.05,45.9858 87.5,49.5 Z"/></g>
<g><path style="opacity:0.477" fill="#e3fbff" d="M 35.5,45.5 C 35.9763,49.3785 34.9763,52.7118 32.5,55.5C 32.0237,51.6215 33.0237,48.2882 35.5,45.5 Z"/></g>
<g><path style="opacity:0.986" fill="#daf4ff" d="M 53.5,47.5 C 53.0372,50.3303 52.3705,52.997 51.5,55.5C 50.9644,52.3019 51.631,49.6353 53.5,47.5 Z"/></g>
<g><path style="opacity:1" fill="#c8e4f4" d="M 87.5,49.5 C 88.8333,49.5 89.5,50.1667 89.5,51.5C 89.5,50.1667 88.8333,49.5 87.5,49.5 Z"/></g>
<g><path style="opacity:0.475" fill="#dff8ff" d="M 71.5,48.5 C 69.8333,50.8333 67.8333,52.8333 65.5,54.5C 66.5,51.5 68.5,49.5 71.5,48.5 Z"/></g>
<g><path style="opacity:0.951" fill="#f7f9fd" d="M 48.5,52.5 C 51.199,55.2721 50.8656,55.7721 47.5,54C 48.056,53.6174 48.3893,53.1174 48.5,52.5 Z"/></g>
<g><path style="opacity:1" fill="#c4e1ff" d="M 104.5,51.5 C 105.928,53.0741 106.261,54.7408 105.5,56.5C 104.549,55.0813 104.216,53.4147 104.5,51.5 Z"/></g>
<g><path style="opacity:1" fill="#a0c8f3" d="M 65.5,54.5 C 65.5674,55.9587 65.2341,57.2921 64.5,58.5C 63.1472,56.8716 63.4805,55.5383 65.5,54.5 Z"/></g>
<g><path style="opacity:0.668" fill="#d9f5fd" d="M 89.5,51.5 C 93.7832,56.432 94.4499,61.7653 91.5,67.5C 90.4146,64.6225 90.4146,61.7891 91.5,59C 90.6643,56.5103 89.9976,54.0103 89.5,51.5 Z"/></g>
<g><path style="opacity:0.223" fill="#fafeeb" d="M 16.5,59.5 C 17.5983,60.6009 17.765,61.9343 17,63.5C 16.51,62.2068 16.3433,60.8734 16.5,59.5 Z"/></g>
<g><path style="opacity:0.651" fill="#e6f0ff" d="M 106.5,57.5 C 107.156,58.6216 107.489,59.9549 107.5,61.5C 107.415,63.3328 106.748,64.6661 105.5,65.5C 105.833,62.8333 106.167,60.1667 106.5,57.5 Z"/></g>
<g><path style="opacity:1" fill="#a4cff9" d="M 137.5,61.5 C 140.167,62.8333 140.167,64.1667 137.5,65.5C 137.5,64.1667 137.5,62.8333 137.5,61.5 Z"/></g>
<g><path style="opacity:1" fill="#d5f1ff" d="M 105.5,66.5 C 105.938,66.4346 106.272,66.6012 106.5,67C 105.901,68.6225 105.234,70.1225 104.5,71.5C 104.216,69.5853 104.549,67.9187 105.5,66.5 Z"/></g>
<g><path style="opacity:0.778" fill="#e8f8fc" d="M 64.5,64.5 C 66.5724,65.763 68.5724,67.9297 70.5,71C 69.7476,71.6708 69.4142,72.5041 69.5,73.5C 66.5278,71.2219 64.8611,68.2219 64.5,64.5 Z"/></g>
<g><path style="opacity:0.135" fill="#fff9ff" d="M 111.5,67.5 C 113.859,68.3887 114.025,69.722 112,71.5C 111.51,70.2068 111.343,68.8734 111.5,67.5 Z"/></g>
<g><path style="opacity:1" fill="#b5c8fa" d="M 91.5,68.5 C 91.573,70.0269 90.9063,71.0269 89.5,71.5C 89.427,69.9731 90.0937,68.9731 91.5,68.5 Z"/></g>
<g><path style="opacity:0.598" fill="#e1f8fe" d="M 70.5,73.5 C 74.1211,74.3725 77.7878,75.0392 81.5,75.5C 79.3718,76.6291 77.0385,76.7958 74.5,76C 72.6803,75.7996 71.347,74.9663 70.5,73.5 Z"/></g>
<g><path style="opacity:0.937" fill="#e9fafd" d="M 87.5,72.5 C 86.089,74.539 84.089,75.539 81.5,75.5C 81.4142,74.5041 81.7476,73.6708 82.5,73C 84.299,71.9637 85.9657,71.7971 87.5,72.5 Z"/></g>
<g><path style="opacity:1" fill="#9ecbf3" d="M 19.5,71.5 C 21.2227,73.78 21.8893,76.4467 21.5,79.5C 19.9605,77.1617 19.2938,74.4951 19.5,71.5 Z"/></g>
<g><path style="opacity:0.255" fill="#ecfaff" d="M 31.5,63.5 C 33.3994,68.1318 34.7327,73.1318 35.5,78.5C 32.8871,74.014 31.5538,69.014 31.5,63.5 Z"/></g>
<g><path style="opacity:0.505" fill="#f3fafe" d="M 124.5,67.5 C 123.703,72.8623 122.036,77.8623 119.5,82.5C 118.903,82.2648 118.57,81.7648 118.5,81C 120.161,76.1923 122.161,71.6923 124.5,67.5 Z"/></g>
<g><path style="opacity:0.294" fill="#fef6fa" d="M 109.5,77.5 C 111.337,77.6395 111.67,78.3061 110.5,79.5C 109.702,79.0431 109.369,78.3764 109.5,77.5 Z"/></g>
<g><path style="opacity:1" fill="#defbf8" d="M 137.5,70.5 C 138.055,74.0122 137.388,77.0122 135.5,79.5C 135.99,76.3447 136.656,73.3447 137.5,70.5 Z"/></g>
<g><path style="opacity:0.951" fill="#eefdf2" d="M 36.5,79.5 C 37.7562,79.4614 38.7562,79.9614 39.5,81C 38.244,81.4169 37.5774,82.2502 37.5,83.5C 36.5655,82.4324 36.2322,81.099 36.5,79.5 Z"/></g>
<g><path style="opacity:0.612" fill="#eaf9fc" d="M 51.5,63.5 C 52.6904,75.2541 58.6904,83.2541 69.5,87.5C 66.7531,87.8134 64.0865,87.48 61.5,86.5C 58.9255,83.3467 55.9255,80.6801 52.5,78.5C 51.1447,74.195 50.1447,70.195 49.5,66.5C 49.6399,64.9704 50.3065,63.9704 51.5,63.5 Z"/></g>
<g><path style="opacity:1" fill="#ecfbfe" d="M 134.5,82.5 C 135.833,83.1667 135.833,83.1667 134.5,82.5 Z"/></g>
<g><path style="opacity:1" fill="#e1fdff" d="M 37.5,83.5 C 39.0481,83.8212 39.7148,84.8212 39.5,86.5C 38.0937,86.0269 37.427,85.0269 37.5,83.5 Z"/></g>
<g><path style="opacity:1" fill="#e3f6fb" d="M 133.5,83.5 C 133.5,85.1667 133.5,86.8333 133.5,88.5C 132.094,88.9731 131.427,89.9731 131.5,91.5C 130.833,91.5 130.167,91.5 129.5,91.5C 130.65,88.7018 131.983,86.0352 133.5,83.5 Z"/></g>
<g><path style="opacity:1" fill="#e8f8fb" d="M 103.5,72.5 C 103.662,74.5273 103.495,76.5273 103,78.5C 102.667,78.1667 102.333,77.8333 102,77.5C 101.691,78.7659 101.191,79.9326 100.5,81C 96.3378,83.8269 92.1712,86.6602 88,89.5C 85.8984,89.6369 83.7317,89.9703 81.5,90.5C 82.0253,91.1924 82.6919,91.6924 83.5,92C 80.8333,92.6667 78.1667,92.6667 75.5,92C 77.2556,91.7978 78.9223,91.2978 80.5,90.5C 76.411,90.1119 72.7443,89.1119 69.5,87.5C 84.6409,90.5873 95.9742,85.5873 103.5,72.5 Z"/></g>
<g><path style="opacity:1" fill="#fcfaee" d="M 133.5,88.5 C 134.833,89.1667 134.833,89.1667 133.5,88.5 Z"/></g>
<g><path style="opacity:1" fill="#d4eeff" d="M 25.5,88.5 C 26.4013,89.2905 27.0679,90.2905 27.5,91.5C 25.9519,91.1788 25.2852,90.1788 25.5,88.5 Z"/></g>
<g><path style="opacity:0.573" fill="#fff9ff" d="M 64.5,90.5 C 65.3864,89.2241 66.3864,89.2241 67.5,90.5C 66.7666,91.087 65.7666,91.087 64.5,90.5 Z"/></g>
<g><path style="opacity:0.951" fill="#e5f8fc" d="M 117.5,87.5 C 116.126,89.8583 114.793,92.1917 113.5,94.5C 113.124,91.0771 114.457,88.7438 117.5,87.5 Z"/></g>
<g><path style="opacity:1" fill="#dbf5fc" d="M 40.5,87.5 C 42.2927,89.4261 43.2927,91.7594 43.5,94.5C 41.1663,92.8243 40.1663,90.491 40.5,87.5 Z"/></g>
<g><path style="opacity:1" fill="#feeeec" d="M 131.5,91.5 C 132.833,92.1667 132.833,92.1667 131.5,91.5 Z"/></g>
<g><path style="opacity:0.835" fill="#f9f4ff" d="M 45.5,97.5 C 44.6618,97.1583 44.3284,96.4916 44.5,95.5C 45.2679,94.7375 45.7679,93.7375 46,92.5C 49.1682,94.4989 49.0015,96.1655 45.5,97.5 Z"/></g>
<g><path style="opacity:1" fill="#e7f8fe" d="M 27.5,92.5 C 28.3446,93.6715 29.0113,95.0048 29.5,96.5C 28.7784,96.9175 28.2784,97.5842 28,98.5C 26.5585,96.6951 26.3918,94.6951 27.5,92.5 Z"/></g>
<g><path style="opacity:1" fill="#fafbe9" d="M 112.5,95.5 C 111.833,96.5 111.167,97.5 110.5,98.5C 109.522,98.189 108.855,97.5223 108.5,96.5C 109.689,95.5713 111.022,95.238 112.5,95.5 Z"/></g>
<g><path style="opacity:1" fill="#e4f0fa" d="M 45.5,98.5 C 46.8333,98.5 47.5,99.1667 47.5,100.5C 46.5,100.167 45.8333,99.5 45.5,98.5 Z"/></g>
<g><path style="opacity:1" fill="#eef4fa" d="M 27.5,99.5 C 28.8333,100.167 28.8333,100.167 27.5,99.5 Z"/></g>
<g><path style="opacity:1" fill="#e8f3ff" d="M 30.5,98.5 C 30.631,99.2389 30.4643,99.9056 30,100.5C 29.3083,99.5632 29.475,98.8966 30.5,98.5 Z"/></g>
<g><path style="opacity:0.856" fill="#e5fafe" d="M 110.5,99.5 C 109.488,100.872 108.488,102.205 107.5,103.5C 107.5,102.167 107.5,100.833 107.5,99.5C 108.5,99.5 109.5,99.5 110.5,99.5 Z"/></g>
<g><path style="opacity:1" fill="#e7fafa" d="M 127.5,96.5 C 127.509,98.3084 127.009,99.9751 126,101.5C 125.31,102.738 124.81,102.738 124.5,101.5C 124.75,99.326 125.75,97.6594 127.5,96.5 Z"/></g>
<g><path style="opacity:0.463" fill="#f3f1ee" d="M 25.5,101.5 C 26.8333,102.167 26.8333,102.167 25.5,101.5 Z"/></g>
<g><path style="opacity:1" fill="#edfefe" d="M 32.5,102.5 C 31.8333,103.167 31.8333,103.167 32.5,102.5 Z"/></g>
<g><path style="opacity:0.717" fill="#fffafe" d="M 53.5,103.5 C 54.8917,102.478 56.225,102.811 57.5,104.5C 57.1667,104.833 56.8333,105.167 56.5,105.5C 55.4822,104.807 54.4822,104.141 53.5,103.5 Z"/></g>
<g><path style="opacity:1" fill="#fefaed" d="M 125.5,105.5 C 124.475,105.103 124.308,104.437 125,103.5C 125.464,104.094 125.631,104.761 125.5,105.5 Z"/></g>
<g><path style="opacity:1" fill="#e8f9fd" d="M 107.5,103.5 C 106.92,105.749 105.587,107.415 103.5,108.5C 103.062,108.565 102.728,108.399 102.5,108C 103.313,106.686 104.313,105.519 105.5,104.5C 104.544,102.3 105.21,101.967 107.5,103.5 Z"/></g>
<g><path style="opacity:0.549" fill="#f3f2eb" d="M 125.5,105.5 C 126.833,106.167 126.833,106.167 125.5,105.5 Z"/></g>
<g><path style="opacity:1" fill="#e5f8fd" d="M 48.5,101.5 C 49.2216,101.918 49.7216,102.584 50,103.5C 50.3333,102.833 50.6667,102.167 51,101.5C 54.0047,108.174 57.8381,114.34 62.5,120C 62.2716,120.399 61.9382,120.565 61.5,120.5C 58.2707,116.088 54.7707,111.754 51,107.5C 49.4412,105.783 48.6079,103.783 48.5,101.5 Z"/></g>
<g><path style="opacity:0.902" fill="#ebf8f8" d="M 33.5,103.5 C 35.9501,105.629 37.6167,108.296 38.5,111.5C 35.167,109.841 33.5003,107.175 33.5,103.5 Z"/></g>
<g><path style="opacity:1" fill="#eaf9f1" d="M 122.5,104.5 C 123.776,105.386 123.776,106.386 122.5,107.5C 121.787,109.435 120.787,109.768 119.5,108.5C 120.5,107.167 121.5,105.833 122.5,104.5 Z"/></g>
<g><path style="opacity:0.157" fill="#f8ffee" d="M 122.5,108.5 C 123.833,109.167 123.833,109.167 122.5,108.5 Z"/></g>
<g><path style="opacity:0.802" fill="#e8f8fc" d="M 102.5,110.5 C 101.92,112.749 100.587,114.415 98.5,115.5C 98.6696,112.796 100.003,111.129 102.5,110.5 Z"/></g>
<g><path style="opacity:1" fill="#fdf7fe" d="M 62.5,112.5 C 63.625,113.652 63.625,114.652 62.5,115.5C 61.375,114.348 61.375,113.348 62.5,112.5 Z"/></g>
<g><path style="opacity:1" fill="#e1faff" d="M 117.5,112.5 C 117.657,113.873 117.49,115.207 117,116.5C 116.667,116.167 116.333,115.833 116,115.5C 115.583,116.756 114.75,117.423 113.5,117.5C 114.124,115.246 115.457,113.579 117.5,112.5 Z"/></g>
<g><path style="opacity:1" fill="#dff9fe" d="M 39.5,112.5 C 40.9063,112.973 41.573,113.973 41.5,115.5C 39.9519,115.179 39.2852,114.179 39.5,112.5 Z"/></g>
<g><path style="opacity:1" fill="#bdd3ed" d="M 41.5,115.5 C 42.8333,115.5 43.5,116.167 43.5,117.5C 41.7973,118.66 41.1307,117.993 41.5,115.5 Z"/></g>
<g><path style="opacity:1" fill="#eaf7fa" d="M 98.5,115.5 C 98.2503,117.674 97.2503,119.341 95.5,120.5C 95.2729,118.067 96.2729,116.401 98.5,115.5 Z"/></g>
<g><path style="opacity:1" fill="#ddf3fc" d="M 113.5,117.5 C 115.031,118.925 114.698,119.591 112.5,119.5C 112.328,118.508 112.662,117.842 113.5,117.5 Z"/></g>
<g><path style="opacity:0.914" fill="#ddf2f9" d="M 43.5,118.5 C 45.5869,119.585 46.9202,121.251 47.5,123.5C 45.7313,122.579 44.0646,121.412 42.5,120C 43.056,119.617 43.3893,119.117 43.5,118.5 Z"/></g>
<g><path style="opacity:1" fill="#eaf9fe" d="M 62.5,121.5 C 65.3385,122.321 67.6719,123.987 69.5,126.5C 68.7573,127.182 68.0906,127.849 67.5,128.5C 65.6002,126.381 63.9336,124.047 62.5,121.5 Z"/></g>
<g><path style="opacity:1" fill="#e8f8fd" d="M 94.5,121.5 C 91.8482,125.482 88.8482,129.149 85.5,132.5C 86.5749,128.604 88.5749,125.271 91.5,122.5C 92.325,121.614 93.325,121.281 94.5,121.5 Z"/></g>
<g><path style="opacity:1" fill="#e4f4fb" d="M 110.5,121.5 C 110.611,122.117 110.944,122.617 111.5,123C 110.167,124.333 108.833,125.667 107.5,127C 107.833,127.333 108.167,127.667 108.5,128C 107.211,129.802 105.544,130.969 103.5,131.5C 105.344,127.808 107.677,124.475 110.5,121.5 Z"/></g>
<g><path style="opacity:1" fill="#fef8fe" d="M 83.5,129.5 C 83.5,130.833 82.8333,131.5 81.5,131.5C 81.5,130.167 82.1667,129.5 83.5,129.5 Z"/></g>
<g><path style="opacity:0.204" fill="#f5eefe" d="M 106.5,131.5 C 107.833,132.167 107.833,132.167 106.5,131.5 Z"/></g>
<g><path style="opacity:1" fill="#c6e4f1" d="M 103.5,131.5 C 103.5,132.833 102.833,133.5 101.5,133.5C 101.5,132.167 102.167,131.5 103.5,131.5 Z"/></g>
<g><path style="opacity:0.801" fill="#eef9f0" d="M 47.5,123.5 C 51.1737,126.861 54.1737,130.861 56.5,135.5C 56.1788,137.048 55.1788,137.715 53.5,137.5C 52.0741,135.5 51.2408,132.834 51,129.5C 49.984,128.366 49.3173,128.699 49,130.5C 48.2155,128.714 47.0488,127.214 45.5,126C 46.756,125.583 47.4226,124.75 47.5,123.5 Z"/></g>
<g><path style="opacity:0.263" fill="#f9ebfc" d="M 105.5,133.5 C 106.833,134.167 106.833,134.167 105.5,133.5 Z"/></g>
<g><path style="opacity:1" fill="#f3faf4" d="M 68.5,129.5 C 69.8734,129.343 71.2068,129.51 72.5,130C 74.5463,132.903 77.213,134.736 80.5,135.5C 80.5,134.167 80.5,132.833 80.5,131.5C 80.8333,131.5 81.1667,131.5 81.5,131.5C 81.2322,133.099 81.5655,134.432 82.5,135.5C 82.2427,138.258 80.7427,139.925 78,140.5C 75.021,136.687 71.8544,133.02 68.5,129.5 Z"/></g>
<g><path style="opacity:0.443" fill="#fefdee" d="M 47.5,135.5 C 48.525,135.897 48.6917,136.563 48,137.5C 47.5357,136.906 47.369,136.239 47.5,135.5 Z"/></g>
<g><path style="opacity:1" fill="#e7fafd" d="M 100.5,136.5 C 101.833,137.167 101.833,137.167 100.5,136.5 Z"/></g>
<g><path style="opacity:1" fill="#ebfaf7" d="M 99.5,136.5 C 100.677,138.103 100.511,139.436 99,140.5C 98.6667,140.167 98.3333,139.833 98,139.5C 97.6457,142.914 95.8123,144.914 92.5,145.5C 93.6894,141.64 96.0227,138.64 99.5,136.5 Z"/></g>
<g><path style="opacity:1" fill="#ddf3fb" d="M 59.5,138.5 C 61.0627,139.945 62.396,141.611 63.5,143.5C 61.9382,143.267 60.6049,142.6 59.5,141.5C 58.1667,140.5 58.1667,139.5 59.5,138.5 Z"/></g>
<g><path style="opacity:0.925" fill="#f3feea" d="M 59.5,141.5 C 59.4827,143.028 58.816,143.528 57.5,143C 58.0442,142.283 58.7109,141.783 59.5,141.5 Z"/></g>
<g><path style="opacity:1" fill="#f5fbf7" d="M 65.5,146.5 C 66.8333,147.167 67.8333,148.167 68.5,149.5C 67.8485,150.091 67.1818,150.757 66.5,151.5C 65.6184,150.24 64.6184,149.074 63.5,148C 64.0442,147.283 64.7109,146.783 65.5,146.5 Z"/></g>
<g><path style="opacity:0.685" fill="#fcfbe8" d="M 91.5,147.5 C 93.0481,147.821 93.7148,148.821 93.5,150.5C 92.8333,150.167 92.1667,149.833 91.5,149.5C 91.5,148.833 91.5,148.167 91.5,147.5 Z"/></g>
<g><path style="opacity:1" fill="#faf7eb" d="M 91.5,149.5 C 90.8333,150.167 90.8333,150.167 91.5,149.5 Z"/></g>
<g><path style="opacity:0.365" fill="#f6f7ea" d="M 94.5,149.5 C 95.8333,150.167 95.8333,150.167 94.5,149.5 Z"/></g>
<g><path style="opacity:0.973" fill="#ebecdf" d="M 93.5,150.5 C 93.8333,150.5 94.1667,150.5 94.5,150.5C 94.3147,151.17 93.9813,151.17 93.5,150.5 Z"/></g>
<g><path style="opacity:1" fill="#f2fef4" d="M 89.5,148.5 C 88.6371,149.94 88.6371,151.274 89.5,152.5C 89.1667,152.833 88.8333,153.167 88.5,153.5C 87.8182,152.757 87.1515,152.091 86.5,151.5C 87.1667,150.167 88.1667,149.167 89.5,148.5 Z"/></g>
<g><path style="opacity:1" fill="#daedfb" d="M 69.5,150.5 C 70.8333,151.167 71.8333,152.167 72.5,153.5C 70.5,153.5 69.5,152.5 69.5,150.5 Z"/></g>
<g><path style="opacity:0.027" fill="#ecfffc" d="M 64.5,153.5 C 65.8333,154.167 65.8333,154.167 64.5,153.5 Z"/></g>
<g><path style="opacity:1" fill="#e8f2fe" d="M 85.5,152.5 C 85.9382,152.435 86.2716,152.601 86.5,153C 85.7562,154.039 84.7562,154.539 83.5,154.5C 83.8333,153.5 84.5,152.833 85.5,152.5 Z"/></g>
<g><path style="opacity:1" fill="#daeaf9" d="M 72.5,153.5 C 73.8333,154.167 74.8333,155.167 75.5,156.5C 72.8049,156.437 71.8049,155.437 72.5,153.5 Z"/></g>
<g><path style="opacity:1" fill="#e6f6f7" d="M 82.5,155.5 C 82.9175,156.222 83.5842,156.722 84.5,157C 81.2274,160.397 78.2274,160.231 75.5,156.5C 77.9496,156.702 80.283,156.369 82.5,155.5 Z"/></g>
<g><path style="opacity:0.427" fill="#f2ffe8" d="M 68.5,157.5 C 69.8333,158.167 69.8333,158.167 68.5,157.5 Z"/></g>
<g><path style="opacity:1" fill="#eaffee" d="M 93.5,157.5 C 95.337,157.639 95.6704,158.306 94.5,159.5C 93.7025,159.043 93.3691,158.376 93.5,157.5 Z"/></g>
<g><path style="opacity:1" fill="#f4eafa" d="M 72.5,158.5 C 73.8333,159.167 73.8333,159.167 72.5,158.5 Z"/></g>
</svg>
