<?xml version="1.0" encoding="UTF-8"?>
<!DOCTYPE svg PUBLIC "-//W3C//DTD SVG 1.1//EN" "http://www.w3.org/Graphics/SVG/1.1/DTD/svg11.dtd">
<svg xmlns="http://www.w3.org/2000/svg" version="1.1" width="163px" height="163px" style="shape-rendering:geometricPrecision; text-rendering:geometricPrecision; image-rendering:optimizeQuality; fill-rule:evenodd; clip-rule:evenodd" xmlns:xlink="http://www.w3.org/1999/xlink">
<g><path style="opacity:1" fill="#3b98fa" d="M 74.5,5.5 C 113.698,5.36965 135.698,24.703 140.5,63.5C 140.343,70.7841 138.843,77.7841 136,84.5C 122.395,111.215 105.228,135.382 84.5,157C 82.5,157.667 80.5,157.667 78.5,157C 56.9304,135.025 39.4304,110.192 26,82.5C 17.313,49.5548 28.1464,25.3882 58.5,10C 63.8742,8.16036 69.2075,6.66036 74.5,5.5 Z M 72.5,17.5 C 101.253,15.4479 119.753,28.1146 128,55.5C 129.541,68.8892 126.541,81.2226 119,92.5C 107.815,110.181 95.3151,126.847 81.5,142.5C 63.357,123.514 48.5237,102.181 37,78.5C 30.2918,54.733 37.4585,36.233 58.5,23C 63.1587,20.8421 67.8254,19.0088 72.5,17.5 Z M 79.5,46.5 C 93.6625,48.1672 98.8292,55.8339 95,69.5C 87.0616,79.3249 78.395,79.9916 69,71.5C 63.4343,59.3644 66.9343,51.031 79.5,46.5 Z"/></g>
<g><path style="opacity:1" fill="#3a98fa" d="M 74.5,35.5 C 94.6307,33.5526 105.964,42.5526 108.5,62.5C 106.504,78.4963 97.5037,87.4963 81.5,89.5C 62.198,86.8924 53.3647,75.8924 55,56.5C 57.9138,46.0889 64.4138,39.0889 74.5,35.5 Z M 79.5,46.5 C 66.9343,51.031 63.4343,59.3644 69,71.5C 78.395,79.9916 87.0616,79.3249 95,69.5C 98.8292,55.8339 93.6625,48.1672 79.5,46.5 Z"/></g>
</svg>
