<?xml version="1.0" encoding="UTF-8"?>
<!DOCTYPE svg PUBLIC "-//W3C//DTD SVG 1.1//EN" "http://www.w3.org/Graphics/SVG/1.1/DTD/svg11.dtd">
<svg xmlns="http://www.w3.org/2000/svg" version="1.1" width="142px" height="184px" style="shape-rendering:geometricPrecision; text-rendering:geometricPrecision; image-rendering:optimizeQuality; fill-rule:evenodd; clip-rule:evenodd" xmlns:xlink="http://www.w3.org/1999/xlink">
<g><path style="opacity:0.129" fill="#fdffeb" d="M 31.5,10.5 C 32.8333,11.1667 32.8333,11.1667 31.5,10.5 Z"/></g>
<g><path style="opacity:1" fill="#eefffe" d="M 40.5,12.5 C 39.8333,11.1667 39.8333,11.1667 40.5,12.5 Z"/></g>
<g><path style="opacity:1" fill="#f2fde9" d="M 30.5,13.5 C 30.8966,12.475 31.5632,12.3083 32.5,13C 31.9056,13.4643 31.2389,13.631 30.5,13.5 Z"/></g>
<g><path style="opacity:0.975" fill="#ecfefd" d="M 46.5,13.5 C 44.5,13.5 42.5,13.5 40.5,13.5C 40.5,13.1667 40.5,12.8333 40.5,12.5C 42.2624,12.6427 43.9291,12.3094 45.5,11.5C 46.2975,11.9569 46.6309,12.6236 46.5,13.5 Z"/></g>
<g><path style="opacity:1" fill="#6b87be" d="M 40.5,13.5 C 42.5,13.5 44.5,13.5 46.5,13.5C 67.8359,13.3334 89.1693,13.5 110.5,14C 111.056,14.3826 111.389,14.8826 111.5,15.5C 84.8333,15.5 58.1667,15.5 31.5,15.5C 33.67,14.136 35.8367,13.136 38,12.5C 38.6708,13.2524 39.5041,13.5858 40.5,13.5 Z"/></g>
<g><path style="opacity:0.369" fill="#ebfcfe" d="M 27.5,16.5 C 26.8333,15.1667 26.8333,15.1667 27.5,16.5 Z"/></g>
<g><path style="opacity:1" fill="#3a99fc" d="M 31.5,15.5 C 58.1667,15.5 84.8333,15.5 111.5,15.5C 112.167,15.5 112.833,15.5 113.5,15.5C 114.579,17.543 116.246,18.8763 118.5,19.5C 119.5,19.8333 120.167,20.5 120.5,21.5C 120.427,23.0269 121.094,24.0269 122.5,24.5C 122.932,25.7095 123.599,26.7095 124.5,27.5C 124.5,28.1667 124.5,28.8333 124.5,29.5C 125.489,70.124 125.822,110.791 125.5,151.5C 124.89,152.391 124.557,153.391 124.5,154.5C 122.608,157.74 120.274,160.74 117.5,163.5C 117.5,163.833 117.5,164.167 117.5,164.5C 115.551,166.563 113.218,167.896 110.5,168.5C 83.8079,168.798 57.1412,168.465 30.5,167.5C 28.1401,165.147 25.4735,163.147 22.5,161.5C 21.5514,159.223 20.2181,157.223 18.5,155.5C 18.5,155.167 18.5,154.833 18.5,154.5C 17.1667,112.167 17.1667,69.8333 18.5,27.5C 20.7964,26.267 22.1298,24.267 22.5,21.5C 22.3893,20.8826 22.056,20.3826 21.5,20C 23.7065,19.0232 25.7065,17.8565 27.5,16.5C 28.7079,15.7659 30.0413,15.4326 31.5,15.5 Z M 94.5,25.5 C 94.62,26.5862 95.2867,27.2528 96.5,27.5C 97.7133,27.2528 98.38,26.5862 98.5,25.5C 100.099,25.2322 101.432,25.5655 102.5,26.5C 102.369,27.2389 102.536,27.9056 103,28.5C 104.356,27.6198 105.856,27.2865 107.5,27.5C 107.833,27.5 108.167,27.5 108.5,27.5C 108.833,29.8333 110.167,31.1667 112.5,31.5C 112.183,60.8773 112.516,90.2106 113.5,119.5C 86.0592,121.478 58.3925,122.145 30.5,121.5C 30.8128,117.958 30.4794,114.625 29.5,111.5C 29.5,90.1667 29.5,68.8333 29.5,47.5C 30.4872,42.6946 30.8205,37.6946 30.5,32.5C 31.5511,31.7777 32.2178,30.7777 32.5,29.5C 35.0631,28.9117 37.3964,27.9117 39.5,26.5C 57.7569,25.5138 76.0902,25.1804 94.5,25.5 Z M 110.5,135.5 C 112.237,139.934 112.904,144.601 112.5,149.5C 110.621,149.393 110.288,149.893 111.5,151C 110.934,151.995 110.267,152.828 109.5,153.5C 107.821,153.285 106.821,153.952 106.5,155.5C 85.3725,155.637 64.0392,155.47 42.5,155C 39.0713,153.602 35.738,153.102 32.5,153.5C 31.8333,152.5 31.1667,151.5 30.5,150.5C 30.6323,147.43 30.299,144.43 29.5,141.5C 30.4614,139.735 30.7947,137.735 30.5,135.5C 43.5821,134.864 56.4155,135.531 69,137.5C 69.5,137 70,136.5 70.5,136C 83.8292,135.5 97.1625,135.333 110.5,135.5 Z"/></g>
<g><path style="opacity:1" fill="#e4f9fe" d="M 113.5,15.5 C 116.069,15.7377 117.735,17.071 118.5,19.5C 116.246,18.8763 114.579,17.543 113.5,15.5 Z"/></g>
<g><path style="opacity:0.463" fill="#fefbee" d="M 120.5,18.5 C 121.833,19.1667 121.833,19.1667 120.5,18.5 Z"/></g>
<g><path style="opacity:1" fill="#d2eaf9" d="M 120.5,21.5 C 122.048,21.8212 122.715,22.8212 122.5,24.5C 121.094,24.0269 120.427,23.0269 120.5,21.5 Z"/></g>
<g><path style="opacity:1" fill="#a4bce0" d="M 22.5,21.5 C 22.1298,24.267 20.7964,26.267 18.5,27.5C 19.2977,25.0337 20.631,23.0337 22.5,21.5 Z"/></g>
<g><path style="opacity:0.583" fill="#f7feea" d="M 94.5,25.5 C 95.8333,25.5 97.1667,25.5 98.5,25.5C 98.38,26.5862 97.7133,27.2528 96.5,27.5C 95.2867,27.2528 94.62,26.5862 94.5,25.5 Z"/></g>
<g><path style="opacity:1" fill="#eefbf7" d="M 124.5,27.5 C 123.599,26.7095 122.932,25.7095 122.5,24.5C 124.606,22.7562 125.939,23.2562 126.5,26C 126.164,27.0299 125.497,27.5299 124.5,27.5 Z"/></g>
<g><path style="opacity:1" fill="#dcf3fc" d="M 102.5,26.5 C 104.415,26.2155 106.081,26.5489 107.5,27.5C 105.856,27.2865 104.356,27.6198 103,28.5C 102.536,27.9056 102.369,27.2389 102.5,26.5 Z"/></g>
<g><path style="opacity:0.439" fill="#ddf6fe" d="M 39.5,26.5 C 37.3964,27.9117 35.0631,28.9117 32.5,29.5C 34.0361,26.9078 36.3695,25.9078 39.5,26.5 Z"/></g>
<g><path style="opacity:1" fill="#accbee" d="M 108.5,27.5 C 110.5,28.1667 111.833,29.5 112.5,31.5C 110.167,31.1667 108.833,29.8333 108.5,27.5 Z"/></g>
<g><path style="opacity:1" fill="#4698f6" d="M 66.5,31.5 C 69.1667,31.5 71.8333,31.5 74.5,31.5C 74.5,32.5 74.5,33.5 74.5,34.5C 75.7489,36.8285 75.0823,38.6618 72.5,40C 70.5273,40.4955 68.5273,40.6621 66.5,40.5C 66.5,40.1667 66.5,39.8333 66.5,39.5C 65.1667,36.8333 65.1667,34.1667 66.5,31.5 Z"/></g>
<g><path style="opacity:1" fill="#e4fbf8" d="M 66.5,31.5 C 65.1667,34.1667 65.1667,36.8333 66.5,39.5C 65.8333,39.5 65.1667,39.5 64.5,39.5C 64.2786,38.2652 63.6119,37.2652 62.5,36.5C 63.6319,34.5106 64.9652,32.8439 66.5,31.5 Z"/></g>
<g><path style="opacity:0.963" fill="#e6f6f4" d="M 76.5,32.5 C 77.8799,32.9623 78.5466,33.9623 78.5,35.5C 76.947,39.3633 74.1137,41.6966 70,42.5C 68.6976,41.9152 67.531,41.2485 66.5,40.5C 68.5273,40.6621 70.5273,40.4955 72.5,40C 75.0823,38.6618 75.7489,36.8285 74.5,34.5C 75.5,34.1667 76.1667,33.5 76.5,32.5 Z"/></g>
<g><path style="opacity:1" fill="#9dccfe" d="M 124.5,29.5 C 125.833,49.4889 126.5,69.8222 126.5,90.5C 126.5,111.003 126.167,131.336 125.5,151.5C 125.822,110.791 125.489,70.124 124.5,29.5 Z"/></g>
<g><path style="opacity:1" fill="#d4eef6" d="M 30.5,32.5 C 30.8205,37.6946 30.4872,42.6946 29.5,47.5C 28.1736,42.421 28.5069,37.421 30.5,32.5 Z"/></g>
<g><path style="opacity:1" fill="#e5fdfe" d="M 18.5,27.5 C 17.1667,69.8333 17.1667,112.167 18.5,154.5C 17.8826,154.389 17.3826,154.056 17,153.5C 17.1584,112.448 16.3251,71.6151 14.5,31C 15.5323,29.3732 16.8656,28.2066 18.5,27.5 Z"/></g>
<g><path style="opacity:1" fill="#97c6f4" d="M 112.5,31.5 C 113.833,46.1515 114.499,61.1515 114.5,76.5C 114.5,91.6704 114.167,106.67 113.5,121.5C 113.5,120.833 113.5,120.167 113.5,119.5C 112.516,90.2106 112.183,60.8773 112.5,31.5 Z"/></g>
<g><path style="opacity:1" fill="#e8fdfd" d="M 29.5,111.5 C 30.4794,114.625 30.8128,117.958 30.5,121.5C 58.3925,122.145 86.0592,121.478 113.5,119.5C 113.5,120.167 113.5,120.833 113.5,121.5C 85.6716,122.498 57.6716,122.831 29.5,122.5C 28.2722,118.816 28.2722,115.15 29.5,111.5 Z"/></g>
<g><path style="opacity:1" fill="#9ecbfe" d="M 113.5,135.5 C 112.5,135.5 111.5,135.5 110.5,135.5C 97.1625,135.333 83.8292,135.5 70.5,136C 70,136.5 69.5,137 69,137.5C 56.4155,135.531 43.5821,134.864 30.5,135.5C 30.7947,137.735 30.4614,139.735 29.5,141.5C 29.5,139.167 29.5,136.833 29.5,134.5C 57.6716,134.169 85.6716,134.502 113.5,135.5 Z"/></g>
<g><path style="opacity:1" fill="#def8fc" d="M 110.5,135.5 C 111.5,135.5 112.5,135.5 113.5,135.5C 113.539,136.583 113.873,137.583 114.5,138.5C 113.896,142.303 113.23,145.969 112.5,149.5C 112.904,144.601 112.237,139.934 110.5,135.5 Z"/></g>
<g><path style="opacity:1" fill="#e2fbff" d="M 74.5,141.5 C 72.059,140.244 69.7257,140.244 67.5,141.5C 67.1667,141.5 66.8333,141.5 66.5,141.5C 67.3339,140.252 68.6672,139.585 70.5,139.5C 72.3328,139.585 73.6661,140.252 74.5,141.5 Z"/></g>
<g><path style="opacity:1" fill="#799fd6" d="M 67.5,141.5 C 69.7257,140.244 72.059,140.244 74.5,141.5C 76.4812,142.105 76.8146,143.105 75.5,144.5C 75.7373,145.791 75.404,146.791 74.5,147.5C 74.8752,142.505 72.5418,140.505 67.5,141.5 Z"/></g>
<g><path style="opacity:1" fill="#d3eef2" d="M 29.5,141.5 C 30.299,144.43 30.6323,147.43 30.5,150.5C 29.5955,148.362 28.9289,146.029 28.5,143.5C 28.5427,142.584 28.8761,141.917 29.5,141.5 Z"/></g>
<g><path style="opacity:0.316" fill="#eafdfd" d="M 65.5,141.5 C 65.2786,144.279 65.612,146.946 66.5,149.5C 65.2502,149.423 64.4169,148.756 64,147.5C 63.1107,148.888 62.6107,148.722 62.5,147C 62.7591,145.739 63.4258,144.739 64.5,144C 63.1175,142.539 63.4508,141.706 65.5,141.5 Z"/></g>
<g><path style="opacity:1" fill="#418af5" d="M 66.5,141.5 C 66.8333,141.5 67.1667,141.5 67.5,141.5C 72.5418,140.505 74.8752,142.505 74.5,147.5C 73.8333,148.167 73.1667,148.833 72.5,149.5C 72.1667,149.5 71.8333,149.5 71.5,149.5C 70.5,149.5 69.5,149.5 68.5,149.5C 67.8333,146.833 67.1667,144.167 66.5,141.5 Z"/></g>
<g><path style="opacity:1" fill="#7698d2" d="M 65.5,141.5 C 65.8333,141.5 66.1667,141.5 66.5,141.5C 67.1667,144.167 67.8333,146.833 68.5,149.5C 69.5,149.5 70.5,149.5 71.5,149.5C 69.8333,150.833 68.1667,150.833 66.5,149.5C 65.612,146.946 65.2786,144.279 65.5,141.5 Z"/></g>
<g><path style="opacity:0.663" fill="#e6f9fa" d="M 75.5,144.5 C 77.5988,145.37 77.9321,146.703 76.5,148.5C 75.3112,149.429 73.9778,149.762 72.5,149.5C 73.1667,148.833 73.8333,148.167 74.5,147.5C 75.404,146.791 75.7373,145.791 75.5,144.5 Z"/></g>
<g><path style="opacity:1" fill="#e3f2fe" d="M 109.5,153.5 C 109.027,154.906 108.027,155.573 106.5,155.5C 106.821,153.952 107.821,153.285 109.5,153.5 Z"/></g>
<g><path style="opacity:0.997" fill="#e7fdfd" d="M 106.5,155.5 C 83.0036,156.663 59.3369,156.83 35.5,156C 34.4293,155.148 33.4293,154.315 32.5,153.5C 35.738,153.102 39.0713,153.602 42.5,155C 64.0392,155.47 85.3725,155.637 106.5,155.5 Z"/></g>
<g><path style="opacity:0.902" fill="#d9eefd" d="M 18.5,155.5 C 20.2181,157.223 21.5514,159.223 22.5,161.5C 19.6752,160.522 18.3419,158.522 18.5,155.5 Z"/></g>
<g><path style="opacity:0.775" fill="#d9f4fc" d="M 124.5,154.5 C 124.33,155.822 124.663,156.989 125.5,158C 123.395,159.193 121.728,160.86 120.5,163C 119.552,163.483 118.552,163.649 117.5,163.5C 120.274,160.74 122.608,157.74 124.5,154.5 Z"/></g>
<g><path style="opacity:0.902" fill="#def9fa" d="M 22.5,161.5 C 25.4735,163.147 28.1401,165.147 30.5,167.5C 29.0222,167.762 27.6888,167.429 26.5,166.5C 24.3886,165.395 23.0553,163.729 22.5,161.5 Z"/></g>
<g><path style="opacity:0.282" fill="#eef7fe" d="M 117.5,164.5 C 118.833,165.167 118.833,165.167 117.5,164.5 Z"/></g>
<g><path style="opacity:1" fill="#a9d2fe" d="M 30.5,167.5 C 57.1412,168.465 83.8079,168.798 110.5,168.5C 110.5,168.833 110.5,169.167 110.5,169.5C 84.3175,169.548 57.6509,169.548 30.5,169.5C 30.5,168.833 30.5,168.167 30.5,167.5 Z"/></g>
<g><path style="opacity:0.795" fill="#fdffee" d="M 30.5,169.5 C 30.5,170.167 30.5,170.833 30.5,171.5C 27.8333,170.833 27.8333,170.167 30.5,169.5 Z"/></g>
<g><path style="opacity:0.035" fill="#fefaee" d="M 110.5,169.5 C 111.833,170.167 111.833,170.167 110.5,169.5 Z"/></g>
<g><path style="opacity:0.382" fill="#fff5ea" d="M 30.5,171.5 C 31.2389,171.369 31.9056,171.536 32.5,172C 31.5632,172.692 30.8966,172.525 30.5,171.5 Z"/></g>
<g><path style="opacity:0.243" fill="#fefaee" d="M 35.5,171.5 C 36.8333,172.167 36.8333,172.167 35.5,171.5 Z"/></g>
</svg>
