<?xml version="1.0" encoding="UTF-8"?>
<!DOCTYPE svg PUBLIC "-//W3C//DTD SVG 1.1//EN" "http://www.w3.org/Graphics/SVG/1.1/DTD/svg11.dtd">
<svg xmlns="http://www.w3.org/2000/svg" version="1.1" width="142px" height="184px" style="shape-rendering:geometricPrecision; text-rendering:geometricPrecision; image-rendering:optimizeQuality; fill-rule:evenodd; clip-rule:evenodd" xmlns:xlink="http://www.w3.org/1999/xlink">
<g><path style="opacity:1" fill="#3798fc" d="M 36.5,13.5 C 60.2052,13.062 83.8719,13.562 107.5,15C 114.573,17.0724 119.406,21.5724 122,28.5C 123.649,69.4406 123.983,110.441 123,151.5C 120.649,158.519 116.149,163.686 109.5,167C 83.8827,168.629 58.216,168.963 32.5,168C 24.0987,165.932 18.5987,160.766 16,152.5C 15.3333,111.833 15.3333,71.1667 16,30.5C 19.4158,20.5744 26.2491,14.9077 36.5,13.5 Z M 35.5,25.5 C 58.1691,25.3334 80.8358,25.5 103.5,26C 108.551,27.7167 111.385,31.2167 112,36.5C 112.5,65.4981 112.667,94.4981 112.5,123.5C 83.8333,123.5 55.1667,123.5 26.5,123.5C 26.3334,93.8315 26.5,64.1648 27,34.5C 28.714,30.2898 31.5473,27.2898 35.5,25.5 Z M 26.5,134.5 C 55.1667,134.5 83.8333,134.5 112.5,134.5C 113.954,142.461 111.954,149.294 106.5,155C 104.913,155.862 103.246,156.529 101.5,157C 90.8333,157.167 80.1667,157.333 69.5,157.5C 57.4461,157.625 45.4461,157.125 33.5,156C 29.8345,154.332 27.6678,151.499 27,147.5C 26.501,143.179 26.3343,138.846 26.5,134.5 Z"/></g>
<g><path style="opacity:1" fill="#3997f7" d="M 64.5,31.5 C 71.9974,30.8038 73.9974,33.6372 70.5,40C 63.7813,40.7259 61.7813,37.8925 64.5,31.5 Z"/></g>
<g><path style="opacity:1" fill="#3697f9" d="M 65.5,140.5 C 72.4863,140.331 74.153,143.164 70.5,149C 63.4159,149.475 61.7492,146.642 65.5,140.5 Z"/></g>
</svg>
