<?xml version="1.0" encoding="UTF-8"?>
<!DOCTYPE svg PUBLIC "-//W3C//DTD SVG 1.1//EN" "http://www.w3.org/Graphics/SVG/1.1/DTD/svg11.dtd">
<svg xmlns="http://www.w3.org/2000/svg" version="1.1" width="165px" height="165px" style="shape-rendering:geometricPrecision; text-rendering:geometricPrecision; image-rendering:optimizeQuality; fill-rule:evenodd; clip-rule:evenodd" xmlns:xlink="http://www.w3.org/1999/xlink">
<g><path style="opacity:0.22" fill="#f9ffee" d="M 106.5,1.5 C 106.897,0.474981 107.563,0.308314 108.5,1C 107.906,1.46434 107.239,1.63101 106.5,1.5 Z"/></g>
<g><path style="opacity:0.556" fill="#ebfeff" d="M 96.5,8.5 C 95.1667,8.5 93.8333,8.5 92.5,8.5C 93.6649,5.97805 94.9982,5.97805 96.5,8.5 Z"/></g>
<g><path style="opacity:0.424" fill="#def4ff" d="M 76.5,8.5 C 73.5701,9.29895 70.5701,9.63228 67.5,9.5C 69.6379,8.59554 71.9712,7.92887 74.5,7.5C 75.4164,7.54272 76.0831,7.87605 76.5,8.5 Z"/></g>
<g><path style="opacity:1" fill="#409bfd" d="M 76.5,8.5 C 81.8333,8.5 87.1667,8.5 92.5,8.5C 93.8333,8.5 95.1667,8.5 96.5,8.5C 100.032,8.31001 103.365,8.97667 106.5,10.5C 108.302,11.4582 110.302,12.1249 112.5,12.5C 113.117,12.3893 113.617,12.056 114,11.5C 114.278,12.4158 114.778,13.0825 115.5,13.5C 116.671,14.3446 118.005,15.0113 119.5,15.5C 119.5,16.1667 119.833,16.5 120.5,16.5C 122.142,17.803 123.809,19.1363 125.5,20.5C 127.199,20.5271 128.533,21.1938 129.5,22.5C 132.833,26.5 136.5,30.1667 140.5,33.5C 140.5,34.1667 140.833,34.5 141.5,34.5C 141.738,36.4044 142.738,37.7377 144.5,38.5C 146.507,42.2115 148.507,45.8781 150.5,49.5C 153.24,53.7776 155.073,58.4442 156,63.5C 156.667,72.5 156.667,81.5 156,90.5C 155.253,95.032 154.086,99.3653 152.5,103.5C 151.326,104.514 150.66,105.847 150.5,107.5C 150.5,107.833 150.5,108.167 150.5,108.5C 149.662,108.842 149.328,109.508 149.5,110.5C 149.5,110.833 149.5,111.167 149.5,111.5C 148.026,112.436 147.026,113.77 146.5,115.5C 145.599,116.29 144.932,117.29 144.5,118.5C 143.585,120.754 142.252,122.754 140.5,124.5C 139.5,124.833 138.833,125.5 138.5,126.5C 137.5,126.833 136.833,127.5 136.5,128.5C 135.167,128.5 134.5,129.167 134.5,130.5C 132.973,130.427 131.973,131.094 131.5,132.5C 129.833,133.5 128.5,134.833 127.5,136.5C 126.778,137.551 125.778,138.218 124.5,138.5C 123.005,138.989 121.671,139.655 120.5,140.5C 118.973,140.427 117.973,141.094 117.5,142.5C 115.215,143.225 113.382,144.558 112,146.5C 111.014,145.829 109.847,145.829 108.5,146.5C 105.67,146.963 103.003,147.629 100.5,148.5C 98.901,148.232 97.5676,148.566 96.5,149.5C 89.8333,149.5 83.1667,149.5 76.5,149.5C 75.791,148.596 74.791,148.263 73.5,148.5C 71.0392,147.469 68.3725,146.802 65.5,146.5C 64.8333,146.5 64.1667,146.5 63.5,146.5C 62.791,145.596 61.791,145.263 60.5,145.5C 60.1583,144.662 59.4916,144.328 58.5,144.5C 57.4863,143.326 56.153,142.66 54.5,142.5C 54.1667,142.5 53.8333,142.5 53.5,142.5C 52.1667,141.167 50.8333,141.167 49.5,142.5C 47.302,142.12 45.6354,142.787 44.5,144.5C 43.1667,144.5 41.8333,144.5 40.5,144.5C 37.9902,144.927 35.6568,145.593 33.5,146.5C 32.2617,146.81 32.2617,147.31 33.5,148C 31.1902,148.497 28.8568,148.663 26.5,148.5C 23.9902,148.927 21.6568,149.593 19.5,150.5C 17.302,150.88 15.6354,150.213 14.5,148.5C 14.3893,147.883 14.056,147.383 13.5,147C 13.9732,143.588 14.9732,140.422 16.5,137.5C 17.4067,135.343 18.0733,133.01 18.5,130.5C 18.5,129.167 18.5,127.833 18.5,126.5C 19.9313,125.22 20.5979,123.553 20.5,121.5C 21.6737,120.486 22.3404,119.153 22.5,117.5C 22.6206,113.426 21.6206,109.759 19.5,106.5C 19.7678,104.901 19.4345,103.568 18.5,102.5C 18.5,102.167 18.5,101.833 18.5,101.5C 18.2789,98.6081 17.4456,95.9415 16,93.5C 15.5004,86.5079 15.3337,79.5079 15.5,72.5C 15.9075,67.4632 16.5742,62.4632 17.5,57.5C 17.8333,56.8333 18.1667,56.1667 18.5,55.5C 19.4345,54.4324 19.7678,53.099 19.5,51.5C 20.3446,50.3285 21.0113,48.9952 21.5,47.5C 22.3382,47.1583 22.6716,46.4916 22.5,45.5C 23.404,44.791 23.7373,43.791 23.5,42.5C 24.1667,42.5 24.5,42.1667 24.5,41.5C 26.7024,39.5886 28.369,37.2553 29.5,34.5C 30.5,33.5 31.5,32.5 32.5,31.5C 33.8333,30.8333 34.8333,29.8333 35.5,28.5C 36.2719,27.3065 37.2719,26.3065 38.5,25.5C 40.3885,24.396 42.0552,23.0627 43.5,21.5C 45.8432,19.3277 48.5099,17.6611 51.5,16.5C 53.0269,16.573 54.0269,15.9063 54.5,14.5C 54.8333,14.5 55.1667,14.5 55.5,14.5C 56.9952,14.0113 58.3285,13.3446 59.5,12.5C 61.8859,10.9245 64.5525,9.92454 67.5,9.5C 70.5701,9.63228 73.5701,9.29895 76.5,8.5 Z M 74.5,24.5 C 74.3691,25.3764 74.7025,26.0431 75.5,26.5C 82.2873,24.5883 89.2873,23.9217 96.5,24.5C 97.7498,24.5774 98.5831,25.244 99,26.5C 99.3333,26.1667 99.6667,25.8333 100,25.5C 104.136,26.0459 107.97,27.3792 111.5,29.5C 112.738,31.9367 114.405,32.9367 116.5,32.5C 117.167,32.8333 117.833,33.1667 118.5,33.5C 117.488,35.1002 117.988,36.4335 120,37.5C 120.383,36.944 120.883,36.6107 121.5,36.5C 122.167,37.1667 122.833,37.8333 123.5,38.5C 122.475,38.8966 122.308,39.5632 123,40.5C 124.192,42.6502 125.692,43.3168 127.5,42.5C 128.167,42.5 128.5,42.8333 128.5,43.5C 128.062,43.4346 127.728,43.6012 127.5,44C 128.699,45.6943 130.032,47.1943 131.5,48.5C 132.167,48.5 132.5,48.8333 132.5,49.5C 132.285,51.1788 132.952,52.1788 134.5,52.5C 134.733,54.0618 135.4,55.3951 136.5,56.5C 136.672,57.4916 136.338,58.1583 135.5,58.5C 136.625,59.6522 136.625,60.6522 135.5,61.5C 135.328,62.4916 135.662,63.1583 136.5,63.5C 136.842,62.6618 137.508,62.3284 138.5,62.5C 141.164,73.196 141.164,83.8627 138.5,94.5C 136.903,95.7373 135.737,97.404 135,99.5C 134.727,101.101 134.227,102.601 133.5,104C 133.728,104.399 134.062,104.565 134.5,104.5C 133.205,105.031 132.538,106.364 132.5,108.5C 131.609,107.89 130.609,107.557 129.5,107.5C 130.234,108.708 130.567,110.041 130.5,111.5C 130.167,111.5 129.833,111.5 129.5,111.5C 129.5,111.833 129.5,112.167 129.5,112.5C 128.833,112.5 128.167,112.5 127.5,112.5C 126.075,113.922 125.075,115.589 124.5,117.5C 122.129,120.206 119.463,122.539 116.5,124.5C 114.973,124.427 113.973,125.094 113.5,126.5C 111.821,126.285 110.821,126.952 110.5,128.5C 110.167,128.5 109.833,128.5 109.5,128.5C 107.62,128.229 106.287,128.896 105.5,130.5C 105.167,130.5 104.833,130.5 104.5,130.5C 100.083,130.271 96.0827,131.271 92.5,133.5C 88.5874,134.596 84.5874,134.762 80.5,134C 75.6997,133.011 71.033,131.844 66.5,130.5C 64.5757,128.417 62.409,126.417 60,124.5C 59.2917,125.381 58.4584,126.047 57.5,126.5C 56.2617,126.19 56.2617,125.69 57.5,125C 54.1667,124.333 50.8333,124.333 47.5,125C 48.7119,126.107 48.3786,126.607 46.5,126.5C 44.0568,126.205 41.3902,126.039 38.5,126C 39.756,126.417 40.4226,127.25 40.5,128.5C 40.1667,128.5 39.8333,128.5 39.5,128.5C 37.4677,127.952 36.4677,126.619 36.5,124.5C 36.3284,123.508 36.6618,122.842 37.5,122.5C 38.2891,122.217 38.9558,121.717 39.5,121C 38.6198,119.644 38.2865,118.144 38.5,116.5C 38.3284,115.508 38.6618,114.842 39.5,114.5C 40.3091,112.708 40.8091,110.708 41,108.5C 41.3333,109.5 41.6667,110.5 42,111.5C 42.8128,108.461 41.6461,106.794 38.5,106.5C 38.2178,105.222 37.5511,104.222 36.5,103.5C 36.9382,103.565 37.2716,103.399 37.5,103C 36.9341,102.005 36.2674,101.172 35.5,100.5C 34.8333,100.5 34.5,100.167 34.5,99.5C 35.1331,99.1205 35.7997,98.7871 36.5,98.5C 35.5905,96.6253 34.2572,95.292 32.5,94.5C 30.7952,87.9856 30.1286,81.3189 30.5,74.5C 33.1667,73.8333 33.1667,73.1667 30.5,72.5C 31.833,67.2148 33.1663,61.8814 34.5,56.5C 35.9063,56.0269 36.573,55.0269 36.5,53.5C 37.1667,53.5 37.5,53.1667 37.5,52.5C 38.64,51.1986 39.9733,50.0319 41.5,49C 40.7476,48.3292 40.4142,47.4959 40.5,46.5C 42.0481,46.1788 42.7148,45.1788 42.5,43.5C 43.1667,43.5 43.5,43.1667 43.5,42.5C 45.9095,41.6165 48.2429,40.4498 50.5,39C 49.5842,38.7216 48.9175,38.2216 48.5,37.5C 48.5,36.8333 48.8333,36.5 49.5,36.5C 50.1667,36.8333 50.8333,37.1667 51.5,37.5C 52.1098,36.609 52.4431,35.609 52.5,34.5C 53.7777,34.2178 54.7777,33.5511 55.5,32.5C 57.1788,32.7148 58.1788,32.0481 58.5,30.5C 60.4832,30.8432 61.8166,30.1765 62.5,28.5C 63.9665,31.2583 64.6332,30.925 64.5,27.5C 67.9469,26.7476 71.2803,25.7476 74.5,24.5 Z"/></g>
<g><path style="opacity:1" fill="#e0fcff" d="M 106.5,10.5 C 109.082,10.0254 111.082,10.6921 112.5,12.5C 110.302,12.1249 108.302,11.4582 106.5,10.5 Z"/></g>
<g><path style="opacity:1" fill="#f9eff8" d="M 48.5,12.5 C 49.8333,13.1667 49.8333,13.1667 48.5,12.5 Z"/></g>
<g><path style="opacity:1" fill="#f6feed" d="M 115.5,13.5 C 116.601,12.4017 117.934,12.235 119.5,13C 118.207,13.49 116.873,13.6567 115.5,13.5 Z"/></g>
<g><path style="opacity:1" fill="#e0f7fe" d="M 59.5,12.5 C 58.3285,13.3446 56.9952,14.0113 55.5,14.5C 56.1834,12.8235 57.5168,12.1568 59.5,12.5 Z"/></g>
<g><path style="opacity:1" fill="#eff9fa" d="M 119.5,15.5 C 119.897,14.475 120.563,14.3083 121.5,15C 120.906,15.4643 120.239,15.631 119.5,15.5 Z"/></g>
<g><path style="opacity:1" fill="#accffd" d="M 54.5,14.5 C 54.0269,15.9063 53.0269,16.573 51.5,16.5C 51.9731,15.0937 52.9731,14.427 54.5,14.5 Z"/></g>
<g><path style="opacity:1" fill="#e7f5f6" d="M 125.5,20.5 C 123.809,19.1363 122.142,17.803 120.5,16.5C 122.389,15.6201 124.389,15.6201 126.5,16.5C 126.567,17.9587 126.234,19.2921 125.5,20.5 Z"/></g>
<g><path style="opacity:0.902" fill="#eef9fe" d="M 127.5,18.5 C 128.833,19.1667 128.833,19.1667 127.5,18.5 Z"/></g>
<g><path style="opacity:0.643" fill="#e3f8ff" d="M 43.5,21.5 C 42.0552,23.0627 40.3885,24.396 38.5,25.5C 38.4142,24.5041 38.7476,23.6708 39.5,23C 40.9308,22.5348 42.0975,21.7014 43,20.5C 43.3988,20.7284 43.5654,21.0618 43.5,21.5 Z"/></g>
<g><path style="opacity:1" fill="#e6fdfb" d="M 96.5,24.5 C 89.2873,23.9217 82.2873,24.5883 75.5,26.5C 74.7025,26.0431 74.3691,25.3764 74.5,24.5C 81.8333,23.1667 89.1667,23.1667 96.5,24.5 Z"/></g>
<g><path style="opacity:0.556" fill="#f1ffed" d="M 30.5,28.5 C 27.9991,28.4891 27.8324,27.8224 30,26.5C 30.4643,27.0944 30.631,27.7611 30.5,28.5 Z"/></g>
<g><path style="opacity:1" fill="#ecfaff" d="M 62.5,28.5 C 62.8417,27.6618 63.5084,27.3284 64.5,27.5C 64.6332,30.925 63.9665,31.2583 62.5,28.5 Z"/></g>
<g><path style="opacity:0.678" fill="#f7faeb" d="M 30.5,28.5 C 31.1667,28.5 31.5,28.8333 31.5,29.5C 31.1667,29.1667 30.8333,28.8333 30.5,28.5 Z"/></g>
<g><path style="opacity:1" fill="#e8fcff" d="M 62.5,28.5 C 61.8166,30.1765 60.4832,30.8432 58.5,30.5C 59.5137,29.3263 60.847,28.6596 62.5,28.5 Z"/></g>
<g><path style="opacity:0.682" fill="#d7f3fd" d="M 140.5,33.5 C 136.5,30.1667 132.833,26.5 129.5,22.5C 129.369,21.7611 129.536,21.0944 130,20.5C 132.647,24.3135 135.813,27.6469 139.5,30.5C 140.386,31.325 140.719,32.325 140.5,33.5 Z"/></g>
<g><path style="opacity:1" fill="#e9fdfc" d="M 35.5,28.5 C 34.8333,29.8333 33.8333,30.8333 32.5,31.5C 32.1667,30.8333 31.8333,30.1667 31.5,29.5C 32.8333,29.1667 34.1667,28.8333 35.5,28.5 Z"/></g>
<g><path style="opacity:1" fill="#e4fefe" d="M 58.5,30.5 C 58.1788,32.0481 57.1788,32.7148 55.5,32.5C 56.2905,31.5987 57.2905,30.9321 58.5,30.5 Z"/></g>
<g><path style="opacity:1" fill="#95c2f9" d="M 111.5,29.5 C 113.848,29.5923 115.514,30.5923 116.5,32.5C 114.405,32.9367 112.738,31.9367 111.5,29.5 Z"/></g>
<g><path style="opacity:1" fill="#dff5fa" d="M 52.5,34.5 C 52.4431,35.609 52.1098,36.609 51.5,37.5C 50.8333,37.1667 50.1667,36.8333 49.5,36.5C 50.2905,35.5987 51.2905,34.9321 52.5,34.5 Z"/></g>
<g><path style="opacity:0.902" fill="#e9faf7" d="M 118.5,33.5 C 119.833,34.1667 120.833,35.1667 121.5,36.5C 120.883,36.6107 120.383,36.944 120,37.5C 117.988,36.4335 117.488,35.1002 118.5,33.5 Z"/></g>
<g><path style="opacity:0.902" fill="#d9effd" d="M 141.5,34.5 C 143.446,35.0347 144.446,36.368 144.5,38.5C 142.738,37.7377 141.738,36.4044 141.5,34.5 Z"/></g>
<g><path style="opacity:0.975" fill="#e6f9fc" d="M 29.5,34.5 C 28.369,37.2553 26.7024,39.5886 24.5,41.5C 24.6079,39.2166 25.4412,37.2166 27,35.5C 27.6708,34.7476 28.5041,34.4142 29.5,34.5 Z"/></g>
<g><path style="opacity:0.8" fill="#f0fdf6" d="M 48.5,37.5 C 48.9175,38.2216 49.5842,38.7216 50.5,39C 48.2429,40.4498 45.9095,41.6165 43.5,42.5C 44.8333,40.5 46.5,38.8333 48.5,37.5 Z"/></g>
<g><path style="opacity:0.818" fill="#ebf8f7" d="M 123.5,38.5 C 125.5,39.1667 126.833,40.5 127.5,42.5C 125.692,43.3168 124.192,42.6502 123,40.5C 122.308,39.5632 122.475,38.8966 123.5,38.5 Z"/></g>
<g><path style="opacity:0.646" fill="#f8fdeb" d="M 23.5,42.5 C 23.7373,43.791 23.404,44.791 22.5,45.5C 19.6618,43.6941 19.9952,42.6941 23.5,42.5 Z"/></g>
<g><path style="opacity:0.902" fill="#e5f7fc" d="M 144.5,38.5 C 148.958,41.0953 150.958,44.762 150.5,49.5C 148.507,45.8781 146.507,42.2115 144.5,38.5 Z"/></g>
<g><path style="opacity:0.831" fill="#dafbff" d="M 42.5,43.5 C 42.7148,45.1788 42.0481,46.1788 40.5,46.5C 40.9321,45.2905 41.5987,44.2905 42.5,43.5 Z"/></g>
<g><path style="opacity:1" fill="#ecfcfe" d="M 21.5,47.5 C 20.8333,46.1667 20.8333,46.1667 21.5,47.5 Z"/></g>
<g><path style="opacity:0.998" fill="#3d99fc" d="M 62.5,46.5 C 65.7882,46.0156 68.4548,47.0156 70.5,49.5C 70.3505,50.552 70.5172,51.552 71,52.5C 72.5941,54.5264 74.0941,56.5264 75.5,58.5C 75.5,59.1667 75.5,59.8333 75.5,60.5C 75.4848,63.8791 74.4848,66.8791 72.5,69.5C 72.1667,70.1667 71.8333,70.8333 71.5,71.5C 70.9161,75.6699 72.5828,79.0033 76.5,81.5C 76.5,82.1667 76.8333,82.5 77.5,82.5C 79.0233,85.3644 81.3567,87.031 84.5,87.5C 85.5,88.5 86.5,89.5 87.5,90.5C 88.209,91.404 89.209,91.7373 90.5,91.5C 91.1667,91.8333 91.8333,92.1667 92.5,92.5C 94.4409,93.6793 95.7743,93.0127 96.5,90.5C 96.5,90.1667 96.5,89.8333 96.5,89.5C 98.5248,87.8036 100.525,86.137 102.5,84.5C 103.833,84.5 105.167,84.5 106.5,84.5C 106.842,85.3382 107.508,85.6716 108.5,85.5C 109.167,85.8333 109.833,86.1667 110.5,86.5C 111.514,87.6737 112.847,88.3404 114.5,88.5C 115.778,88.7822 116.778,89.4489 117.5,90.5C 118.122,92.1216 119.122,93.4549 120.5,94.5C 120.5,94.8333 120.5,95.1667 120.5,95.5C 120.233,97.9653 119.566,100.299 118.5,102.5C 118.5,102.833 118.5,103.167 118.5,103.5C 117.599,104.29 116.932,105.29 116.5,106.5C 115.5,106.833 114.833,107.5 114.5,108.5C 113.833,108.5 113.167,108.5 112.5,108.5C 110.847,108.66 109.514,109.326 108.5,110.5C 107.209,110.263 106.209,110.596 105.5,111.5C 102.831,112.181 100.165,111.848 97.5,110.5C 95.6976,109.542 93.6976,108.875 91.5,108.5C 88.2938,107.546 85.2938,106.213 82.5,104.5C 82.1583,103.662 81.4916,103.328 80.5,103.5C 79.7377,101.738 78.4044,100.738 76.5,100.5C 75.2223,100.218 74.2223,99.5511 73.5,98.5C 72.8333,97.1667 71.8333,96.1667 70.5,95.5C 69.8333,95.5 69.5,95.1667 69.5,94.5C 68.4206,92.457 66.754,91.1237 64.5,90.5C 64.573,88.9731 63.9063,87.9731 62.5,87.5C 62.19,86.2617 61.69,86.2617 61,87.5C 60.7679,86.2625 60.2679,85.2625 59.5,84.5C 59.7271,82.0672 58.7271,80.4006 56.5,79.5C 56.5,79.1667 56.5,78.8333 56.5,78.5C 56.0679,77.2905 55.4013,76.2905 54.5,75.5C 54.5,74.8333 54.1667,74.5 53.5,74.5C 53.7373,73.209 53.404,72.209 52.5,71.5C 52.5,71.1667 52.5,70.8333 52.5,70.5C 51.2704,65.1219 51.2704,59.7886 52.5,54.5C 52.5,54.1667 52.5,53.8333 52.5,53.5C 53.9063,53.0269 54.573,52.0269 54.5,50.5C 56.1911,49.1363 57.8577,47.803 59.5,46.5C 60.5,45.1667 61.5,45.1667 62.5,46.5 Z"/></g>
<g><path style="opacity:0.612" fill="#e2faff" d="M 62.5,44.5 C 66.827,43.8033 69.4937,45.47 70.5,49.5C 68.4548,47.0156 65.7882,46.0156 62.5,46.5C 62.5,45.8333 62.5,45.1667 62.5,44.5 Z"/></g>
<g><path style="opacity:0.855" fill="#ddf6fa" d="M 59.5,46.5 C 57.8577,47.803 56.1911,49.1363 54.5,50.5C 54.8301,47.8906 56.3301,46.2239 59,45.5C 59.3988,45.7284 59.5654,46.0618 59.5,46.5 Z"/></g>
<g><path style="opacity:0.902" fill="#dcf6fe" d="M 128.5,43.5 C 130.727,44.4006 131.727,46.0672 131.5,48.5C 130.032,47.1943 128.699,45.6943 127.5,44C 127.728,43.6012 128.062,43.4346 128.5,43.5 Z"/></g>
<g><path style="opacity:0.594" fill="#ecf7fb" d="M 40.5,46.5 C 40.4142,47.4959 40.7476,48.3292 41.5,49C 39.9733,50.0319 38.64,51.1986 37.5,52.5C 37.6535,50.0301 38.6535,48.0301 40.5,46.5 Z"/></g>
<g><path style="opacity:1" fill="#ddf6fd" d="M 54.5,50.5 C 54.573,52.0269 53.9063,53.0269 52.5,53.5C 52.3433,52.1266 52.51,50.7932 53,49.5C 53.3826,50.056 53.8826,50.3893 54.5,50.5 Z"/></g>
<g><path style="opacity:0.973" fill="#f1f9f3" d="M 19.5,51.5 C 19.7678,53.099 19.4345,54.4324 18.5,55.5C 18.5198,53.857 17.8532,52.5237 16.5,51.5C 17.5238,47.5531 18.5238,47.5531 19.5,51.5 Z"/></g>
<g><path style="opacity:0.906" fill="#e6fffe" d="M 132.5,49.5 C 133.401,50.2905 134.068,51.2905 134.5,52.5C 132.952,52.1788 132.285,51.1788 132.5,49.5 Z"/></g>
<g><path style="opacity:1" fill="#e1f6f8" d="M 70.5,49.5 C 70.8333,49.5 71.1667,49.5 71.5,49.5C 73.1558,52.1386 74.8224,54.8053 76.5,57.5C 76.3764,58.1067 76.0431,58.44 75.5,58.5C 74.0941,56.5264 72.5941,54.5264 71,52.5C 70.5172,51.552 70.3505,50.552 70.5,49.5 Z"/></g>
<g><path style="opacity:0.663" fill="#dcf0f9" d="M 36.5,53.5 C 36.573,55.0269 35.9063,56.0269 34.5,56.5C 34.427,54.9731 35.0937,53.9731 36.5,53.5 Z"/></g>
<g><path style="opacity:0.993" fill="#dff9fd" d="M 52.5,54.5 C 51.2704,59.7886 51.2704,65.1219 52.5,70.5C 51.1883,68.2568 50.5217,65.5902 50.5,62.5C 50.5217,59.4098 51.1883,56.7432 52.5,54.5 Z"/></g>
<g><path style="opacity:1" fill="#e8fbfa" d="M 136.5,56.5 C 137.458,58.3024 138.125,60.3024 138.5,62.5C 137.508,62.3284 136.842,62.6618 136.5,63.5C 135.662,63.1583 135.328,62.4916 135.5,61.5C 136.625,60.6522 136.625,59.6522 135.5,58.5C 136.338,58.1583 136.672,57.4916 136.5,56.5 Z"/></g>
<g><path style="opacity:1" fill="#e0f8fc" d="M 17.5,57.5 C 16.5742,62.4632 15.9075,67.4632 15.5,72.5C 15.1667,72.5 14.8333,72.5 14.5,72.5C 14.0522,67.9592 14.7189,63.6259 16.5,59.5C 15.0116,57.1143 15.3449,56.4476 17.5,57.5 Z"/></g>
<g><path style="opacity:1" fill="#e5f9fd" d="M 75.5,60.5 C 76.6378,63.3035 76.8045,66.3035 76,69.5C 75.0138,70.1712 73.8471,70.1712 72.5,69.5C 74.4848,66.8791 75.4848,63.8791 75.5,60.5 Z"/></g>
<g><path style="opacity:0.392" fill="#fefde8" d="M 30.5,72.5 C 33.1667,73.1667 33.1667,73.8333 30.5,74.5C 30.5,73.8333 30.5,73.1667 30.5,72.5 Z"/></g>
<g><path style="opacity:1" fill="#def6f9" d="M 52.5,71.5 C 53.404,72.209 53.7373,73.209 53.5,74.5C 53.1667,74.5 52.8333,74.5 52.5,74.5C 52.0825,73.7784 51.4158,73.2784 50.5,73C 51.4158,72.7216 52.0825,72.2216 52.5,71.5 Z"/></g>
<g><path style="opacity:1" fill="#feffea" d="M 130.5,72.5 C 132.337,72.6395 132.67,73.3061 131.5,74.5C 130.702,74.0431 130.369,73.3764 130.5,72.5 Z"/></g>
<g><path style="opacity:0.973" fill="#dbf1fe" d="M 54.5,75.5 C 55.4013,76.2905 56.0679,77.2905 56.5,78.5C 55.6236,78.6309 54.9569,78.2975 54.5,77.5C 53.4502,76.5712 53.4502,75.9046 54.5,75.5 Z"/></g>
<g><path style="opacity:0.963" fill="#e4f7f8" d="M 71.5,71.5 C 72.4959,71.4142 73.3292,71.7476 74,72.5C 73.9097,75.6006 74.743,78.6006 76.5,81.5C 72.5828,79.0033 70.9161,75.6699 71.5,71.5 Z"/></g>
<g><path style="opacity:0.634" fill="#feffed" d="M 90.5,80.5 C 93.0009,80.5109 93.1676,81.1776 91,82.5C 90.5357,81.9056 90.369,81.2389 90.5,80.5 Z"/></g>
<g><path style="opacity:1" fill="#e2f7fe" d="M 56.5,79.5 C 58.7271,80.4006 59.7271,82.0672 59.5,84.5C 58.0322,83.1943 56.6988,81.6943 55.5,80C 55.7284,79.6012 56.0618,79.4346 56.5,79.5 Z"/></g>
<g><path style="opacity:0.958" fill="#ebfcf7" d="M 77.5,82.5 C 80.4383,83.6284 83.4383,84.7951 86.5,86C 85.5842,86.2784 84.9175,86.7784 84.5,87.5C 81.3567,87.031 79.0233,85.3644 77.5,82.5 Z"/></g>
<g><path style="opacity:1" fill="#dbf8fe" d="M 108.5,85.5 C 107.508,85.6716 106.842,85.3382 106.5,84.5C 107.623,83.2426 108.289,83.5759 108.5,85.5 Z"/></g>
<g><path style="opacity:0.774" fill="#fefded" d="M 92.5,85.5 C 94.4646,85.9483 94.7979,86.9483 93.5,88.5C 92.6143,87.675 92.281,86.675 92.5,85.5 Z"/></g>
<g><path style="opacity:1" fill="#d8f4fc" d="M 102.5,84.5 C 100.525,86.137 98.5248,87.8036 96.5,89.5C 96.9601,86.0432 98.9601,84.3765 102.5,84.5 Z"/></g>
<g><path style="opacity:1" fill="#d8f4ff" d="M 110.5,86.5 C 112.199,86.3398 113.866,86.5065 115.5,87C 114.944,87.3826 114.611,87.8826 114.5,88.5C 112.847,88.3404 111.514,87.6737 110.5,86.5 Z"/></g>
<g><path style="opacity:1" fill="#e5f9f8" d="M 62.5,87.5 C 63.9063,87.9731 64.573,88.9731 64.5,90.5C 63.8333,90.5 63.1667,90.5 62.5,90.5C 61.1667,89.5 61.1667,88.5 62.5,87.5 Z"/></g>
<g><path style="opacity:1" fill="#e1f4fa" d="M 90.5,91.5 C 89.209,91.7373 88.209,91.404 87.5,90.5C 89.1959,88.871 90.1959,89.2043 90.5,91.5 Z"/></g>
<g><path style="opacity:1" fill="#dff6ff" d="M 96.5,90.5 C 95.7743,93.0127 94.4409,93.6793 92.5,92.5C 93.8333,91.8333 95.1667,91.1667 96.5,90.5 Z"/></g>
<g><path style="opacity:1" fill="#d4e1f6" d="M 117.5,90.5 C 120.307,90.9513 121.307,92.2847 120.5,94.5C 119.122,93.4549 118.122,92.1216 117.5,90.5 Z"/></g>
<g><path style="opacity:1" fill="#daf3fc" d="M 64.5,90.5 C 66.754,91.1237 68.4206,92.457 69.5,94.5C 68.1266,94.6567 66.7932,94.49 65.5,94C 65.8333,93.6667 66.1667,93.3333 66.5,93C 64.065,92.9252 63.3984,92.0919 64.5,90.5 Z"/></g>
<g><path style="opacity:1" fill="#e1fbff" d="M 70.5,95.5 C 71.8333,96.1667 72.8333,97.1667 73.5,98.5C 72.5,98.5 71.5,98.5 70.5,98.5C 70.5,97.5 70.5,96.5 70.5,95.5 Z"/></g>
<g><path style="opacity:1" fill="#e0f7fd" d="M 120.5,95.5 C 120.833,95.5 121.167,95.5 121.5,95.5C 122.99,98.8572 121.99,101.191 118.5,102.5C 119.566,100.299 120.233,97.9653 120.5,95.5 Z"/></g>
<g><path style="opacity:1" fill="#c4e5fc" d="M 14.5,72.5 C 14.8333,72.5 15.1667,72.5 15.5,72.5C 15.3337,79.5079 15.5004,86.5079 16,93.5C 17.4456,95.9415 18.2789,98.6081 18.5,101.5C 16.8951,99.5201 15.7285,97.1868 15,94.5C 14.5003,87.1742 14.3337,79.8409 14.5,72.5 Z"/></g>
<g><path style="opacity:1" fill="#f1fdf5" d="M 32.5,94.5 C 34.2572,95.292 35.5905,96.6253 36.5,98.5C 35.7997,98.7871 35.1331,99.1205 34.5,99.5C 33.4625,98.0697 32.7959,96.403 32.5,94.5 Z"/></g>
<g><path style="opacity:1" fill="#f6ffeb" d="M 70.5,98.5 C 70.4827,100.028 69.816,100.528 68.5,100C 69.0442,99.2828 69.7109,98.7828 70.5,98.5 Z"/></g>
<g><path style="opacity:1" fill="#e2fdff" d="M 35.5,100.5 C 36.2674,101.172 36.9341,102.005 37.5,103C 37.2716,103.399 36.9382,103.565 36.5,103.5C 35.596,102.791 35.2627,101.791 35.5,100.5 Z"/></g>
<g><path style="opacity:0.903" fill="#e5fdfc" d="M 138.5,94.5 C 138.062,98.3129 136.729,101.646 134.5,104.5C 134.062,104.565 133.728,104.399 133.5,104C 134.227,102.601 134.727,101.101 135,99.5C 135.737,97.404 136.903,95.7373 138.5,94.5 Z"/></g>
<g><path style="opacity:1" fill="#e2f5f8" d="M 76.5,100.5 C 78.4044,100.738 79.7377,101.738 80.5,103.5C 78.0274,103.912 76.6941,102.912 76.5,100.5 Z"/></g>
<g><path style="opacity:0.813" fill="#e4fdfb" d="M 18.5,102.5 C 19.4345,103.568 19.7678,104.901 19.5,106.5C 17.2552,105.708 16.9219,104.375 18.5,102.5 Z"/></g>
<g><path style="opacity:0.417" fill="#f5fcf0" d="M 80.5,103.5 C 81.4916,103.328 82.1583,103.662 82.5,104.5C 81.6987,106.793 81.032,106.46 80.5,103.5 Z"/></g>
<g><path style="opacity:1" fill="#effbf7" d="M 118.5,103.5 C 121.04,105.666 120.373,106.666 116.5,106.5C 116.932,105.29 117.599,104.29 118.5,103.5 Z"/></g>
<g><path style="opacity:1" fill="#add6fb" d="M 152.5,103.5 C 152.771,105.38 152.104,106.713 150.5,107.5C 150.66,105.847 151.326,104.514 152.5,103.5 Z"/></g>
<g><path style="opacity:1" fill="#dceff7" d="M 129.5,107.5 C 130.609,107.557 131.609,107.89 132.5,108.5C 132.573,110.027 131.906,111.027 130.5,111.5C 130.567,110.041 130.234,108.708 129.5,107.5 Z"/></g>
<g><path style="opacity:1" fill="#fdf8ed" d="M 152.5,107.5 C 153.525,107.897 153.692,108.563 153,109.5C 152.536,108.906 152.369,108.239 152.5,107.5 Z"/></g>
<g><path style="opacity:1" fill="#d7f5ff" d="M 91.5,109.5 C 91.5,109.167 91.5,108.833 91.5,108.5C 93.6976,108.875 95.6976,109.542 97.5,110.5C 95.3792,110.675 93.3792,110.341 91.5,109.5 Z"/></g>
<g><path style="opacity:1" fill="#dcfaff" d="M 112.5,108.5 C 112.5,109.167 112.5,109.833 112.5,110.5C 111.167,110.5 109.833,110.5 108.5,110.5C 109.514,109.326 110.847,108.66 112.5,108.5 Z"/></g>
<g><path style="opacity:1" fill="#e0fbff" d="M 150.5,108.5 C 152.031,109.925 151.698,110.591 149.5,110.5C 149.328,109.508 149.662,108.842 150.5,108.5 Z"/></g>
<g><path style="opacity:1" fill="#edfcf9" d="M 38.5,106.5 C 41.6461,106.794 42.8128,108.461 42,111.5C 41.6667,110.5 41.3333,109.5 41,108.5C 40.8091,110.708 40.3091,112.708 39.5,114.5C 39.5987,111.763 39.2653,109.096 38.5,106.5 Z"/></g>
<g><path style="opacity:0.243" fill="#f1ffe9" d="M 105.5,111.5 C 106.209,110.596 107.209,110.263 108.5,110.5C 108.196,112.796 107.196,113.129 105.5,111.5 Z"/></g>
<g><path style="opacity:1" fill="#ebfff6" d="M 149.5,111.5 C 150.833,112.167 150.833,112.167 149.5,111.5 Z"/></g>
<g><path style="opacity:1" fill="#e9fdfe" d="M 127.5,112.5 C 128.167,112.5 128.833,112.5 129.5,112.5C 128.167,114.5 126.5,116.167 124.5,117.5C 125.075,115.589 126.075,113.922 127.5,112.5 Z"/></g>
<g><path style="opacity:1" fill="#e0faff" d="M 146.5,115.5 C 146.715,117.179 146.048,118.179 144.5,118.5C 144.932,117.29 145.599,116.29 146.5,115.5 Z"/></g>
<g><path style="opacity:1" fill="#b0d2fc" d="M 22.5,117.5 C 22.3404,119.153 21.6737,120.486 20.5,121.5C 20.2291,119.62 20.8958,118.287 22.5,117.5 Z"/></g>
<g><path style="opacity:1" fill="#e0fafd" d="M 38.5,116.5 C 38.2865,118.144 38.6198,119.644 39.5,121C 38.9558,121.717 38.2891,122.217 37.5,122.5C 37.2053,120.265 37.5386,118.265 38.5,116.5 Z"/></g>
<g><path style="opacity:1" fill="#fcfcee" d="M 18.5,126.5 C 16.6214,126.607 16.2881,126.107 17.5,125C 14.6677,123.092 15.001,122.259 18.5,122.5C 18.5,123.833 18.5,125.167 18.5,126.5 Z"/></g>
<g><path style="opacity:1" fill="#b0d8ff" d="M 116.5,124.5 C 116.027,125.906 115.027,126.573 113.5,126.5C 113.973,125.094 114.973,124.427 116.5,124.5 Z"/></g>
<g><path style="opacity:1" fill="#e6fffe" d="M 140.5,124.5 C 140.5,125.833 139.833,126.5 138.5,126.5C 138.833,125.5 139.5,124.833 140.5,124.5 Z"/></g>
<g><path style="opacity:0.902" fill="#ebfef8" d="M 46.5,126.5 C 44.6264,127.285 42.6264,127.952 40.5,128.5C 40.4226,127.25 39.756,126.417 38.5,126C 41.3902,126.039 44.0568,126.205 46.5,126.5 Z"/></g>
<g><path style="opacity:0.902" fill="#edfbf5" d="M 66.5,130.5 C 63.0534,129.917 60.0534,128.584 57.5,126.5C 58.4584,126.047 59.2917,125.381 60,124.5C 62.409,126.417 64.5757,128.417 66.5,130.5 Z"/></g>
<g><path style="opacity:0.653" fill="#d8f6ff" d="M 113.5,126.5 C 112.71,127.401 111.71,128.068 110.5,128.5C 110.821,126.952 111.821,126.285 113.5,126.5 Z"/></g>
<g><path style="opacity:0.475" fill="#feefed" d="M 138.5,127.5 C 139.833,128.167 139.833,128.167 138.5,127.5 Z"/></g>
<g><path style="opacity:1" fill="#d6f4f9" d="M 36.5,124.5 C 36.4677,126.619 37.4677,127.952 39.5,128.5C 38.1155,129.801 36.6155,129.801 35,128.5C 34.6522,126.86 35.1522,125.527 36.5,124.5 Z"/></g>
<g><path style="opacity:1" fill="#a3d1f5" d="M 109.5,128.5 C 108.713,130.104 107.38,130.771 105.5,130.5C 106.287,128.896 107.62,128.229 109.5,128.5 Z"/></g>
<g><path style="opacity:0.925" fill="#def6f2" d="M 136.5,128.5 C 137.525,128.897 137.692,129.563 137,130.5C 136.23,131.598 135.397,131.598 134.5,130.5C 134.5,129.167 135.167,128.5 136.5,128.5 Z"/></g>
<g><path style="opacity:0.605" fill="#e7fdf4" d="M 104.5,130.5 C 100.888,132.615 96.8884,133.615 92.5,133.5C 96.0827,131.271 100.083,130.271 104.5,130.5 Z"/></g>
<g><path style="opacity:0.925" fill="#cff0f7" d="M 134.5,130.5 C 134.179,132.048 133.179,132.715 131.5,132.5C 131.973,131.094 132.973,130.427 134.5,130.5 Z"/></g>
<g><path style="opacity:1" fill="#d9faff" d="M 18.5,130.5 C 18.0733,133.01 17.4067,135.343 16.5,137.5C 15.9898,134.612 16.6565,132.279 18.5,130.5 Z"/></g>
<g><path style="opacity:1" fill="#f7f4ed" d="M 14.5,134.5 C 15.8333,135.167 15.8333,135.167 14.5,134.5 Z"/></g>
<g><path style="opacity:1" fill="#e5f8f5" d="M 131.5,132.5 C 131.267,134.062 130.6,135.395 129.5,136.5C 128.833,136.5 128.167,136.5 127.5,136.5C 128.5,134.833 129.833,133.5 131.5,132.5 Z"/></g>
<g><path style="opacity:0.475" fill="#eeeef5" d="M 129.5,136.5 C 130.833,137.167 130.833,137.167 129.5,136.5 Z"/></g>
<g><path style="opacity:1" fill="#eef9fe" d="M 127.5,137.5 C 128.833,138.167 128.833,138.167 127.5,137.5 Z"/></g>
<g><path style="opacity:1" fill="#e4faff" d="M 124.5,138.5 C 123.817,140.176 122.483,140.843 120.5,140.5C 121.671,139.655 123.005,138.989 124.5,138.5 Z"/></g>
<g><path style="opacity:1" fill="#e0fdfa" d="M 49.5,142.5 C 50.8333,141.167 52.1667,141.167 53.5,142.5C 52.5084,142.328 51.8417,142.662 51.5,143.5C 50.8333,143.167 50.1667,142.833 49.5,142.5 Z"/></g>
<g><path style="opacity:1" fill="#e4f6fb" d="M 120.5,140.5 C 120.179,142.048 119.179,142.715 117.5,142.5C 117.973,141.094 118.973,140.427 120.5,140.5 Z"/></g>
<g><path style="opacity:1" fill="#fef8eb" d="M 12.5,143.5 C 13.8333,144.167 13.8333,144.167 12.5,143.5 Z"/></g>
<g><path style="opacity:1" fill="#eff7e4" d="M 51.5,143.5 C 52.8333,144.167 52.8333,144.167 51.5,143.5 Z"/></g>
<g><path style="opacity:1" fill="#dcf3fd" d="M 54.5,142.5 C 56.153,142.66 57.4863,143.326 58.5,144.5C 56.5168,144.843 55.1834,144.176 54.5,142.5 Z"/></g>
<g><path style="opacity:1" fill="#faf6ee" d="M 44.5,144.5 C 45.8333,145.167 45.8333,145.167 44.5,144.5 Z"/></g>
<g><path style="opacity:1" fill="#fef8ee" d="M 46.5,144.5 C 47.8333,145.167 47.8333,145.167 46.5,144.5 Z"/></g>
<g><path style="opacity:1" fill="#fef6ed" d="M 51.5,144.5 C 50.8333,145.167 50.8333,145.167 51.5,144.5 Z"/></g>
<g><path style="opacity:1" fill="#dffbff" d="M 40.5,144.5 C 38.7211,146.344 36.3878,147.01 33.5,146.5C 35.6568,145.593 37.9902,144.927 40.5,144.5 Z"/></g>
<g><path style="opacity:0.243" fill="#fff8ed" d="M 50.5,145.5 C 50.1034,146.525 49.4368,146.692 48.5,146C 49.0944,145.536 49.7611,145.369 50.5,145.5 Z"/></g>
<g><path style="opacity:1" fill="#e7fdfd" d="M 60.5,145.5 C 61.791,145.263 62.791,145.596 63.5,146.5C 62.1779,146.33 61.0113,146.663 60,147.5C 57.8324,146.178 57.9991,145.511 60.5,145.5 Z"/></g>
<g><path style="opacity:0.263" fill="#fef4ec" d="M 117.5,145.5 C 118.833,146.167 118.833,146.167 117.5,145.5 Z"/></g>
<g><path style="opacity:0.239" fill="#eefffe" d="M 35.5,147.5 C 36.8333,148.167 36.8333,148.167 35.5,147.5 Z"/></g>
<g><path style="opacity:1" fill="#cbe6fd" d="M 65.5,146.5 C 68.3725,146.802 71.0392,147.469 73.5,148.5C 71.1432,148.663 68.8098,148.497 66.5,148C 65.944,147.617 65.6107,147.117 65.5,146.5 Z"/></g>
<g><path style="opacity:1" fill="#ebfcfb" d="M 108.5,146.5 C 108.585,147.995 107.919,148.995 106.5,149.5C 104.591,148.652 102.591,148.318 100.5,148.5C 103.003,147.629 105.67,146.963 108.5,146.5 Z"/></g>
<g><path style="opacity:0.941" fill="#e9feff" d="M 26.5,148.5 C 24.7211,150.344 22.3878,151.01 19.5,150.5C 21.6568,149.593 23.9902,148.927 26.5,148.5 Z"/></g>
<g><path style="opacity:1" fill="#e9fefe" d="M 76.5,149.5 C 83.1667,149.5 89.8333,149.5 96.5,149.5C 96.1865,150.389 95.0199,151.055 93,151.5C 87.4003,150.854 81.9003,150.187 76.5,149.5 Z"/></g>
<g><path style="opacity:1" fill="#d1e7f0" d="M 14.5,148.5 C 15.6354,150.213 17.302,150.88 19.5,150.5C 18.5943,151.965 17.261,152.965 15.5,153.5C 14.6461,152.052 13.6461,150.719 12.5,149.5C 12.9569,148.702 13.6236,148.369 14.5,148.5 Z"/></g>
<g><path style="opacity:1" fill="#f6f8ec" d="M 76.5,152.5 C 76.8966,151.475 77.5632,151.308 78.5,152C 77.9056,152.464 77.2389,152.631 76.5,152.5 Z"/></g>
<g><path style="opacity:0.259" fill="#f2f4e9" d="M 89.5,151.5 C 90.8333,152.167 90.8333,152.167 89.5,151.5 Z"/></g>
<g><path style="opacity:0.263" fill="#fee5ed" d="M 12.5,152.5 C 13.8333,153.167 13.8333,153.167 12.5,152.5 Z"/></g>
</svg>
