<?xml version="1.0" encoding="UTF-8"?>
<!DOCTYPE svg PUBLIC "-//W3C//DTD SVG 1.1//EN" "http://www.w3.org/Graphics/SVG/1.1/DTD/svg11.dtd">
<svg xmlns="http://www.w3.org/2000/svg" version="1.1" width="165px" height="165px" style="shape-rendering:geometricPrecision; text-rendering:geometricPrecision; image-rendering:optimizeQuality; fill-rule:evenodd; clip-rule:evenodd" xmlns:xlink="http://www.w3.org/1999/xlink">
<g><path style="opacity:1" fill="#3898fb" d="M 75.5,7.5 C 117.241,5.42596 143.741,24.426 155,64.5C 159.251,95.819 148.418,120.319 122.5,138C 99.2212,151.185 75.7212,151.685 52,139.5C 39.3352,143.541 26.5018,146.708 13.5,149C 17.1389,136.78 20.4723,124.447 23.5,112C 7.71745,75.9884 14.7175,45.3218 44.5,20C 54.0395,13.5533 64.3728,9.38663 75.5,7.5 Z M 78.5,21.5 C 111.86,20.711 132.693,36.3777 141,68.5C 143.59,100.504 129.756,121.671 99.5,132C 91.8984,133.523 84.2318,133.856 76.5,133C 68.4166,131.292 60.75,128.458 53.5,124.5C 47.4944,126.168 41.4944,127.835 35.5,129.5C 35.1667,128.833 34.8333,128.167 34.5,127.5C 36.1679,121.494 37.8346,115.494 39.5,109.5C 23.2679,80.8271 27.2679,55.3271 51.5,33C 59.8695,27.4764 68.8695,23.643 78.5,21.5 Z"/></g>
<g><path style="opacity:1" fill="#3999fb" d="M 59.5,45.5 C 63.6034,44.7691 67.1034,45.7691 70,48.5C 75.9738,56.7042 75.8071,64.5376 69.5,72C 75.2206,81.5577 83.2206,88.3911 93.5,92.5C 96.1629,90.3692 98.4962,87.8692 100.5,85C 107.673,84.164 113.84,86.3307 119,91.5C 120.964,97.2818 119.464,102.115 114.5,106C 106.226,110.492 97.8925,110.492 89.5,106C 69.3364,97.3528 56.6697,82.5194 51.5,61.5C 51.5504,54.7321 54.2171,49.3987 59.5,45.5 Z"/></g>
</svg>
