<?xml version="1.0" encoding="UTF-8"?>
<!DOCTYPE svg PUBLIC "-//W3C//DTD SVG 1.1//EN" "http://www.w3.org/Graphics/SVG/1.1/DTD/svg11.dtd">
<svg xmlns="http://www.w3.org/2000/svg" version="1.1" width="163px" height="163px" style="shape-rendering:geometricPrecision; text-rendering:geometricPrecision; image-rendering:optimizeQuality; fill-rule:evenodd; clip-rule:evenodd" xmlns:xlink="http://www.w3.org/1999/xlink">
<g><path style="opacity:1" fill="#3898fb" d="M 72.5,5.5 C 111.013,3.32656 138.18,19.6599 154,54.5C 165.812,93.7365 154.979,124.903 121.5,148C 91.8211,163.333 63.1545,161.666 35.5,143C 9.41088,120.73 0.577542,92.8962 9,59.5C 19.9491,29.3773 41.1158,11.3773 72.5,5.5 Z M 81.5,16.5 C 86.3272,17.1652 90.1605,19.4985 93,23.5C 98.2763,30.7219 101.943,38.7219 104,47.5C 106.105,56.9583 107.605,66.4583 108.5,76C 91.1699,76.4999 73.8365,76.6666 56.5,76.5C 56.67,57.8146 61.5033,40.4813 71,24.5C 73.8552,20.7893 77.3552,18.1226 81.5,16.5 Z M 106.5,21.5 C 129.945,32.1885 143.611,50.3552 147.5,76C 138.173,76.4998 128.839,76.6665 119.5,76.5C 119.355,57.0919 115.021,38.7586 106.5,21.5 Z M 55.5,22.5 C 56.3764,22.3691 57.0431,22.7025 57.5,23.5C 49.2465,40.1823 45.2465,57.849 45.5,76.5C 36.1667,76.5 26.8333,76.5 17.5,76.5C 20.8368,51.7921 33.5035,33.7921 55.5,22.5 Z M 17.5,87.5 C 26.8333,87.5 36.1667,87.5 45.5,87.5C 45.2435,106.14 49.2435,123.806 57.5,140.5C 57.1667,140.833 56.8333,141.167 56.5,141.5C 33.7252,130.637 20.7252,112.637 17.5,87.5 Z M 56.5,87.5 C 73.8365,87.3334 91.1699,87.5001 108.5,88C 107.577,104.191 103.744,119.691 97,134.5C 88.4585,149.538 79.1251,150.205 69,136.5C 60.9671,121.174 56.8004,104.841 56.5,87.5 Z M 119.5,87.5 C 128.839,87.3335 138.173,87.5002 147.5,88C 143.698,112.78 130.531,130.614 108,141.5C 107.5,141.333 107,141.167 106.5,141C 115.212,124.282 119.546,106.449 119.5,87.5 Z"/></g>
</svg>
