<?xml version="1.0" encoding="UTF-8"?>
<!DOCTYPE svg PUBLIC "-//W3C//DTD SVG 1.1//EN" "http://www.w3.org/Graphics/SVG/1.1/DTD/svg11.dtd">
<svg xmlns="http://www.w3.org/2000/svg" version="1.1" width="163px" height="163px" style="shape-rendering:geometricPrecision; text-rendering:geometricPrecision; image-rendering:optimizeQuality; fill-rule:evenodd; clip-rule:evenodd" xmlns:xlink="http://www.w3.org/1999/xlink">
<g><path style="opacity:1" fill="#edfefe" d="M 74.5,-0.5 C 74.8333,-0.5 75.1667,-0.5 75.5,-0.5C 75.3147,0.170143 74.9813,0.170143 74.5,-0.5 Z"/></g>
<g><path style="opacity:0.196" fill="#fcfbeb" d="M 64.5,0.5 C 65.8333,1.16667 65.8333,1.16667 64.5,0.5 Z"/></g>
<g><path style="opacity:1" fill="#e4fdfe" d="M 94.5,2.5 C 85.1136,2.22007 75.7803,2.55341 66.5,3.5C 66.6107,2.88258 66.944,2.38258 67.5,2C 76.5326,0.710616 85.5326,0.877283 94.5,2.5 Z"/></g>
<g><path style="opacity:1" fill="#3f9afc" d="M 94.5,2.5 C 96.0502,2.4921 97.7168,2.82543 99.5,3.5C 102.686,5.87429 106.353,6.87429 110.5,6.5C 110.5,7.16667 110.833,7.5 111.5,7.5C 111.973,8.90632 112.973,9.57298 114.5,9.5C 114.833,9.5 115.167,9.5 115.5,9.5C 115.973,10.9063 116.973,11.573 118.5,11.5C 118.833,11.5 119.167,11.5 119.5,11.5C 121.531,13.5224 123.865,15.1891 126.5,16.5C 127.167,16.8333 127.833,17.1667 128.5,17.5C 129.5,19.1667 130.833,20.5 132.5,21.5C 133.778,21.7822 134.778,22.4489 135.5,23.5C 135.5,25.5 136.5,26.5 138.5,26.5C 139.551,27.2223 140.218,28.2223 140.5,29.5C 140.833,30.5 141.5,31.1667 142.5,31.5C 142.5,32.1667 142.833,32.5 143.5,32.5C 143.5,32.8333 143.5,33.1667 143.5,33.5C 144.512,34.8717 145.512,36.205 146.5,37.5C 146.5,38.1667 146.833,38.5 147.5,38.5C 147.5,38.8333 147.5,39.1667 147.5,39.5C 147.953,41.5652 148.953,43.2318 150.5,44.5C 151.942,45.8195 152.608,47.4862 152.5,49.5C 152.796,51.403 153.463,53.0697 154.5,54.5C 156.086,57.2418 157.253,60.2418 158,63.5C 158.808,73.9101 158.641,84.2435 157.5,94.5C 156.596,95.209 156.263,96.209 156.5,97.5C 155.539,99.2646 155.205,101.265 155.5,103.5C 154.522,105.456 153.522,107.456 152.5,109.5C 151.326,110.514 150.66,111.847 150.5,113.5C 147.687,114.446 146.354,116.446 146.5,119.5C 146.5,119.833 146.5,120.167 146.5,120.5C 144.75,121.659 143.75,123.326 143.5,125.5C 142.5,126.5 141.5,127.5 140.5,128.5C 139.167,129.167 138.167,130.167 137.5,131.5C 136.167,132.167 135.167,133.167 134.5,134.5C 134.167,135.167 133.833,135.833 133.5,136.5C 133.167,136.5 132.833,136.5 132.5,136.5C 131.167,137.167 130.167,138.167 129.5,139.5C 128.778,140.551 127.778,141.218 126.5,141.5C 125.29,141.932 124.29,142.599 123.5,143.5C 122.833,143.5 122.5,143.833 122.5,144.5C 120.847,144.66 119.514,145.326 118.5,146.5C 117.531,147.309 116.698,148.309 116,149.5C 115.667,149.167 115.333,148.833 115,148.5C 111.075,150.694 106.908,152.36 102.5,153.5C 99.2727,153.676 96.2727,154.343 93.5,155.5C 85.0796,155.956 76.7462,155.956 68.5,155.5C 65.997,154.629 63.3303,153.963 60.5,153.5C 58.3146,153.296 56.3146,152.63 54.5,151.5C 53.4863,150.326 52.153,149.66 50.5,149.5C 48.4458,149.635 46.7791,148.968 45.5,147.5C 45.0269,146.094 44.0269,145.427 42.5,145.5C 38.4313,144.128 35.4313,142.128 33.5,139.5C 32.7095,138.599 31.7095,137.932 30.5,137.5C 30.1667,136.5 29.5,135.833 28.5,135.5C 27.4884,134.128 26.4884,132.795 25.5,131.5C 24.8333,131.167 24.1667,130.833 23.5,130.5C 23.5,130.167 23.5,129.833 23.5,129.5C 22.8333,128.167 21.8333,127.167 20.5,126.5C 19.2719,125.694 18.2719,124.694 17.5,123.5C 17.7373,122.209 17.404,121.209 16.5,120.5C 16.5,119.833 16.1667,119.5 15.5,119.5C 15.6716,118.508 15.3382,117.842 14.5,117.5C 12.6369,116.274 11.6369,114.941 11.5,113.5C 11.7373,112.209 11.404,111.209 10.5,110.5C 10.5,109.833 10.5,109.167 10.5,108.5C 9.11965,105.089 7.78632,101.756 6.5,98.5C 6.5,97.5 6.5,96.5 6.5,95.5C 6.5,94.5 6.5,93.5 6.5,92.5C 6.5,82.8333 6.5,73.1667 6.5,63.5C 6.5,62.8333 6.5,62.1667 6.5,61.5C 6.5,60.8333 6.5,60.1667 6.5,59.5C 7.4582,57.6976 8.12487,55.6976 8.5,53.5C 8.5,53.1667 8.5,52.8333 8.5,52.5C 9.90632,52.0269 10.573,51.0269 10.5,49.5C 10.5,48.8333 10.5,48.1667 10.5,47.5C 11.4884,46.205 12.4884,44.8717 13.5,43.5C 12.8902,42.609 12.5569,41.609 12.5,40.5C 13.1174,40.6107 13.6174,40.944 14,41.5C 14.2784,40.5842 14.7784,39.9175 15.5,39.5C 16.3382,39.1583 16.6716,38.4916 16.5,37.5C 16.5,37.1667 16.5,36.8333 16.5,36.5C 17.8333,35.8333 18.8333,34.8333 19.5,33.5C 19.3893,32.8826 19.056,32.3826 18.5,32C 20.6961,30.3007 22.6961,28.4673 24.5,26.5C 25.8333,25.8333 26.8333,24.8333 27.5,23.5C 27.5,23.1667 27.5,22.8333 27.5,22.5C 28.5,21.8333 29.5,21.1667 30.5,20.5C 32.4044,20.2624 33.7377,19.2624 34.5,17.5C 37.1905,15.4686 39.8571,13.4686 42.5,11.5C 43.1667,11.1667 43.8333,10.8333 44.5,10.5C 45.4916,10.6716 46.1583,10.3382 46.5,9.5C 47.1667,9.5 47.8333,9.5 48.5,9.5C 50.0269,9.57298 51.0269,8.90632 51.5,7.5C 51.8333,7.5 52.1667,7.5 52.5,7.5C 54.153,7.3404 55.4863,6.67373 56.5,5.5C 56.8333,5.5 57.1667,5.5 57.5,5.5C 60.4951,5.70621 63.1617,5.03954 65.5,3.5C 65.8333,3.5 66.1667,3.5 66.5,3.5C 75.7803,2.55341 85.1136,2.22007 94.5,2.5 Z M 76.5,15.5 C 77.1667,15.5 77.8333,15.5 78.5,15.5C 81.9826,15.3273 84.9826,16.3273 87.5,18.5C 88.391,19.1098 89.391,19.4431 90.5,19.5C 90.5,20.8333 90.5,22.1667 90.5,23.5C 91.5,23.5 92.5,23.5 93.5,23.5C 93.8333,24.1667 94.1667,24.8333 94.5,25.5C 94.3433,26.8734 94.51,28.2068 95,29.5C 95.2784,28.5842 95.7784,27.9175 96.5,27.5C 96.3398,29.1992 96.5065,30.8659 97,32.5C 97.3333,32.1667 97.6667,31.8333 98,31.5C 98.561,34.2794 99.3944,36.946 100.5,39.5C 100.396,44.085 101.396,48.4184 103.5,52.5C 101.908,54.2249 102.242,55.2249 104.5,55.5C 104.252,61.0441 104.919,66.3774 106.5,71.5C 105.25,71.4226 104.417,70.756 104,69.5C 102.281,70.8688 100.448,71.8688 98.5,72.5C 86.5,72.5 74.5,72.5 62.5,72.5C 60.5,72.1667 58.5,71.8333 56.5,71.5C 56.5,70.1667 56.5,68.8333 56.5,67.5C 58.0855,62.3218 58.7521,56.9884 58.5,51.5C 60.1628,49.5615 60.8294,47.2282 60.5,44.5C 61.038,42.8828 61.3713,41.2161 61.5,39.5C 64.3357,39.1627 65.0024,37.8293 63.5,35.5C 64.3382,35.1583 64.6716,34.4916 64.5,33.5C 65.5862,33.38 66.2528,32.7133 66.5,31.5C 67.4669,29.2383 68.1336,26.905 68.5,24.5C 68.5,23.8333 68.8333,23.5 69.5,23.5C 71.0174,23.4894 72.1841,22.8228 73,21.5C 74.4213,19.5952 75.588,17.5952 76.5,15.5 Z M 48.5,23.5 C 49.8333,23.5 51.1667,23.5 52.5,23.5C 52.5,24.8333 52.5,26.1667 52.5,27.5C 49.5099,30.1313 47.5099,33.4646 46.5,37.5C 46.7472,38.7133 47.4138,39.38 48.5,39.5C 45.2448,48.3682 43.5781,57.7015 43.5,67.5C 42.5655,68.5676 42.2322,69.901 42.5,71.5C 34.4136,71.0115 26.4136,71.0115 18.5,71.5C 18.2479,68.7562 18.9145,66.2562 20.5,64C 20.2568,63.0979 19.9234,62.2646 19.5,61.5C 19.6287,59.7839 19.962,58.1172 20.5,56.5C 21.5844,54.1849 23.251,52.3516 25.5,51C 24.7476,50.3292 24.4142,49.4959 24.5,48.5C 25.9063,48.0269 26.573,47.0269 26.5,45.5C 27.3764,45.6309 28.0431,45.2975 28.5,44.5C 29.5498,43.5712 29.5498,42.9046 28.5,42.5C 28.5,42.1667 28.5,41.8333 28.5,41.5C 29.8333,41.5 30.5,40.8333 30.5,39.5C 30.5,38.8333 30.8333,38.5 31.5,38.5C 31.5,37.8333 31.8333,37.5 32.5,37.5C 35.5616,36.7322 37.2283,34.7322 37.5,31.5C 43.1642,31.4938 46.8308,28.8271 48.5,23.5 Z M 108.5,24.5 C 108.5,24.1667 108.5,23.8333 108.5,23.5C 110.167,23.5 111.833,23.5 113.5,23.5C 114.167,23.5 114.5,23.8333 114.5,24.5C 114.389,25.1174 114.056,25.6174 113.5,26C 115.518,26.5046 117.518,27.0046 119.5,27.5C 119.833,27.5 120.167,27.5 120.5,27.5C 120.833,29.8333 122.167,31.1667 124.5,31.5C 124.842,32.3382 125.508,32.6716 126.5,32.5C 126.423,33.7498 125.756,34.5831 124.5,35C 126.628,35.6552 128.628,36.4886 130.5,37.5C 130.5,38.8333 131.167,39.5 132.5,39.5C 134.449,44.4733 136.449,49.4733 138.5,54.5C 139.325,55.3857 140.325,55.719 141.5,55.5C 141.833,56.8333 142.167,58.1667 142.5,59.5C 142.025,62.0821 142.692,64.0821 144.5,65.5C 144.5,66.1667 144.5,66.8333 144.5,67.5C 144.5,68.8333 144.5,70.1667 144.5,71.5C 138.31,71.1771 132.31,71.5104 126.5,72.5C 125.833,72.5 125.167,72.5 124.5,72.5C 122.565,71.8505 120.565,71.5172 118.5,71.5C 118.5,68.8333 118.5,66.1667 118.5,63.5C 118.511,61.4534 118.844,59.4534 119.5,57.5C 119.339,54.2996 118.339,51.633 116.5,49.5C 116.5,49.1667 116.5,48.8333 116.5,48.5C 116.938,48.5654 117.272,48.3988 117.5,48C 117.162,44.7456 116.162,41.9123 114.5,39.5C 114.33,38.1779 114.663,37.0113 115.5,36C 114.364,34.8549 113.364,33.6883 112.5,32.5C 112.169,30.6776 111.502,29.0109 110.5,27.5C 110.573,25.9731 109.906,24.9731 108.5,24.5 Z M 28.5,85.5 C 28.62,86.5862 29.2867,87.2528 30.5,87.5C 31.7133,87.2528 32.38,86.5862 32.5,85.5C 35.681,85.7423 38.681,85.7423 41.5,85.5C 42.8692,87.7639 43.8692,90.0972 44.5,92.5C 44.67,93.8221 44.3366,94.9887 43.5,96C 45.0845,103.57 46.7512,111.07 48.5,118.5C 45.9409,120.457 46.2742,122.123 49.5,123.5C 50.3052,125.915 51.3052,128.249 52.5,130.5C 52.3433,131.873 52.51,133.207 53,134.5C 53.3826,133.944 53.8826,133.611 54.5,133.5C 54.5,133.833 54.5,134.167 54.5,134.5C 53.791,135.404 52.791,135.737 51.5,135.5C 50.7784,135.082 50.2784,134.416 50,133.5C 49.6174,134.056 49.1174,134.389 48.5,134.5C 48.3059,132.088 46.9726,131.088 44.5,131.5C 45.5981,130.603 45.5981,129.77 44.5,129C 42.9751,127.991 41.3084,127.491 39.5,127.5C 38.1274,125.793 36.4607,124.46 34.5,123.5C 35.5498,120.98 34.5498,119.646 31.5,119.5C 30.8333,119.5 30.5,119.167 30.5,118.5C 31.0838,115.715 30.0838,114.048 27.5,113.5C 27.5,112.833 27.1667,112.5 26.5,112.5C 26.7148,110.821 26.0481,109.821 24.5,109.5C 24.5,109.167 24.5,108.833 24.5,108.5C 25.6129,107.054 25.7796,105.387 25,103.5C 24.5831,104.756 23.7498,105.423 22.5,105.5C 22.6107,104.883 22.944,104.383 23.5,104C 22.0267,103.29 21.3601,102.124 21.5,100.5C 20.6618,100.158 20.3284,99.4916 20.5,98.5C 20.9227,96.2188 20.256,94.5521 18.5,93.5C 18.5,90.8333 18.5,88.1667 18.5,85.5C 21.8333,85.5 25.1667,85.5 28.5,85.5 Z M 98.5,85.5 C 99.1667,86.1667 99.8333,86.8333 100.5,87.5C 101.167,87.5 101.833,87.5 102.5,87.5C 102.5,86.8333 102.5,86.1667 102.5,85.5C 104.03,86.2112 105.363,87.2112 106.5,88.5C 105.117,94.201 104.117,99.8677 103.5,105.5C 103.489,102.999 102.822,102.832 101.5,105C 102.423,107.041 102.756,109.208 102.5,111.5C 100.656,113.279 99.9898,115.612 100.5,118.5C 99.8333,120.833 99.1667,123.167 98.5,125.5C 96.9519,125.821 96.2852,126.821 96.5,128.5C 96.5,128.833 96.5,129.167 96.5,129.5C 94.9519,129.821 94.2852,130.821 94.5,132.5C 94.1436,134.19 93.1436,135.19 91.5,135.5C 90.5041,135.414 89.6708,135.748 89,136.5C 88.2152,138.249 87.3818,139.916 86.5,141.5C 85.1667,141.5 83.8333,141.5 82.5,141.5C 82.5,142.167 82.5,142.833 82.5,143.5C 81.8333,143.5 81.1667,143.5 80.5,143.5C 80.0825,142.778 79.4158,142.278 78.5,142C 78.9574,141.586 79.2907,141.086 79.5,140.5C 78.1667,140.167 76.8333,139.833 75.5,139.5C 73.2005,136.031 70.7005,132.698 68,129.5C 67.6174,130.056 67.1174,130.389 66.5,130.5C 66.5,130.167 66.5,129.833 66.5,129.5C 68.1478,127.128 67.4811,125.794 64.5,125.5C 63.192,122.27 62.192,118.936 61.5,115.5C 60.596,114.791 60.2627,113.791 60.5,112.5C 60.8799,110.302 60.2132,108.635 58.5,107.5C 58.6107,106.883 58.944,106.383 59.5,106C 58.8873,99.7113 57.8873,94.2113 56.5,89.5C 56.7214,88.2652 57.3881,87.2652 58.5,86.5C 71.8167,85.5008 85.15,85.1675 98.5,85.5 Z M 142.5,85.5 C 143.167,86.8333 143.833,88.1667 144.5,89.5C 144.5,90.1667 144.5,90.8333 144.5,91.5C 142.656,93.2789 141.99,95.6122 142.5,98.5C 142.204,100.403 141.537,102.07 140.5,103.5C 138.153,105.527 136.819,108.194 136.5,111.5C 136.5,111.833 136.5,112.167 136.5,112.5C 135.542,112.047 134.708,111.381 134,110.5C 133.517,111.448 133.351,112.448 133.5,113.5C 134.338,113.842 134.672,114.508 134.5,115.5C 133.167,115.5 132.5,116.167 132.5,117.5C 132.167,118.5 131.5,119.167 130.5,119.5C 128.469,120.539 127.136,122.205 126.5,124.5C 126.5,125.167 126.167,125.5 125.5,125.5C 122.248,126.418 119.914,128.418 118.5,131.5C 117.833,131.5 117.167,131.5 116.5,131.5C 116.672,132.492 116.338,133.158 115.5,133.5C 113.833,133.5 112.167,133.5 110.5,133.5C 110.5,132.5 110.5,131.5 110.5,130.5C 110.557,129.391 110.89,128.391 111.5,127.5C 113.379,127.607 113.712,127.107 112.5,126C 114.259,124.992 115.426,123.492 116,121.5C 117.738,114.286 118.571,106.62 118.5,98.5C 118.5,94.8333 118.5,91.1667 118.5,87.5C 126.3,85.6401 134.3,84.9735 142.5,85.5 Z"/></g>
<g><path style="opacity:1" fill="#e0f8fc" d="M 110.5,6.5 C 106.353,6.87429 102.686,5.87429 99.5,3.5C 101.717,2.77304 104.05,2.93971 106.5,4C 105.112,4.88934 105.278,5.38934 107,5.5C 108.922,3.89467 110.089,4.228 110.5,6.5 Z"/></g>
<g><path style="opacity:0.969" fill="#95c6f7" d="M 65.5,3.5 C 63.1617,5.03954 60.4951,5.70621 57.5,5.5C 59.8383,3.96046 62.5049,3.29379 65.5,3.5 Z"/></g>
<g><path style="opacity:0.925" fill="#bbdbff" d="M 56.5,5.5 C 55.4863,6.67373 54.153,7.3404 52.5,7.5C 53.287,5.89578 54.6203,5.22911 56.5,5.5 Z"/></g>
<g><path style="opacity:0.878" fill="#c9e6f2" d="M 51.5,7.5 C 51.0269,8.90632 50.0269,9.57298 48.5,9.5C 48.8212,7.95186 49.8212,7.28519 51.5,7.5 Z"/></g>
<g><path style="opacity:1" fill="#dcf3f8" d="M 111.5,7.5 C 112.873,7.34332 114.207,7.50999 115.5,8C 114.944,8.38258 114.611,8.88258 114.5,9.5C 112.973,9.57298 111.973,8.90632 111.5,7.5 Z"/></g>
<g><path style="opacity:0.024" fill="#feffea" d="M 140.5,7.5 C 141.833,8.16667 141.833,8.16667 140.5,7.5 Z"/></g>
<g><path style="opacity:1" fill="#eafbf7" d="M 46.5,9.5 C 46.1583,10.3382 45.4916,10.6716 44.5,10.5C 45.032,7.5404 45.6987,7.20706 46.5,9.5 Z"/></g>
<g><path style="opacity:0.792" fill="#efede2" d="M 42.5,11.5 C 41.8333,10.1667 41.8333,10.1667 42.5,11.5 Z"/></g>
<g><path style="opacity:1" fill="#dcf2f5" d="M 118.5,11.5 C 116.973,11.573 115.973,10.9063 115.5,9.5C 117.368,8.32642 118.368,8.99309 118.5,11.5 Z"/></g>
<g><path style="opacity:0.746" fill="#e3fbfd" d="M 119.5,11.5 C 123.206,11.4986 125.539,13.1653 126.5,16.5C 123.865,15.1891 121.531,13.5224 119.5,11.5 Z"/></g>
<g><path style="opacity:1" fill="#dbf7ff" d="M 78.5,15.5 C 83.5143,13.4678 87.5143,14.8012 90.5,19.5C 89.391,19.4431 88.391,19.1098 87.5,18.5C 84.9826,16.3273 81.9826,15.3273 78.5,15.5 Z"/></g>
<g><path style="opacity:1" fill="#f8f2e5" d="M 133.5,17.5 C 132.833,16.1667 132.833,16.1667 133.5,17.5 Z"/></g>
<g><path style="opacity:1" fill="#e0f8fe" d="M 128.5,17.5 C 130.833,17.8333 132.167,19.1667 132.5,21.5C 130.833,20.5 129.5,19.1667 128.5,17.5 Z"/></g>
<g><path style="opacity:1" fill="#f3f5ee" d="M 133.5,17.5 C 134.833,18.1667 134.833,18.1667 133.5,17.5 Z"/></g>
<g><path style="opacity:1" fill="#feffed" d="M 140.5,17.5 C 142.337,17.6395 142.67,18.3061 141.5,19.5C 140.702,19.0431 140.369,18.3764 140.5,17.5 Z"/></g>
<g><path style="opacity:1" fill="#d9effc" d="M 34.5,17.5 C 33.7377,19.2624 32.4044,20.2624 30.5,20.5C 31.2623,18.7376 32.5956,17.7376 34.5,17.5 Z"/></g>
<g><path style="opacity:0.612" fill="#e2f2fb" d="M 76.5,15.5 C 75.588,17.5952 74.4213,19.5952 73,21.5C 72.1841,22.8228 71.0174,23.4894 69.5,23.5C 71.0434,20.2081 73.3767,17.5414 76.5,15.5 Z"/></g>
<g><path style="opacity:1" fill="#e8f7fe" d="M 133.5,19.5 C 134.833,20.1667 134.833,20.1667 133.5,19.5 Z"/></g>
<g><path style="opacity:0.353" fill="#edfbfe" d="M 27.5,22.5 C 26.8333,21.1667 26.8333,21.1667 27.5,22.5 Z"/></g>
<g><path style="opacity:1" fill="#ddf8fc" d="M 52.5,27.5 C 52.5,26.1667 52.5,24.8333 52.5,23.5C 51.1667,23.5 49.8333,23.5 48.5,23.5C 50.7315,21.799 53.2315,20.4657 56,19.5C 54.6799,22.0228 53.5133,24.6895 52.5,27.5 Z"/></g>
<g><path style="opacity:1" fill="#e1fafc" d="M 113.5,23.5 C 111.833,23.5 110.167,23.5 108.5,23.5C 107.152,22.4732 106.652,21.1398 107,19.5C 109.438,20.5684 111.605,21.9017 113.5,23.5 Z"/></g>
<g><path style="opacity:0.431" fill="#e3faff" d="M 90.5,19.5 C 91.4884,20.795 92.4884,22.1283 93.5,23.5C 92.5,23.5 91.5,23.5 90.5,23.5C 90.5,22.1667 90.5,20.8333 90.5,19.5 Z"/></g>
<g><path style="opacity:0.878" fill="#e4fdff" d="M 27.5,23.5 C 26.8333,24.8333 25.8333,25.8333 24.5,26.5C 24.0618,26.5654 23.7284,26.3988 23.5,26C 24.4709,24.5187 25.8042,23.6854 27.5,23.5 Z"/></g>
<g><path style="opacity:1" fill="#ebf9f4" d="M 135.5,23.5 C 136.973,24.0715 138.64,24.0715 140.5,23.5C 140.649,24.552 140.483,25.552 140,26.5C 139.31,25.2617 138.81,25.2617 138.5,26.5C 136.5,26.5 135.5,25.5 135.5,23.5 Z"/></g>
<g><path style="opacity:0.11" fill="#e6fafc" d="M 114.5,24.5 C 116.933,24.2729 118.599,25.2729 119.5,27.5C 117.518,27.0046 115.518,26.5046 113.5,26C 114.056,25.6174 114.389,25.1174 114.5,24.5 Z"/></g>
<g><path style="opacity:1" fill="#cee3f6" d="M 108.5,24.5 C 109.906,24.9731 110.573,25.9731 110.5,27.5C 108.952,27.1788 108.285,26.1788 108.5,24.5 Z"/></g>
<g><path style="opacity:1" fill="#dcf5ff" d="M 94.5,25.5 C 95.5,25.8333 96.1667,26.5 96.5,27.5C 95.7784,27.9175 95.2784,28.5842 95,29.5C 94.51,28.2068 94.3433,26.8734 94.5,25.5 Z"/></g>
<g><path style="opacity:0.408" fill="#ebfafa" d="M 48.5,23.5 C 46.8308,28.8271 43.1642,31.4938 37.5,31.5C 41.1614,28.8405 44.8281,26.1738 48.5,23.5 Z"/></g>
<g><path style="opacity:0.488" fill="#d6effc" d="M 68.5,24.5 C 68.1336,26.905 67.4669,29.2383 66.5,31.5C 66.2528,32.7133 65.5862,33.38 64.5,33.5C 65.083,30.0534 66.4163,27.0534 68.5,24.5 Z"/></g>
<g><path style="opacity:0.743" fill="#d4f4f8" d="M 120.5,27.5 C 122.341,28.4023 123.674,29.7356 124.5,31.5C 122.167,31.1667 120.833,29.8333 120.5,27.5 Z"/></g>
<g><path style="opacity:1" fill="#defeff" d="M 140.5,29.5 C 141.833,29.5 142.5,30.1667 142.5,31.5C 141.5,31.1667 140.833,30.5 140.5,29.5 Z"/></g>
<g><path style="opacity:1" fill="#e8f2fe" d="M 143.5,31.5 C 144.833,32.1667 144.833,32.1667 143.5,31.5 Z"/></g>
<g><path style="opacity:1" fill="#ddf3f9" d="M 19.5,33.5 C 18.8333,34.8333 17.8333,35.8333 16.5,36.5C 16.0618,36.5654 15.7284,36.3988 15.5,36C 16.1905,34.9326 16.6905,33.7659 17,32.5C 17.6708,33.2524 18.5041,33.5858 19.5,33.5 Z"/></g>
<g><path style="opacity:0.925" fill="#ddf1fd" d="M 37.5,31.5 C 37.2283,34.7322 35.5616,36.7322 32.5,37.5C 33.4194,34.9108 35.086,32.9108 37.5,31.5 Z"/></g>
<g><path style="opacity:0.829" fill="#e4f8f6" d="M 52.5,27.5 C 51.3627,31.5786 50.0294,35.5786 48.5,39.5C 47.4138,39.38 46.7472,38.7133 46.5,37.5C 47.5099,33.4646 49.5099,30.1313 52.5,27.5 Z"/></g>
<g><path style="opacity:1" fill="#e0edf3" d="M 126.5,32.5 C 128.207,33.8726 129.54,35.5393 130.5,37.5C 128.628,36.4886 126.628,35.6552 124.5,35C 125.756,34.5831 126.423,33.7498 126.5,32.5 Z"/></g>
<g><path style="opacity:1" fill="#e0f8ff" d="M 143.5,33.5 C 145.912,33.6941 146.912,35.0274 146.5,37.5C 145.512,36.205 144.512,34.8717 143.5,33.5 Z"/></g>
<g><path style="opacity:1" fill="#fbf6ee" d="M 148.5,33.5 C 149.833,34.1667 149.833,34.1667 148.5,33.5 Z"/></g>
<g><path style="opacity:0.986" fill="#ddf9fd" d="M 112.5,32.5 C 113.364,33.6883 114.364,34.8549 115.5,36C 114.663,37.0113 114.33,38.1779 114.5,39.5C 113.388,37.4006 112.721,35.0673 112.5,32.5 Z"/></g>
<g><path style="opacity:1" fill="#cedce7" d="M 16.5,37.5 C 16.6716,38.4916 16.3382,39.1583 15.5,39.5C 13.9689,38.0755 14.3023,37.4088 16.5,37.5 Z"/></g>
<g><path style="opacity:1" fill="#e2f6ff" d="M 130.5,37.5 C 131.5,37.8333 132.167,38.5 132.5,39.5C 131.167,39.5 130.5,38.8333 130.5,37.5 Z"/></g>
<g><path style="opacity:1" fill="#e3e9fe" d="M 147.5,37.5 C 148.833,38.1667 148.833,38.1667 147.5,37.5 Z"/></g>
<g><path style="opacity:0.439" fill="#e9f8f0" d="M 63.5,35.5 C 65.0024,37.8293 64.3357,39.1627 61.5,39.5C 61.6596,37.847 62.3263,36.5137 63.5,35.5 Z"/></g>
<g><path style="opacity:0.106" fill="#eff6e7" d="M 12.5,40.5 C 11.8333,39.1667 11.8333,39.1667 12.5,40.5 Z"/></g>
<g><path style="opacity:0.663" fill="#cbdcec" d="M 30.5,39.5 C 30.5,40.8333 29.8333,41.5 28.5,41.5C 28.5,40.1667 29.1667,39.5 30.5,39.5 Z"/></g>
<g><path style="opacity:0.427" fill="#dcf9fd" d="M 114.5,39.5 C 116.162,41.9123 117.162,44.7456 117.5,48C 117.272,48.3988 116.938,48.5654 116.5,48.5C 115.755,45.6104 115.088,42.6104 114.5,39.5 Z"/></g>
<g><path style="opacity:0.622" fill="#fdfef0" d="M 126.5,42.5 C 127.077,41.2267 127.743,41.2267 128.5,42.5C 128.03,43.463 127.363,43.463 126.5,42.5 Z"/></g>
<g><path style="opacity:1" fill="#ceecf1" d="M 147.5,39.5 C 148.5,39.5 149.5,39.5 150.5,39.5C 150.5,41.1667 150.5,42.8333 150.5,44.5C 148.953,43.2318 147.953,41.5652 147.5,39.5 Z"/></g>
<g><path style="opacity:0.563" fill="#ddf7ff" d="M 13.5,43.5 C 12.4884,44.8717 11.4884,46.205 10.5,47.5C 10.0882,45.0274 11.0882,43.6941 13.5,43.5 Z"/></g>
<g><path style="opacity:1" fill="#e0f4fc" d="M 28.5,42.5 C 29.5498,42.9046 29.5498,43.5712 28.5,44.5C 28.0431,45.2975 27.3764,45.6309 26.5,45.5C 26.427,43.9731 27.0937,42.9731 28.5,42.5 Z"/></g>
<g><path style="opacity:1" fill="#d7f5fb" d="M 100.5,39.5 C 103.061,44.4105 104.394,49.7438 104.5,55.5C 102.242,55.2249 101.908,54.2249 103.5,52.5C 101.396,48.4184 100.396,44.085 100.5,39.5 Z"/></g>
<g><path style="opacity:1" fill="#fdeff1" d="M 152.5,44.5 C 153.833,45.1667 153.833,45.1667 152.5,44.5 Z"/></g>
<g><path style="opacity:0.612" fill="#e3f8f8" d="M 132.5,39.5 C 136.26,44.296 139.26,49.6293 141.5,55.5C 140.325,55.719 139.325,55.3857 138.5,54.5C 136.449,49.4733 134.449,44.4733 132.5,39.5 Z"/></g>
<g><path style="opacity:1" fill="#f9ffee" d="M 156.5,47.5 C 157.525,47.8966 157.692,48.5632 157,49.5C 156.536,48.9056 156.369,48.2389 156.5,47.5 Z"/></g>
<g><path style="opacity:1" fill="#d2f0fb" d="M 152.5,49.5 C 154.256,50.5521 154.923,52.2188 154.5,54.5C 153.463,53.0697 152.796,51.403 152.5,49.5 Z"/></g>
<g><path style="opacity:1" fill="#d5eafa" d="M 60.5,44.5 C 60.8294,47.2282 60.1628,49.5615 58.5,51.5C 58.4095,48.8478 59.0762,46.5145 60.5,44.5 Z"/></g>
<g><path style="opacity:0.859" fill="#d2e9f0" d="M 10.5,49.5 C 10.573,51.0269 9.90632,52.0269 8.5,52.5C 8.06178,52.5654 7.72845,52.3988 7.5,52C 8.07794,50.583 9.07794,49.7496 10.5,49.5 Z"/></g>
<g><path style="opacity:1" fill="#95bbf0" d="M 24.5,48.5 C 24.4142,49.4959 24.7476,50.3292 25.5,51C 23.251,52.3516 21.5844,54.1849 20.5,56.5C 20.2945,53.0032 21.6278,50.3365 24.5,48.5 Z"/></g>
<g><path style="opacity:1" fill="#cae9f5" d="M 116.5,49.5 C 118.339,51.633 119.339,54.2996 119.5,57.5C 118.844,59.4534 118.511,61.4534 118.5,63.5C 117.356,59.0363 116.69,54.3696 116.5,49.5 Z"/></g>
<g><path style="opacity:1" fill="#d8fafc" d="M 8.5,53.5 C 8.12487,55.6976 7.4582,57.6976 6.5,59.5C 6.02539,56.9179 6.69206,54.9179 8.5,53.5 Z"/></g>
<g><path style="opacity:1" fill="#f8ffed" d="M -0.5,55.5 C 0.833333,56.1667 0.833333,56.8333 -0.5,57.5C -0.5,56.8333 -0.5,56.1667 -0.5,55.5 Z"/></g>
<g><path style="opacity:0.902" fill="#d7f4ff" d="M 142.5,59.5 C 143.458,61.3024 144.125,63.3024 144.5,65.5C 142.692,64.0821 142.025,62.0821 142.5,59.5 Z"/></g>
<g><path style="opacity:1" fill="#e2fbfe" d="M 6.5,61.5 C 6.5,62.1667 6.5,62.8333 6.5,63.5C 5.83333,66.8333 5.16667,70.1667 4.5,73.5C 3.91057,69.0293 4.57723,65.0293 6.5,61.5 Z"/></g>
<g><path style="opacity:0.983" fill="#e5f7fb" d="M 19.5,61.5 C 19.9234,62.2646 20.2568,63.0979 20.5,64C 18.9145,66.2562 18.2479,68.7562 18.5,71.5C 26.4136,71.0115 34.4136,71.0115 42.5,71.5C 42.2322,69.901 42.5655,68.5676 43.5,67.5C 43.7394,69.4672 43.4061,71.3005 42.5,73C 35.1756,72.2531 27.8423,72.4197 20.5,73.5C 19.5581,73.3918 18.7247,73.0585 18,72.5C 17.1206,68.5227 17.6206,64.8561 19.5,61.5 Z"/></g>
<g><path style="opacity:0.967" fill="#ecfdfb" d="M 106.5,71.5 C 104.052,72.4731 101.385,72.8064 98.5,72.5C 100.448,71.8688 102.281,70.8688 104,69.5C 104.417,70.756 105.25,71.4226 106.5,71.5 Z"/></g>
<g><path style="opacity:1" fill="#e7fafd" d="M 144.5,67.5 C 145.139,68.0968 145.472,68.9302 145.5,70C 145.612,71.6624 144.946,72.8291 143.5,73.5C 137.896,72.5456 132.229,72.2123 126.5,72.5C 132.31,71.5104 138.31,71.1771 144.5,71.5C 144.5,70.1667 144.5,68.8333 144.5,67.5 Z"/></g>
<g><path style="opacity:1" fill="#b6cef1" d="M 56.5,67.5 C 56.5,68.8333 56.5,70.1667 56.5,71.5C 58.5,71.8333 60.5,72.1667 62.5,72.5C 56.7445,74.9176 54.7445,73.251 56.5,67.5 Z"/></g>
<g><path style="opacity:1" fill="#c1d5ed" d="M 118.5,71.5 C 120.565,71.5172 122.565,71.8505 124.5,72.5C 123.726,73.1471 122.726,73.4805 121.5,73.5C 119.97,73.3601 118.97,72.6935 118.5,71.5 Z"/></g>
<g><path style="opacity:1" fill="#5e87be" d="M 6.5,63.5 C 6.5,73.1667 6.5,82.8333 6.5,92.5C 5.83333,89.8333 5.16667,87.1667 4.5,84.5C 4.5,80.8333 4.5,77.1667 4.5,73.5C 5.16667,70.1667 5.83333,66.8333 6.5,63.5 Z"/></g>
<g><path style="opacity:1" fill="#fef8ee" d="M 1.5,82.5 C 2.83333,83.1667 2.83333,83.1667 1.5,82.5 Z"/></g>
<g><path style="opacity:1" fill="#fef7ed" d="M 1.5,83.5 C 0.833333,84.1667 0.833333,84.1667 1.5,83.5 Z"/></g>
<g><path style="opacity:1" fill="#a5d2fd" d="M 44.5,92.5 C 43.8692,90.0972 42.8692,87.7639 41.5,85.5C 38.681,85.7423 35.681,85.7423 32.5,85.5C 31.1667,85.5 29.8333,85.5 28.5,85.5C 25.1667,85.5 21.8333,85.5 18.5,85.5C 18.5,88.1667 18.5,90.8333 18.5,93.5C 17.7337,91.3157 17.0671,88.9823 16.5,86.5C 16.7093,85.914 17.0426,85.414 17.5,85C 26.1667,84.3333 34.8333,84.3333 43.5,85C 44.435,87.3806 44.7683,89.8806 44.5,92.5 Z"/></g>
<g><path style="opacity:1" fill="#a1d3fe" d="M 106.5,88.5 C 105.363,87.2112 104.03,86.2112 102.5,85.5C 101.167,85.5 99.8333,85.5 98.5,85.5C 85.15,85.1675 71.8167,85.5008 58.5,86.5C 57.3881,87.2652 56.7214,88.2652 56.5,89.5C 55.1991,88.1155 55.1991,86.6155 56.5,85C 73.1633,84.5001 89.83,84.3334 106.5,84.5C 106.5,85.8333 106.5,87.1667 106.5,88.5 Z"/></g>
<g><path style="opacity:1" fill="#9bd0ff" d="M 144.5,85.5 C 143.833,85.5 143.167,85.5 142.5,85.5C 134.3,84.9735 126.3,85.6401 118.5,87.5C 118.414,86.5041 118.748,85.6708 119.5,85C 128.01,84.1768 136.344,84.3434 144.5,85.5 Z"/></g>
<g><path style="opacity:1" fill="#fcffe8" d="M 98.5,85.5 C 99.8333,85.5 101.167,85.5 102.5,85.5C 102.5,86.1667 102.5,86.8333 102.5,87.5C 101.833,87.5 101.167,87.5 100.5,87.5C 99.8333,86.8333 99.1667,86.1667 98.5,85.5 Z"/></g>
<g><path style="opacity:1" fill="#fef7ed" d="M 1.5,86.5 C 2.83333,87.1667 2.83333,87.1667 1.5,86.5 Z"/></g>
<g><path style="opacity:0.019" fill="#f5ffe7" d="M 28.5,85.5 C 29.8333,85.5 31.1667,85.5 32.5,85.5C 32.38,86.5862 31.7133,87.2528 30.5,87.5C 29.2867,87.2528 28.62,86.5862 28.5,85.5 Z"/></g>
<g><path style="opacity:1" fill="#ddfbfc" d="M 142.5,85.5 C 143.167,85.5 143.833,85.5 144.5,85.5C 145.833,86.8333 145.833,88.1667 144.5,89.5C 143.833,88.1667 143.167,86.8333 142.5,85.5 Z"/></g>
<g><path style="opacity:0.582" fill="#f7ffeb" d="M 100.5,87.5 C 100.361,89.337 99.6939,89.6704 98.5,88.5C 98.9569,87.7025 99.6236,87.3691 100.5,87.5 Z"/></g>
<g><path style="opacity:1" fill="#e4fcfd" d="M 144.5,91.5 C 144.073,94.0098 143.407,96.3432 142.5,98.5C 141.99,95.6122 142.656,93.2789 144.5,91.5 Z"/></g>
<g><path style="opacity:0.595" fill="#e6fdff" d="M 18.5,93.5 C 20.256,94.5521 20.9227,96.2188 20.5,98.5C 19.4625,97.0697 18.7959,95.403 18.5,93.5 Z"/></g>
<g><path style="opacity:1" fill="#d5f4fb" d="M 4.5,84.5 C 5.16667,87.1667 5.83333,89.8333 6.5,92.5C 6.5,93.5 6.5,94.5 6.5,95.5C 4.58635,92.3157 3.91969,88.649 4.5,84.5 Z"/></g>
<g><path style="opacity:1" fill="#eefffe" d="M 157.5,94.5 C 158.833,95.1667 158.833,95.1667 157.5,94.5 Z"/></g>
<g><path style="opacity:0.608" fill="#daf2fe" d="M 6.5,98.5 C 7.78632,101.756 9.11965,105.089 10.5,108.5C 10.1667,108.5 9.83333,108.5 9.5,108.5C 7.19721,105.609 6.19721,102.276 6.5,98.5 Z"/></g>
<g><path style="opacity:1" fill="#e2fafc" d="M 156.5,97.5 C 156.261,99.4672 156.594,101.301 157.5,103C 156.906,103.464 156.239,103.631 155.5,103.5C 155.205,101.265 155.539,99.2646 156.5,97.5 Z"/></g>
<g><path style="opacity:0.622" fill="#fffcec" d="M 96.5,99.5 C 97.5862,99.62 98.2528,100.287 98.5,101.5C 98.1667,102.167 97.8333,102.833 97.5,103.5C 96.5713,102.311 96.238,100.978 96.5,99.5 Z"/></g>
<g><path style="opacity:0.832" fill="#e6fafd" d="M 103.5,105.5 C 103.795,107.735 103.461,109.735 102.5,111.5C 102.756,109.208 102.423,107.041 101.5,105C 102.822,102.832 103.489,102.999 103.5,105.5 Z"/></g>
<g><path style="opacity:1" fill="#e2f9ff" d="M 140.5,103.5 C 140.104,106.721 138.771,109.388 136.5,111.5C 136.819,108.194 138.153,105.527 140.5,103.5 Z"/></g>
<g><path style="opacity:0.243" fill="#f0f9f2" d="M 24.5,108.5 C 23.0937,108.027 22.427,107.027 22.5,105.5C 23.7498,105.423 24.5831,104.756 25,103.5C 25.7796,105.387 25.6129,107.054 24.5,108.5 Z"/></g>
<g><path style="opacity:0.757" fill="#e1f8f9" d="M 118.5,98.5 C 118.571,106.62 117.738,114.286 116,121.5C 115.426,123.492 114.259,124.992 112.5,126C 113.712,127.107 113.379,127.607 111.5,127.5C 114.477,118.014 116.81,108.348 118.5,98.5 Z"/></g>
<g><path style="opacity:0.468" fill="#fefff0" d="M 126.5,107.5 C 127.289,107.783 127.956,108.283 128.5,109C 127.184,109.528 126.517,109.028 126.5,107.5 Z"/></g>
<g><path style="opacity:1" fill="#eafafe" d="M 9.5,108.5 C 8.83333,109.167 8.83333,109.167 9.5,108.5 Z"/></g>
<g><path style="opacity:0.427" fill="#c6e8ff" d="M 24.5,109.5 C 26.0481,109.821 26.7148,110.821 26.5,112.5C 25.5987,111.71 24.9321,110.71 24.5,109.5 Z"/></g>
<g><path style="opacity:1" fill="#cee7f4" d="M 58.5,107.5 C 60.2132,108.635 60.8799,110.302 60.5,112.5C 58.7868,111.365 58.1201,109.698 58.5,107.5 Z"/></g>
<g><path style="opacity:1" fill="#ecf8ef" d="M 157.5,109.5 C 158.833,110.167 158.833,110.167 157.5,109.5 Z"/></g>
<g><path style="opacity:0.973" fill="#feeff2" d="M 8.5,111.5 C 7.83333,110.167 7.83333,110.167 8.5,111.5 Z"/></g>
<g><path style="opacity:1" fill="#e7f5fc" d="M 152.5,109.5 C 152.771,111.38 152.104,112.713 150.5,113.5C 150.66,111.847 151.326,110.514 152.5,109.5 Z"/></g>
<g><path style="opacity:1" fill="#feeeed" d="M 8.5,112.5 C 7.83333,113.167 7.83333,113.167 8.5,112.5 Z"/></g>
<g><path style="opacity:0.973" fill="#e5f1f6" d="M 136.5,112.5 C 136.068,113.71 135.401,114.71 134.5,115.5C 134.672,114.508 134.338,113.842 133.5,113.5C 133.351,112.448 133.517,111.448 134,110.5C 134.708,111.381 135.542,112.047 136.5,112.5 Z"/></g>
<g><path style="opacity:1" fill="#fef2ed" d="M 6.5,114.5 C 7.83333,115.167 7.83333,115.167 6.5,114.5 Z"/></g>
<g><path style="opacity:1" fill="#f7f8f0" d="M 10.5,110.5 C 11.404,111.209 11.7373,112.209 11.5,113.5C 10.8485,114.091 10.1818,114.757 9.5,115.5C 9.40697,114.528 9.07364,113.528 8.5,112.5C 8.5,112.167 8.5,111.833 8.5,111.5C 9.49162,111.672 10.1583,111.338 10.5,110.5 Z"/></g>
<g><path style="opacity:0.951" fill="#d8f2f6" d="M 27.5,113.5 C 30.0838,114.048 31.0838,115.715 30.5,118.5C 28.7497,117.341 27.7497,115.674 27.5,113.5 Z"/></g>
<g><path style="opacity:1" fill="#dbf9ff" d="M 102.5,111.5 C 102.59,114.152 101.924,116.485 100.5,118.5C 99.9898,115.612 100.656,113.279 102.5,111.5 Z"/></g>
<g><path style="opacity:1" fill="#a6c4e5" d="M 134.5,115.5 C 134.5,116.833 133.833,117.5 132.5,117.5C 132.5,116.167 133.167,115.5 134.5,115.5 Z"/></g>
<g><path style="opacity:1" fill="#8cbbf8" d="M 150.5,113.5 C 150.489,115.017 149.823,116.184 148.5,117C 149.056,117.383 149.389,117.883 149.5,118.5C 148.609,119.11 147.609,119.443 146.5,119.5C 146.354,116.446 147.687,114.446 150.5,113.5 Z"/></g>
<g><path style="opacity:1" fill="#e8f4fe" d="M 8.5,117.5 C 9.83333,118.167 9.83333,118.167 8.5,117.5 Z"/></g>
<g><path style="opacity:1" fill="#eefaec" d="M 14.5,117.5 C 15.3382,117.842 15.6716,118.508 15.5,119.5C 14.325,119.719 13.325,119.386 12.5,118.5C 12.9569,117.702 13.6236,117.369 14.5,117.5 Z"/></g>
<g><path style="opacity:1" fill="#fefdee" d="M 149.5,118.5 C 150.833,119.167 150.833,119.167 149.5,118.5 Z"/></g>
<g><path style="opacity:0.596" fill="#e1f8fc" d="M 31.5,119.5 C 34.5498,119.646 35.5498,120.98 34.5,123.5C 33.5116,122.205 32.5116,120.872 31.5,119.5 Z"/></g>
<g><path style="opacity:0.757" fill="#e3f6f5" d="M 48.5,118.5 C 49.4511,119.919 49.7845,121.585 49.5,123.5C 46.2742,122.123 45.9409,120.457 48.5,118.5 Z"/></g>
<g><path style="opacity:0.643" fill="#e8fefe" d="M 130.5,119.5 C 129.92,121.749 128.587,123.415 126.5,124.5C 127.136,122.205 128.469,120.539 130.5,119.5 Z"/></g>
<g><path style="opacity:1" fill="#fef4eb" d="M 149.5,123.5 C 148.833,122.167 148.833,122.167 149.5,123.5 Z"/></g>
<g><path style="opacity:0.859" fill="#ecfbf5" d="M 16.5,120.5 C 17.404,121.209 17.7373,122.209 17.5,123.5C 17.1034,124.525 16.4368,124.692 15.5,124C 16.3366,122.989 16.67,121.822 16.5,120.5 Z"/></g>
<g><path style="opacity:1" fill="#e3f8fd" d="M 146.5,120.5 C 146.938,120.435 147.272,120.601 147.5,121C 146.333,122.833 145.167,124.667 144,126.5C 143.601,126.272 143.435,125.938 143.5,125.5C 143.75,123.326 144.75,121.659 146.5,120.5 Z"/></g>
<g><path style="opacity:1" fill="#f7f5e8" d="M 148.5,125.5 C 147.833,124.167 147.833,124.167 148.5,125.5 Z"/></g>
<g><path style="opacity:1" fill="#fdf8e9" d="M 149.5,123.5 C 150.833,124.167 150.833,124.833 149.5,125.5C 149.5,124.833 149.5,124.167 149.5,123.5 Z"/></g>
<g><path style="opacity:1" fill="#dcf5fc" d="M 98.5,125.5 C 98.573,127.027 97.9063,128.027 96.5,128.5C 96.2852,126.821 96.9519,125.821 98.5,125.5 Z"/></g>
<g><path style="opacity:1" fill="#efecde" d="M 147.5,125.5 C 146.833,126.167 146.833,126.167 147.5,125.5 Z"/></g>
<g><path style="opacity:1" fill="#f9f9ee" d="M 148.5,125.5 C 148.833,125.5 149.167,125.5 149.5,125.5C 149.315,126.17 148.981,126.17 148.5,125.5 Z"/></g>
<g><path style="opacity:1" fill="#def6fc" d="M 64.5,125.5 C 67.4811,125.794 68.1478,127.128 66.5,129.5C 65.3263,128.486 64.6596,127.153 64.5,125.5 Z"/></g>
<g><path style="opacity:1" fill="#ddf6fd" d="M 125.5,125.5 C 123.781,128.219 121.447,130.219 118.5,131.5C 119.914,128.418 122.248,126.418 125.5,125.5 Z"/></g>
<g><path style="opacity:1" fill="#dbf1f6" d="M 20.5,126.5 C 21.8333,127.167 22.8333,128.167 23.5,129.5C 21.5,129.5 20.5,128.5 20.5,126.5 Z"/></g>
<g><path style="opacity:0.892" fill="#e1f4f4" d="M 39.5,127.5 C 41.3084,127.491 42.9751,127.991 44.5,129C 45.5981,129.77 45.5981,130.603 44.5,131.5C 42.2512,130.92 40.5846,129.587 39.5,127.5 Z"/></g>
<g><path style="opacity:1" fill="#d4edfa" d="M 96.5,129.5 C 96.573,131.027 95.9063,132.027 94.5,132.5C 94.2852,130.821 94.9519,129.821 96.5,129.5 Z"/></g>
<g><path style="opacity:1" fill="#e6f8fc" d="M 140.5,128.5 C 140.328,129.492 140.662,130.158 141.5,130.5C 140.432,131.434 139.099,131.768 137.5,131.5C 138.167,130.167 139.167,129.167 140.5,128.5 Z"/></g>
<g><path style="opacity:1" fill="#fef5ea" d="M 141.5,129.5 C 142.833,130.167 142.833,130.167 141.5,129.5 Z"/></g>
<g><path style="opacity:1" fill="#ecfcf6" d="M 23.5,130.5 C 22.8333,131.167 22.8333,131.167 23.5,130.5 Z"/></g>
<g><path style="opacity:0.588" fill="#fafbf3" d="M 116.5,131.5 C 115.637,132.463 114.97,132.463 114.5,131.5C 115.257,130.227 115.923,130.227 116.5,131.5 Z"/></g>
<g><path style="opacity:0.902" fill="#d9f7ff" d="M 44.5,131.5 C 46.9726,131.088 48.3059,132.088 48.5,134.5C 47.1283,133.488 45.795,132.488 44.5,131.5 Z"/></g>
<g><path style="opacity:1" fill="#d7e7f9" d="M 52.5,130.5 C 53.9063,130.973 54.573,131.973 54.5,133.5C 53.8826,133.611 53.3826,133.944 53,134.5C 52.51,133.207 52.3433,131.873 52.5,130.5 Z"/></g>
<g><path style="opacity:1" fill="#e9f4f8" d="M 25.5,131.5 C 26.4884,132.795 27.4884,134.128 28.5,135.5C 26.9382,135.267 25.6049,134.6 24.5,133.5C 24.8333,132.833 25.1667,132.167 25.5,131.5 Z"/></g>
<g><path style="opacity:1" fill="#e6f3f8" d="M 137.5,131.5 C 138.234,132.708 138.567,134.041 138.5,135.5C 137.041,135.567 135.708,135.234 134.5,134.5C 135.167,133.167 136.167,132.167 137.5,131.5 Z"/></g>
<g><path style="opacity:1" fill="#eee8f0" d="M 24.5,133.5 C 23.8333,134.167 23.8333,134.167 24.5,133.5 Z"/></g>
<g><path style="opacity:1" fill="#edf1fe" d="M 140.5,134.5 C 141.833,135.167 141.833,135.167 140.5,134.5 Z"/></g>
<g><path style="opacity:1" fill="#c8f2fa" d="M 54.5,134.5 C 56.2726,135.314 56.7726,136.648 56,138.5C 54.3484,137.601 52.8484,136.601 51.5,135.5C 52.791,135.737 53.791,135.404 54.5,134.5 Z"/></g>
<g><path style="opacity:1" fill="#dbf3f7" d="M 110.5,130.5 C 110.5,131.5 110.5,132.5 110.5,133.5C 112.167,133.5 113.833,133.5 115.5,133.5C 113.093,134.712 110.76,136.212 108.5,138C 107.5,138.667 106.5,138.667 105.5,138C 106.818,135.176 108.485,132.676 110.5,130.5 Z"/></g>
<g><path style="opacity:1" fill="#dfecfb" d="M 133.5,136.5 C 134.833,137.167 134.833,137.167 133.5,136.5 Z"/></g>
<g><path style="opacity:0.975" fill="#ecfef5" d="M 30.5,137.5 C 31.7095,137.932 32.7095,138.599 33.5,139.5C 31.5038,141.917 30.5038,141.25 30.5,137.5 Z"/></g>
<g><path style="opacity:0.959" fill="#ddf5fb" d="M 91.5,135.5 C 91.2876,138.712 89.6209,140.712 86.5,141.5C 87.3818,139.916 88.2152,138.249 89,136.5C 89.6708,135.748 90.5041,135.414 91.5,135.5 Z"/></g>
<g><path style="opacity:1" fill="#e5fbfd" d="M 132.5,136.5 C 132.414,137.496 132.748,138.329 133.5,139C 132.234,139.309 131.067,139.809 130,140.5C 129.601,140.272 129.435,139.938 129.5,139.5C 130.167,138.167 131.167,137.167 132.5,136.5 Z"/></g>
<g><path style="opacity:0.975" fill="#dff5f9" d="M 80.5,143.5 C 76.1474,142.681 72.6474,140.348 70,136.5C 69.4363,134.113 68.2696,132.113 66.5,130.5C 67.1174,130.389 67.6174,130.056 68,129.5C 70.7005,132.698 73.2005,136.031 75.5,139.5C 76.8333,139.833 78.1667,140.167 79.5,140.5C 79.2907,141.086 78.9574,141.586 78.5,142C 79.4158,142.278 80.0825,142.778 80.5,143.5 Z"/></g>
<g><path style="opacity:0.949" fill="#d5f4fc" d="M 82.5,141.5 C 83.8333,141.5 85.1667,141.5 86.5,141.5C 85.4863,142.674 84.153,143.34 82.5,143.5C 82.5,142.833 82.5,142.167 82.5,141.5 Z"/></g>
<g><path style="opacity:1" fill="#f9fdee" d="M 130.5,141.5 C 131.833,142.167 131.833,142.167 130.5,141.5 Z"/></g>
<g><path style="opacity:1" fill="#d3efff" d="M 126.5,141.5 C 126.179,143.048 125.179,143.715 123.5,143.5C 124.29,142.599 125.29,141.932 126.5,141.5 Z"/></g>
<g><path style="opacity:1" fill="#f9ecea" d="M 39.5,146.5 C 38.8333,145.167 38.8333,145.167 39.5,146.5 Z"/></g>
<g><path style="opacity:1" fill="#ebf9ec" d="M 122.5,144.5 C 122.719,145.675 122.386,146.675 121.5,147.5C 120.583,146.873 119.583,146.539 118.5,146.5C 119.514,145.326 120.847,144.66 122.5,144.5 Z"/></g>
<g><path style="opacity:1" fill="#f5e9e6" d="M 39.5,146.5 C 40.8333,147.167 40.8333,147.167 39.5,146.5 Z"/></g>
<g><path style="opacity:1" fill="#dbf5fd" d="M 42.5,145.5 C 44.0269,145.427 45.0269,146.094 45.5,147.5C 43.8212,147.715 42.8212,147.048 42.5,145.5 Z"/></g>
<g><path style="opacity:1" fill="#d1f3f8" d="M 50.5,149.5 C 52.153,149.66 53.4863,150.326 54.5,151.5C 52.5168,151.843 51.1834,151.176 50.5,149.5 Z"/></g>
<g><path style="opacity:0.243" fill="#e4fefc" d="M 60.5,153.5 C 63.3303,153.963 65.997,154.629 68.5,155.5C 65.1501,155.665 61.8168,155.498 58.5,155C 59.4158,154.722 60.0825,154.222 60.5,153.5 Z"/></g>
<g><path style="opacity:1" fill="#e4fdfd" d="M 102.5,153.5 C 100.844,155.06 98.8439,156.06 96.5,156.5C 95.391,156.443 94.391,156.11 93.5,155.5C 96.2727,154.343 99.2727,153.676 102.5,153.5 Z"/></g>
<g><path style="opacity:1" fill="#ecfafe" d="M 103.5,154.5 C 104.833,155.167 104.833,155.167 103.5,154.5 Z"/></g>
<g><path style="opacity:1" fill="#f8fdeb" d="M 96.5,156.5 C 97.8333,157.167 97.8333,157.167 96.5,156.5 Z"/></g>
<g><path style="opacity:1" fill="#f5faeb" d="M 98.5,156.5 C 99.8333,157.167 99.8333,157.167 98.5,156.5 Z"/></g>
</svg>
