<?xml version="1.0" encoding="UTF-8"?>
<!DOCTYPE svg PUBLIC "-//W3C//DTD SVG 1.1//EN" "http://www.w3.org/Graphics/SVG/1.1/DTD/svg11.dtd">
<svg xmlns="http://www.w3.org/2000/svg" version="1.1" width="192px" height="144px" style="shape-rendering:geometricPrecision; text-rendering:geometricPrecision; image-rendering:optimizeQuality; fill-rule:evenodd; clip-rule:evenodd" xmlns:xlink="http://www.w3.org/1999/xlink">
<g><path style="opacity:1" fill="#3598fd" d="M 46.5,18.5 C 78.8351,18.3334 111.168,18.5 143.5,19C 156.181,23.0151 164.014,31.5151 167,44.5C 167.667,60.8333 167.667,77.1667 167,93.5C 163.935,106.898 155.768,115.398 142.5,119C 110.833,119.667 79.1667,119.667 47.5,119C 34.2315,115.398 26.0649,106.898 23,93.5C 22.3333,77.1667 22.3333,60.8333 23,44.5C 26.1746,31.4977 34.0079,22.8311 46.5,18.5 Z M 79.5,49.5 C 82.4245,49.4598 85.0912,50.2932 87.5,52C 98.3656,57.9292 109.032,64.0958 119.5,70.5C 107.657,76.922 95.6566,83.0887 83.5,89C 81.765,89.6514 80.0983,89.4847 78.5,88.5C 78.1667,82.1667 77.8333,75.8333 77.5,69.5C 77.5393,62.5954 78.206,55.9288 79.5,49.5 Z"/></g>
</svg>
