<?xml version="1.0" encoding="UTF-8"?>
<!DOCTYPE svg PUBLIC "-//W3C//DTD SVG 1.1//EN" "http://www.w3.org/Graphics/SVG/1.1/DTD/svg11.dtd">
<svg xmlns="http://www.w3.org/2000/svg" version="1.1" width="192px" height="144px" style="shape-rendering:geometricPrecision; text-rendering:geometricPrecision; image-rendering:optimizeQuality; fill-rule:evenodd; clip-rule:evenodd" xmlns:xlink="http://www.w3.org/1999/xlink">
<g><path style="opacity:1" fill="#e3fefe" d="M 47.5,21.5 C 63.9966,20.8334 80.6633,20.5001 97.5,20.5C 114.514,20.5005 131.18,21.1672 147.5,22.5C 114.21,21.5141 80.8768,21.1807 47.5,21.5 Z"/></g>
<g><path style="opacity:0.667" fill="#fdf5ee" d="M 38.5,22.5 C 37.8333,21.1667 37.8333,21.1667 38.5,22.5 Z"/></g>
<g><path style="opacity:1" fill="#fdf3eb" d="M 39.5,21.5 C 40.8333,22.1667 40.8333,22.1667 39.5,21.5 Z"/></g>
<g><path style="opacity:1" fill="#ebeffe" d="M 38.5,22.5 C 38.8333,22.5 39.1667,22.5 39.5,22.5C 39.3147,23.1701 38.9813,23.1701 38.5,22.5 Z"/></g>
<g><path style="opacity:1" fill="#3899fe" d="M 47.5,21.5 C 80.8768,21.1807 114.21,21.5141 147.5,22.5C 148.671,23.3446 150.005,24.0113 151.5,24.5C 151.833,24.5 152.167,24.5 152.5,24.5C 152.973,25.9063 153.973,26.573 155.5,26.5C 156.167,26.5 156.833,26.5 157.5,26.5C 158.122,28.1216 159.122,29.4549 160.5,30.5C 160.5,31.1667 160.833,31.5 161.5,31.5C 161.842,32.3382 162.508,32.6716 163.5,32.5C 163.5,33.1667 163.5,33.8333 163.5,34.5C 163.427,36.0269 164.094,37.0269 165.5,37.5C 165.5,38.1667 165.833,38.5 166.5,38.5C 166.232,40.099 166.566,41.4324 167.5,42.5C 167.328,43.4916 167.662,44.1583 168.5,44.5C 168.667,62.5031 168.5,80.5031 168,98.5C 166.872,100.345 166.372,102.345 166.5,104.5C 166.5,105.167 166.167,105.5 165.5,105.5C 164.596,106.209 164.263,107.209 164.5,108.5C 163.728,109.694 162.728,110.694 161.5,111.5C 160.167,112.167 159.167,113.167 158.5,114.5C 157.5,114.833 156.833,115.5 156.5,116.5C 156.027,117.906 155.027,118.573 153.5,118.5C 152.29,118.932 151.29,119.599 150.5,120.5C 149.391,120.557 148.391,120.89 147.5,121.5C 146.209,121.263 145.209,121.596 144.5,122.5C 142.073,122.523 139.74,123.023 137.5,124C 107.072,125.103 76.7389,124.603 46.5,122.5C 44.9724,121.691 43.3057,121.024 41.5,120.5C 41.1667,119.5 40.5,118.833 39.5,118.5C 38.8333,118.5 38.1667,118.5 37.5,118.5C 37.1583,117.662 36.4916,117.328 35.5,117.5C 34.4489,116.778 33.7822,115.778 33.5,114.5C 33.5,113.167 32.8333,112.5 31.5,112.5C 30.1363,110.809 28.803,109.142 27.5,107.5C 27.5,107.167 27.5,106.833 27.5,106.5C 27.0679,105.29 26.4013,104.29 25.5,103.5C 25.5,102.5 25.5,101.5 25.5,100.5C 25.5,80.8333 25.5,61.1667 25.5,41.5C 25.5,40.8333 25.5,40.1667 25.5,39.5C 26.9063,39.0269 27.573,38.0269 27.5,36.5C 28.3382,36.1583 28.6716,35.4916 28.5,34.5C 29.1667,34.5 29.5,34.1667 29.5,33.5C 31.5,32.1667 33.1667,30.5 34.5,28.5C 35.8333,27.8333 36.8333,26.8333 37.5,25.5C 40.3538,23.2712 43.6871,21.9379 47.5,21.5 Z M 85.5,54.5 C 86.1667,54.5 86.5,54.8333 86.5,55.5C 87.391,56.1098 88.391,56.4431 89.5,56.5C 89.238,57.9778 89.5713,59.3112 90.5,60.5C 91.2652,59.3881 92.2652,58.7214 93.5,58.5C 93.8212,60.0481 94.8212,60.7148 96.5,60.5C 98.1667,61.1667 99.8333,61.8333 101.5,62.5C 101.082,63.2216 100.416,63.7216 99.5,64C 101.134,64.4935 102.801,64.6602 104.5,64.5C 105.167,64.5 105.5,64.8333 105.5,65.5C 106.172,66.2674 107.005,66.9341 108,67.5C 108.399,67.2716 108.565,66.9382 108.5,66.5C 109.222,67.5511 110.222,68.2178 111.5,68.5C 112.1,69.8999 113.1,70.8999 114.5,71.5C 116.19,71.8564 117.19,72.8564 117.5,74.5C 115.364,74.5379 114.031,75.2046 113.5,76.5C 111.797,75.3398 111.131,76.0065 111.5,78.5C 110.833,78.5 110.167,78.5 109.5,78.5C 108.504,78.5858 107.671,78.2524 107,77.5C 104.8,78.6508 103.3,80.3175 102.5,82.5C 102.167,82.5 101.833,82.5 101.5,82.5C 100.127,82.3433 98.7932,82.51 97.5,83C 98.056,83.3826 98.3893,83.8826 98.5,84.5C 98.1667,84.5 97.8333,84.5 97.5,84.5C 95.1278,82.8522 93.7944,83.5189 93.5,86.5C 90.6129,87.6195 87.6129,88.6195 84.5,89.5C 84.1373,90.1835 83.8039,90.8501 83.5,91.5C 82.5,91.5 81.5,91.5 80.5,91.5C 79.522,79.9139 79.1887,68.2473 79.5,56.5C 81.5,55.8333 83.5,55.1667 85.5,54.5 Z"/></g>
<g><path style="opacity:1" fill="#e6f5f9" d="M 151.5,24.5 C 150.005,24.0113 148.671,23.3446 147.5,22.5C 148.473,21.2086 149.473,21.2086 150.5,22.5C 151.356,18.9195 152.356,18.7528 153.5,22C 152.944,23.0111 152.278,23.8444 151.5,24.5 Z"/></g>
<g><path style="opacity:0.643" fill="#eefdfe" d="M 157.5,25.5 C 156.833,24.1667 156.833,24.1667 157.5,25.5 Z"/></g>
<g><path style="opacity:1" fill="#e7f7fd" d="M 37.5,25.5 C 36.8333,26.8333 35.8333,27.8333 34.5,28.5C 35.1712,27.1529 35.1712,25.9862 34.5,25C 35.5768,24.5304 36.5768,24.6971 37.5,25.5 Z"/></g>
<g><path style="opacity:1" fill="#daebfd" d="M 152.5,24.5 C 154.179,24.2852 155.179,24.9519 155.5,26.5C 153.973,26.573 152.973,25.9063 152.5,24.5 Z"/></g>
<g><path style="opacity:0.427" fill="#eef9ee" d="M 157.5,25.5 C 158.833,26.1667 158.833,26.1667 157.5,25.5 Z"/></g>
<g><path style="opacity:1" fill="#eefcf7" d="M 161.5,31.5 C 160.833,31.5 160.5,31.1667 160.5,30.5C 162.346,29.2576 162.679,29.591 161.5,31.5 Z"/></g>
<g><path style="opacity:1" fill="#cfe8fc" d="M 34.5,28.5 C 33.1667,30.5 31.5,32.1667 29.5,33.5C 30.0695,30.6655 31.7361,28.9988 34.5,28.5 Z"/></g>
<g><path style="opacity:0.439" fill="#f6f6eb" d="M 163.5,31.5 C 164.833,32.1667 164.833,32.1667 163.5,31.5 Z"/></g>
<g><path style="opacity:0.643" fill="#e5f6f8" d="M 28.5,34.5 C 28.6716,35.4916 28.3382,36.1583 27.5,36.5C 26.0651,35.0152 26.2317,33.6819 28,32.5C 28.4643,33.0944 28.631,33.7611 28.5,34.5 Z"/></g>
<g><path style="opacity:0.951" fill="#ddf2fa" d="M 27.5,36.5 C 27.573,38.0269 26.9063,39.0269 25.5,39.5C 25.2852,37.8212 25.9519,36.8212 27.5,36.5 Z"/></g>
<g><path style="opacity:1" fill="#e3f3fe" d="M 163.5,34.5 C 164.906,34.9731 165.573,35.9731 165.5,37.5C 164.094,37.0269 163.427,36.0269 163.5,34.5 Z"/></g>
<g><path style="opacity:0.78" fill="#f0fdf2" d="M 167.5,42.5 C 166.566,41.4324 166.232,40.099 166.5,38.5C 167.648,37.105 168.648,37.2716 169.5,39C 168.177,39.8159 167.511,40.9826 167.5,42.5 Z"/></g>
<g><path style="opacity:1" fill="#e9f1ef" d="M 21.5,51.5 C 22.8333,52.1667 22.8333,52.1667 21.5,51.5 Z"/></g>
<g><path style="opacity:1" fill="#6985bb" d="M 25.5,41.5 C 25.5,61.1667 25.5,80.8333 25.5,100.5C 24.8333,99.1667 24.1667,97.8333 23.5,96.5C 22.8902,95.609 22.5569,94.609 22.5,93.5C 23.3315,77.3385 23.8315,61.0051 24,44.5C 24.2321,43.2625 24.7321,42.2625 25.5,41.5 Z"/></g>
<g><path style="opacity:1" fill="#e4fefc" d="M 85.5,54.5 C 83.5,55.1667 81.5,55.8333 79.5,56.5C 79.5,55.5 79.5,54.5 79.5,53.5C 81.842,52.0131 83.842,52.3464 85.5,54.5 Z"/></g>
<g><path style="opacity:1" fill="#e0fefe" d="M 168.5,44.5 C 169.662,62.9955 169.829,81.6621 169,100.5C 168.71,102.111 167.877,103.444 166.5,104.5C 166.372,102.345 166.872,100.345 168,98.5C 168.5,80.5031 168.667,62.5031 168.5,44.5 Z"/></g>
<g><path style="opacity:1" fill="#dff5ff" d="M 93.5,58.5 C 95.0269,58.427 96.0269,59.0937 96.5,60.5C 94.8212,60.7148 93.8212,60.0481 93.5,58.5 Z"/></g>
<g><path style="opacity:0.265" fill="#f4faf2" d="M 89.5,56.5 C 90.9952,56.9887 92.3285,57.6554 93.5,58.5C 92.2652,58.7214 91.2652,59.3881 90.5,60.5C 89.5713,59.3112 89.238,57.9778 89.5,56.5 Z"/></g>
<g><path style="opacity:0.963" fill="#d5f2ff" d="M 101.5,62.5 C 102.71,62.9321 103.71,63.5987 104.5,64.5C 102.801,64.6602 101.134,64.4935 99.5,64C 100.416,63.7216 101.082,63.2216 101.5,62.5 Z"/></g>
<g><path style="opacity:1" fill="#d1efff" d="M 105.5,65.5 C 106.791,65.2627 107.791,65.596 108.5,66.5C 108.565,66.9382 108.399,67.2716 108,67.5C 107.005,66.9341 106.172,66.2674 105.5,65.5 Z"/></g>
<g><path style="opacity:1" fill="#e0f9f9" d="M 111.5,68.5 C 114.82,69.158 117.487,70.8247 119.5,73.5C 119.043,74.2975 118.376,74.6309 117.5,74.5C 117.19,72.8564 116.19,71.8564 114.5,71.5C 113.1,70.8999 112.1,69.8999 111.5,68.5 Z"/></g>
<g><path style="opacity:1" fill="#9dcbff" d="M 79.5,53.5 C 79.5,54.5 79.5,55.5 79.5,56.5C 79.1887,68.2473 79.522,79.9139 80.5,91.5C 79.1702,85.537 78.5036,79.2037 78.5,72.5C 78.5004,65.991 78.8338,59.6576 79.5,53.5 Z"/></g>
<g><path style="opacity:1" fill="#a1bde3" d="M 113.5,76.5 C 113.5,77.8333 112.833,78.5 111.5,78.5C 111.131,76.0065 111.797,75.3398 113.5,76.5 Z"/></g>
<g><path style="opacity:1" fill="#e8fafa" d="M 109.5,78.5 C 107.65,80.5716 105.317,81.9049 102.5,82.5C 103.3,80.3175 104.8,78.6508 107,77.5C 107.671,78.2524 108.504,78.5858 109.5,78.5 Z"/></g>
<g><path style="opacity:0.796" fill="#e5fcfe" d="M 101.5,82.5 C 100.71,83.4013 99.7095,84.0679 98.5,84.5C 98.3893,83.8826 98.056,83.3826 97.5,83C 98.7932,82.51 100.127,82.3433 101.5,82.5 Z"/></g>
<g><path style="opacity:0.741" fill="#e9fefc" d="M 97.5,84.5 C 96.4863,85.6737 95.153,86.3404 93.5,86.5C 93.7944,83.5189 95.1278,82.8522 97.5,84.5 Z"/></g>
<g><path style="opacity:0.677" fill="#e3fafe" d="M 93.5,86.5 C 90.6323,88.9125 87.299,90.5792 83.5,91.5C 83.8039,90.8501 84.1373,90.1835 84.5,89.5C 87.6129,88.6195 90.6129,87.6195 93.5,86.5 Z"/></g>
<g><path style="opacity:1" fill="#edfefe" d="M 22.5,93.5 C 21.8333,92.1667 21.8333,92.1667 22.5,93.5 Z"/></g>
<g><path style="opacity:1" fill="#e4f3fa" d="M 23.5,96.5 C 24.1667,97.8333 24.8333,99.1667 25.5,100.5C 25.5,101.5 25.5,102.5 25.5,103.5C 24.438,101.518 23.1047,99.6848 21.5,98C 22.4158,97.7216 23.0825,97.2216 23.5,96.5 Z"/></g>
<g><path style="opacity:1" fill="#dcf3ff" d="M 25.5,103.5 C 26.4013,104.29 27.0679,105.29 27.5,106.5C 26.8826,106.611 26.3826,106.944 26,107.5C 25.51,106.207 25.3433,104.873 25.5,103.5 Z"/></g>
<g><path style="opacity:0.373" fill="#e9fcf1" d="M 165.5,105.5 C 167.129,107.196 166.796,108.196 164.5,108.5C 164.263,107.209 164.596,106.209 165.5,105.5 Z"/></g>
<g><path style="opacity:0.951" fill="#ccebfe" d="M 27.5,107.5 C 28.803,109.142 30.1363,110.809 31.5,112.5C 28.5299,112.254 27.1966,110.588 27.5,107.5 Z"/></g>
<g><path style="opacity:1" fill="#bbc9ed" d="M 31.5,112.5 C 32.8333,112.5 33.5,113.167 33.5,114.5C 32.1667,114.5 31.5,113.833 31.5,112.5 Z"/></g>
<g><path style="opacity:0.263" fill="#d2f4fe" d="M 161.5,111.5 C 161.5,113.5 160.5,114.5 158.5,114.5C 159.167,113.167 160.167,112.167 161.5,111.5 Z"/></g>
<g><path style="opacity:0.259" fill="#daf8fc" d="M 158.5,114.5 C 158.5,115.833 157.833,116.5 156.5,116.5C 156.833,115.5 157.5,114.833 158.5,114.5 Z"/></g>
<g><path style="opacity:0.925" fill="#f4eefe" d="M 35.5,117.5 C 34.8333,118.167 34.8333,118.167 35.5,117.5 Z"/></g>
<g><path style="opacity:0.925" fill="#f9ecf0" d="M 37.5,118.5 C 36.8333,119.167 36.8333,119.167 37.5,118.5 Z"/></g>
<g><path style="opacity:1" fill="#ccf2ff" d="M 39.5,118.5 C 40.5,118.833 41.1667,119.5 41.5,120.5C 40.1667,120.5 39.5,119.833 39.5,118.5 Z"/></g>
<g><path style="opacity:0.475" fill="#d8f2fd" d="M 153.5,118.5 C 153.368,121.007 152.368,121.674 150.5,120.5C 151.29,119.599 152.29,118.932 153.5,118.5 Z"/></g>
<g><path style="opacity:1" fill="#e6fafa" d="M 41.5,120.5 C 43.3057,121.024 44.9724,121.691 46.5,122.5C 44.7376,122.357 43.0709,122.691 41.5,123.5C 40.913,122.767 40.913,121.767 41.5,120.5 Z"/></g>
<g><path style="opacity:0.263" fill="#fbecf3" d="M 149.5,121.5 C 150.833,122.167 150.833,122.167 149.5,121.5 Z"/></g>
<g><path style="opacity:0.188" fill="#e5f7f7" d="M 144.5,122.5 C 145.209,121.596 146.209,121.263 147.5,121.5C 148.463,122.363 148.463,123.03 147.5,123.5C 146.583,122.873 145.583,122.539 144.5,122.5 Z"/></g>
</svg>
